<mxfile host="app.diagrams.net" modified="2020-11-25T13:01:28.148Z" agent="5.0 (X11; Linux x86_64) AppleWebKit/537.36 (KHTML, like Gecko) Chrome/86.0.4240.111 Safari/537.36" etag="XAVaY5Z_lbeabFM3loQ_" version="13.10.0" type="github">
  <diagram id="FJ3Sj-lyxGpyaEMP-hpq" name="Page-1">
    <mxGraphModel dx="2674" dy="802" grid="1" gridSize="10" guides="1" tooltips="1" connect="1" arrows="1" fold="1" page="1" pageScale="1" pageWidth="827" pageHeight="1169" math="0" shadow="0">
      <root>
        <mxCell id="0" />
        <mxCell id="1" parent="0" />
        <mxCell id="RAJVKOpdcDavsLiYcgov-64" style="edgeStyle=orthogonalEdgeStyle;rounded=0;orthogonalLoop=1;jettySize=auto;html=1;entryX=0;entryY=0.5;entryDx=0;entryDy=0;" parent="1" source="RAJVKOpdcDavsLiYcgov-2" target="RAJVKOpdcDavsLiYcgov-19" edge="1">
          <mxGeometry relative="1" as="geometry">
            <Array as="points">
              <mxPoint x="-63" y="240" />
              <mxPoint x="-63" y="250" />
            </Array>
          </mxGeometry>
        </mxCell>
        <mxCell id="RAJVKOpdcDavsLiYcgov-65" value="Baixar app" style="edgeLabel;html=1;align=center;verticalAlign=middle;resizable=0;points=[];" parent="RAJVKOpdcDavsLiYcgov-64" vertex="1" connectable="0">
          <mxGeometry x="-0.7398" y="4" relative="1" as="geometry">
            <mxPoint x="12.4" y="-6" as="offset" />
          </mxGeometry>
        </mxCell>
        <mxCell id="RAJVKOpdcDavsLiYcgov-66" style="edgeStyle=orthogonalEdgeStyle;rounded=0;orthogonalLoop=1;jettySize=auto;html=1;exitX=1;exitY=0.25;exitDx=0;exitDy=0;entryX=0;entryY=0.5;entryDx=0;entryDy=0;" parent="1" source="RAJVKOpdcDavsLiYcgov-2" target="RAJVKOpdcDavsLiYcgov-20" edge="1">
          <mxGeometry relative="1" as="geometry">
            <Array as="points">
              <mxPoint x="-113" y="220" />
              <mxPoint x="-63" y="220" />
              <mxPoint x="-63" y="210" />
            </Array>
          </mxGeometry>
        </mxCell>
        <mxCell id="RAJVKOpdcDavsLiYcgov-2" value="Nova usuária&#xa;(primeiro acesso)" style="shape=image;verticalLabelPosition=bottom;labelBackgroundColor=#ffffff;verticalAlign=top;aspect=fixed;imageAspect=0;image=data:image/png,iVBORw0KGgoAAAANSUhEUgAAAGAAAABgCAYAAADimHc4AAAABmJLR0QA/wD/AP+gvaeTAAAOA0lEQVR4nO2da5RU1ZXH//tWdXU9+kFXQz9pAQU7EXw0MQRRo0LUgagLjYkmGWeELE1mQJOIgnHNGuOsZK0ITOKgjq7+QGZCHKMQDKCYiFECAy4XChHtBkTopl/VD7qqq6rr1XXv3fOhG4Smu++5956qhkz9vtHss/euveve89rnFJAjR44cOXLkyJEjR47/b9B4OzAWnZ3Rsjyd6lhRasGoJaAWoDKAfQBKAPiGRGMAQgDFwHoXE30KwmHSlSMuSh8orCzsGb9PMTbnVQI6OtjrUuI3k07zQXQTwLNg30cG8DEY7+oKv5NMe3fU1FBCgrtSGPcEMLMSCiTnsYL7wPq9ABVl2GKEQFtAvLGk3LudiLTM2hubcUtAUxO7i93xpQx6FMC0cXLjOIHXlvR719MMSo2HA1lPQEcHe/Mp8c8AHgFQmW37oxAAY20KnherqiieTcNZTUCwM3Y7M60DMDWbdk3QBuDHpZXeTdkymJUEhAKJqRr4WQJuy4Y9uxCwFUwP+as8LVmwlVlOdsQWE9F6DA4bLyA4AtADpZXeVzNpJWMJ4KOcH/QlVoPwcKZsZAWien/U/XCmOumMJCDSFilNO5yvA5ibCf1Zh7DHmU7fUVxTHJSvWjI9PbEqRVX+CPDlsnWPL3wIOt1aWu1tlalVagJOdqS+QKS9BaBGpt7ziBZdV26ZVO0+IkuhtAScbI1XkxN7AEyRpfO8hNCu6HRtSZXnhAx1igwlkbZIKTl5B/7Wgw8AjGqd9O3h1rBfhjrbTwAf5fxgQWInMtjhRkI9aD70EbpaP0NvoBWJeD+SiX4kYzFo6sBZsrcveRS1dfMy5crnMPb6Y575dkdHTrt+hAoS/44MBF8dSKHxg934aO+f0NVyTLjdnzfWo2bGLHgLMrymR5gX9CVWA/ihPTU26A3E7waw0Y6O4TAzGvftxO5tL6E/bG3UV1s3D7cveVSmW6PCjG9MrPJuttrecgJCgcRUHfgrwMVWdQwnHg3jzd+uQ9OhA7Z15bnc8BWXoLCoBJOnz8L0K76MsskXg0jyyJvQp+h0ldVO2bI3JwPxrQTcbrX9cHq72rDxuZ9a/taLUH7RJbhx8f2omT5Tql5ibPFXeRdbamul0dD6zmtW2o5ET0cLNj7/JOLRsCyVY3LFNV/Dgm89CIfDdhd4GiK+w1/h22a6ndkGQ+v5jZA05IxHw9iw5jFE+07KUCdMzYzLcecDq+Bye2WpbIqrnplmtztNzwPclFgGScHXNQ3b1q/JevABoPXox3j9v34JXddlqZzmdSS+b7aRqQTwUc5n4EdmjYzG/l1voPVYoyx1pjneuB+7t/1WnkLCyqYmdptpYioBoYL49wBUmXJqFGLhEN77Y0aX2oX44J0tCDQflaWusjg//o9mGggngJmVoQ10Kex+43+QSsjffq0oZiz5qo7ZU1lInpnx9qZ6MIvJG6ETPcbMwn2r8DDgZGfyBkVS9UK0rxeH9v1FhqrTFLmB+TN1XD2NoRAwZSKjLaigO2Ici66WYzje8CEumXW1bT8IuKQvkLwewC4ReeEnQIF+n2WvhvHBO1uhaaoUXS4HsGCmjkcWaZhz8WDwT/3923N1uBxiet5/2/Jk9hx0QDhWQglobWUPoNxl3aXP0TQVjft22tZDAOqmMFYs1LDgMh4x0OXFwB2zxUY5HccPo6dD0h486d8ajJkxQgnw5MVvkbXk0Hzor0jEorZ0TC9jLL9Fwzfn6Cg0+Jizp7Jwf3DoA1mvRSryOePzRSSFEkA6CSkT4cj+PZbbnupgl96go9LE1+GO2TrKioyTYMe34TDoJhE5sT6AxJQZwcw41rDPdLtCD3DX1TqW36xjRrn50YpofxAOdiPY1WZa/4gQFoiIGSagszNaNlSlbJvu9mZTQ89THeyKhdrp0Y1VRPuD5sMfWTdyJowrIh2RiUZihgnI06kOkvaO2z77REhOpIO1gkhf0NF0WI4xQBlwuK4yEjKcB7Ci1JKcOQpajzYYyswoZyy8klFRLMmoSSTOigFdqwXw9lgixhMxRq0sf3ramw1llnz17NfEkbYoNu9uBxHhzmurUFtTOGZ7s/LDCQe7kUrEke+xv0qqgAxjZ/gKIuZLbXuCwT3eSMj8SaHX/rcDkbiKcCyN1/Z0SJcfiXBvp6V2w2Fi+wkAKRUynAl2t0tbb8k0oZ6AHEVMhrETGIayuWd4FE52Wqvou/PaKhT78lDsy8Nd11VLlx+Jvh45TwAAw9iJLMZJSUAkaO2gYm1NIR6/V7wbMis/EqGT2UuAyESsQIIjiEX6ZKjJCvFISIoelpQAKcSjF04CkolY1myJJKBfhqH4BfQEJONyEkCA4aqjSALsLV0OEe+PyFCTFVIJKd85QE4CSEoC0gPjcgzXEhJ9lZAA1qUMCVQ1LSSXyamCqG5NlXR4ntgwdoYJYKJPZfgyvIx8NHYdytw1DjsbkkJyrMvZLiUmw5M0AjNhSDmOo6liH+qFt/pxokdOAM6ktVdD/dti/dDcW78pxaYOtp8A0nUpCdAFN+ETAzp+vrkPfXFpFWsIxXT826Yg4gPG76B5C+/BvIX3yDGsOOwnwEW8H4NXvtji776zHHkusaKxrrCGR/47iONd9p+EEz0qVm4IojtsnFCpwQd0V3rAsM7eMAGDlx2R2E7KGFw250bc99hqTKq6SEi+N6rhiZdD2Nko9t4eiXc/SWLlS0F0R4w7VcnBBwMfFU0u6jWSE5sJM79j2yMA/vLJ+O6K1bhy3s1C8okBHb96PYxodwpqSvyVpCZ1RLtSeGZ7GMlsv3aGIEAoZkIJ0BU5CQAAZ54LN9/7T1j09w8Lv5K0lI7+7hQigSQSfWmoSR26xoMvRgZ0jaGmdCT60ogEkujvSUEbEEtYJoIPAASxmAmVJibT3h1eZzIs8zjSZXNuRMWU6dj267XCBVG6ykhFVaSickZJmQo+QOGY6nlXRFLoCRg8dKD/3p5T52L2lSSTzAUfAOFV0YMawsW5OpQNCnipda9GcWDolVR98Rex49V6AMDUtBPXx92YG3dhsupEMqgi6Tf3rXf3OrCltQxtThXveVPY5U2iJW+wM85o8AGQjg3CsqKCzKwEOxNHAVxsySsBwtv/BPeLr6Cy5ewTM/x9oL94ABrE3usOJhSE80H1Z/yRCO1TJ+HgosvxlQdsHe0dEwI+K6nwXEokVksivB9ARDqB11p3bXQcJzpQuOwpTHvi+XOCDwB0glBQ6BI6YkoEFBTmg5qH/Qczqpu6sfD5P6PwB/8KR7OkCrjhMK8RDT5gsuBq6FqC45B0SgaqBk/9K/Cs3wSMtVRRA2AlQQvpiMZSo08LCSgsyIdjggKsZmCMbWh2uZB88B4klt4NWyV3Z9Pm7/dMN3N9gakdsSHFvzTt1ki6QhEUPfAv8NT/buzgA4OB7AYcJQoK/fmgEQJGCqHQPxT8LowZfACggQF4ntuAwmU/BUXlbMAwYY3ZuyNMb0mm2PMCgGaz7c4y2tGNovtXwXnAuFLuNEPnTRxeBUUVbuT7nFAcBMVByC9woKjCDYd36OPsEl85yXvvAIqWrILSbe+AOAPHoglPvbHk2Vh69oKB2EIGbbfSlkIRFN2/Co4T7eYa5gF4kgCjmUgfA08BMDlV0KZUIfrrp6H7rU11CHybv9L3htl2ljbl/ZW+NwnYarqhqqJw+VPmgw8AaQC/YYw5EGIAL5Hp4AODA4GCFb8ArGzGEF6zEnzATlUE00MgmNpp9677DZwNNopfPwXwB4zcCTOA3wM4bH3h1nmgAZ4XXzbbLATN+pU1trr/YGfsNmbaKqLHcfg4ir/zY0CXsOc4g4Bb+PP7d5sI2MGAjMJmh4Lwy89Au3SqoSgGz5x8Y2KV1/K9GbbHX70d8f8QuRu0aMlPzHW640j6mjpEX3jKWJDwq9IK7yN2bNkuzPLHPCvB2DuWjPNA4wUTfGBwZCTwqtzt7/U8bteW7QTQDEqRO7kIjFHP9rg3vmnXTNbJf2WsQR41ONX0YppJYpUGYyClNNHv94dZw9cBnHtrlKoi7933ZZjJKq4de4D0iKU0bcRYJOsWXWm1oRNrvO26rtwK4KzF/bwPG0AJ69uK4wUlknAePGdPvUXXlAUyb1WXWpw7qdp9RHfyXAAHT/3N+eGF8+4fTt6+j8/4FzdCx3WTJrul1EmdQnp19KRJvoBTTd90qmPO2KpjFjhjwrjbMZC+Tva90UCGytOLa4qD/krPDQw8rbRIOu4zDijN7QBjnT/o+dqEKRPkHBoYbiMTSgGAiNSJld7H1dm1P2N/ibwqqyyhl05g9UuzflFa5f2hjNHOaGTlJ0xi6zbVud7a+7pz30E5+wgZRv3KlW2p+dd8veBHdx80lrZHVn/EJ7XqP59w7nz/SaW53ZVNu6JokyvT6euv+rnnmRUC02A5ZP1nrHrXbS/yfXJwfd57+xcr3UFJlxDYQy+fqKlz6zaHr5yztGzZTdJOZ4gwbj/kxk9vKRxoPvKcc9/H9yqtgXF5IrSLqge0q2e97PKVL6O1/5C9g2FnMO4/ZQgAieVrljhOdD7qbPj0ixRLZNQn9nlYrZt5TP3CtGc9P3vwWTMb6JngvEjAKXrXbS/ythx7yNEauMtxrPUypb3TbXv5WiFokyuT+iU1DVp1+eb4lOnPlT686Lw5sHZeJWA4iTWvTuOu7rsdnT3zkEhMd0QSFRTqK6BE0olkykHJFAEAu/MZ7nyNPW5VL53QzwW+AHvcn2llJXtpUtkmz0++3TzOHyVHjhw5cuTIkSNHjhw5TvN/rRRHYDYxbZ4AAAAASUVORK5CYII=;" parent="1" vertex="1">
          <mxGeometry x="-213" y="192" width="100" height="100" as="geometry" />
        </mxCell>
        <mxCell id="RAJVKOpdcDavsLiYcgov-77" style="edgeStyle=orthogonalEdgeStyle;rounded=0;orthogonalLoop=1;jettySize=auto;html=1;exitX=1.019;exitY=0.616;exitDx=0;exitDy=0;exitPerimeter=0;entryX=0.018;entryY=0.166;entryDx=0;entryDy=0;entryPerimeter=0;" parent="1" source="RAJVKOpdcDavsLiYcgov-3" target="RAJVKOpdcDavsLiYcgov-22" edge="1">
          <mxGeometry relative="1" as="geometry">
            <Array as="points">
              <mxPoint x="238" y="190" />
              <mxPoint x="307" y="190" />
              <mxPoint x="307" y="210" />
              <mxPoint x="368" y="210" />
            </Array>
            <mxPoint x="357" y="220" as="targetPoint" />
          </mxGeometry>
        </mxCell>
        <mxCell id="RAJVKOpdcDavsLiYcgov-78" value="Ler apresentação e termos de uso" style="edgeLabel;html=1;align=center;verticalAlign=middle;resizable=0;points=[];" parent="RAJVKOpdcDavsLiYcgov-77" vertex="1" connectable="0">
          <mxGeometry x="-0.3878" y="1" relative="1" as="geometry">
            <mxPoint x="43.4" y="-9" as="offset" />
          </mxGeometry>
        </mxCell>
        <mxCell id="RAJVKOpdcDavsLiYcgov-3" value="Email pessoal" style="shape=image;verticalLabelPosition=bottom;labelBackgroundColor=#ffffff;verticalAlign=top;aspect=fixed;imageAspect=0;image=data:image/png,iVBORw0KGgoAAAANSUhEUgAAAGAAAABgCAYAAADimHc4AAAABmJLR0QA/wD/AP+gvaeTAAAOGElEQVR4nO2dfXBc1XXAf+e9lWVJu7KxsU2MP7RrYTx1P/gIQ4khdUIJDSmUNLXjtngmaUJsSaAAGQieToibphNPPQODjCQrCaGkDgxqSFpoSYBJoCGhMLSQOrjBjeWVvwj+wpZ2ZdnWvnv6x8qJLfTue2/3rWTS/c34H79zzz16592vc8+9C1WqVKlSpUqVKlWqVKlSpcr/J2SyDQhDc4fWak3uvUblIoTfQlmEMBfDbIQpwDlAAcgBR4BBICewD3Qr6FbcKT/buaZu92T+HeNx1jpgQdfRTILEjYpeD/w+MDUGtW8DPxDR7xfUfHd36/QjMegsi7PKAc0dWuu5Qx9H9NPAlVTWvhPAvxqlc1db6rkK1mPlrHDAvHu1rqZuqBXVO4C5k2DCa4L5ws7Waf820RVPrgNUJdM1tEpFNwALJtUWQOA5RVuyrY3bJ7DOyaGp+0iTmMRXEa6ZLBt8OK6qX+xvTW1ERCtd2aQ4INOd/0tV3QwkS1QxAmRBjoAeBY6qYARqUKZTnBU1ATNLtVFVnyrU6uq9n572dqk6wjChDli+XhP9s/MdAi0Rix4DngR+ophXqGv8af8n5XhQoaWdB5LDTL1IhSvAuQr0GqLNpn6OSXw4e0vdroj2hmbCHHDhgwdTJ0/U9oL8UYRiz6vqw7VTTzy+/VOzcnHYMHKy7gZVXQNcFaqQsNcUvPfvunV6ttz6x1c/ATR3HG70ErXPgF4eroS8DObObGvjC5WyaVH34DJP5UsCHwxhT7bgyZV7bm14M247Ku6AORvfaqhvaHgaWBZC/Jeq3N7fmuydiAEQIN2dX43qvcC5dkl5Wesalofp+qLgxKnsHfSqW9/Q8AhhXr7wA2rk4v621GMT9fIBsi3Jf3TUvUSEV+2SerkM5++Pu/6KOiB9KLcBuCFATEX5m+zM5LXZm5P7K2mPH31t9XuOO8mrgCcCRD+T6R784zjrrlgXlO4avAHknwPqUFFu2dmW6qqUHVEohkLyT9rWJgL76nR4yba22fk46qxIC5i/aWguyEMEvHwVbjtbXj7AjnY5cSKRvBHhZ34yCucPUf/XcdVZEQfUuKYTmBEgdk9/S6qjEvWXw5tr5JgxfBxkyE9GRD/b1Jk/L476YnfAwu7BjyrcaJMR9HvZluTfxV13XOxqS/0c9PMWkToRc2ccdcU6Bizt1SnHDuW3Ac2WCvc5BS7e0Z46WE5dzR1aa9zcZUZYJipzEZ2hiAMMCBxBZbvj6Kvz9yffeH69FKLqX75eE7tm518DfttH5KjWJd9T7rQ0Vgc0defaRbFO1Rzh6r6W1A9LrWNR19ClBrMW5M9BG0IUeRv4NuiWqAu7hV1DH3YwT/k9V2VVf1vqsSg6xxKbA0a/mD7sYeXHs62pPytF//xNQ3MTrrcB5CZKtFvhRVf0rr6Wxp+ELZPuzm1F+Z1x9ak+1d/W+JFSbDlFbGPA7llDK7C//BFxzLpSdKe7cisSrnkDZDVlfDQC7zMqL6Q7c/fP7dH6MGVU8Z2liciHFvYMvadUeyBGB6jo5+wCdO9cO+0X0ZSqNHXmvwI8BqRKt+4MBKG91su/ltmUH/fLPh2D9xjF8Pd4JBzPXF+OMbE4oKk7txy41CJScD13Y1S9mc1DG0T0biqzYFyMa94bJDS6cf/v/hIaJsblSywOEGVtgMi/7Giv3xtFZ6ZrcJ2q3lWGWSHQA6GkhCf9n8qV5ViQKKcwjC7fyV9nk3HEvx8dj0XduQ8a5W9DihuEH6uRHY7oXkXrQeZTjPfbN/g1EcoBjjgvqhq/x5n5m4bmlhqqLtsBZsqxqzGW/ll5o68l+VzYPbDFPYPnjnhsAdwAUQ/0PkcTHX2t9XvGPmzqzJ8nor+0akg4oYJ/dTPqtx47lD+Oz25aTcJcATweRtc7TCil0OmoMR+1CgjfiRJeLhTkywhBM4tDRlm5q63RN59HXObg+9EWMVOmhmoB21bKyXTn4OuIjDtmGKOLwugZj/LGgPXqANbwrKMaOtem+YHcUhU+FSA2osKKwGQqjzkBegYirWJFfLckpdjllURZDlg459jvAbag1OG+WamXw+rzHPkKQa1SZF1/S+r5QGXC7ACJUF//aQr7/U1iXjRdv6YsBzjGu8T2XIVnWCleGF1NPYNLQINWlTvrZzZsCmWcBLaAiA7Qd4wzv3oCk9MCcMTqAOClsKrEk9sD7RFZv22lnAylD3sLUIi0+6aqtqyMktMpy3OAim3xhai+FkZN00M6FVgVIDY4Mtzw7dCmqbHG60V4K6wuAEFsO2A1UXSdTskOWL5eE6C/axFRPeH57iydwVDuWqDRLiT/tPcOGQ5tYEALEEOkcLjaHVDyeyy54O5zcxmgzl9CdvXffs7RMLpEZEWQjCqhv/5RnfZB2InYBYnYwiET7wBFArbkNHyGsXB1gIRXO3U4dAi5WH28g7Cjnm12NvEOwLVOPwEN9YVlNg9cgH0qC7A1UmqiqijMssqYcPb9StyxTo9LDhaW7oDALyzcMh8THMzSCLMpgHkPDp4DTAlQGq0F4NgyuUs+6lTOLMg+yyDsLENsA/kpmf8Np6uIe8IJ6n5wzEi0WZBaWpSyL4quM+wotSBB82wJN8swqouDZERNX1ijACR4FXx8R/vMwSg6FfU9a6CCPehnoQwHqL2JGw01ZRSRC4JkXJWdIY0a1Rn3KhgU8Q0QCpPiAKwRTlX128Yby/lBAicdL1qsPWh80nAbMacjsNT/mU5KF2RX7GhwLk4xmmpZSxSZ5U6LlocZ1ALEidT/06suqF9+EKq8HknfaZTsABHHHuO3L1wAmNOwv47gKdzIf62RsK3pFEFxoEir4OYD+SWAbxbFiJMISG33p2QHGLV3QcZIYNJUMtkQJrGq5tIejRZrCV6ERWoBxlVL5oPu2ttSP/FdkGDv4wUNiO2AjJwMtSGSIzctrF3F7sI+tXU0YhzIiP8ZB5Fnouh6hy2lFhQNGvmdwJc2OhUM7N9PeuqbazqW9OH8x0Cb7KaFnwWluwYvRPA/22bUkjERTBmxoKCRX8NuUgTOcBxxLg6pC4wGZy2LhF65qjp34f+eDtfPSj0dVtd4lDEIq/3FiaRDquoPEjBKqHzSdFduhd/G+Rn6Cl6oMaW55+giEb3JX0IfDrtB5EcZg7BrbQGKZsLoEdHAm0oEli/qGrJu/izcdDQN4fKPHMcJzmLoVbfgud/EP6ZUwNSUfcCkZAdMSRhrppvAhWESYD3cME3YMZh/aO7IjRuPWdQ50Oy47tMEHjUtoqj1AAlA+lDu7wXe5/dclAfjOEFfVs5lujP3ln3Ro+8PzMlXlUx3fo+GWBGDZFXNl1xHnuprSR3I9AwvwIz8haqsI3BHbUy1yCf6W5MPj/3/5g6t9RL5DuAzluIDjrC4ryUVeUU9lvISs4SfAtf6PVblCsDuABHVzlw3wpeDK9S0iDxkFNJdOVWvIKV+Q4J+I92dW2YMjyYwezxxzheVy4zkbyPoY1Bp72tNlv3yocxQhIA150ccCXV4QRIjDxA9QBb05oMCZA7KzY7wQyPOLwSeR3RjYEtUvpVtS34zkqVWI8rAgP2okbJscc9gYL+8c82MARD7+YIICGw2jn6MgIBhCYp/5HrJoMy9SJTlgEQh+ZLtOCfgFgqyMoyubGtyi6p8oxx7ABS+s+BA8tZdaxv/A/S+cvWdpvjZY/mh63a0y4nYdFKmA3a0ywlEv2cVEtpQDdVRNx1sWIPSW6o9AptnuslVp05FznBTd1M8XVMOCrJxRiL5kf13nmf72Eqi7JMnTd25VaI8ahVy5EPZtclnQylUlczm3OdV5YuEvFxJYB/CZ3e2pN6ZIt6rbvpQfh1wD9ETqF4yjt5RbE2VoWwHzLtX62qm5vdiOxmv+p/Zg6nLWS8BCeO/JtMzvEALI+0Uc4bGO/w3gvAjQR9xRlLfCuoaRu+o+xywwjp1FvaifN9RfaivrfHFsPaWSixnrzJdufsUbguoanW2NbmlFP3NHcfmFWq8ZlFtFJxjeOyvm9OwvaQwQK+6TUdyF+CxRBhN3hIZRnhLxN0+0bfrxuOAnuEF6hV2YG/iBwuec1Elbp16NxPLlmTxq9FHAsRmJVzz8Og2ZJVRYnsZjia+QPF2Qxt/mJ6dP+tuSJlMYnNAX1v9HuDeEKJtTV25e+Kq991OrAegmzu01qvJv+J3t8IYvjrDTd5Swob7bxSxn0Bf+MDQJY5jXgRqA4WVZ0cc95PlbGq/26nInXGZ7sG/UpUHQ4oPKNzdf27ya2HPk/0mUbFL+zJd+Q1qv3VqLDtQ3eB6qS1xx1ugeH9pQ0P9SlSu39mW+tO49ZdK5S5uVZV0V74D4ZaIJY+oyndx6B3O539cTvwls3ngAjXOByjejnsdozeuiGMWR765pUJU9ubc4m7Xei3GYUqhAPy3wCtGNSuO9DvoPtQ9jhYGRkSN6yRS4pkUrtuIZ5pUWIKyBGEpvqcX9eZsa+PXS7QpVibk7uh0V/4m0G5Kv64+ZnRLtrVx9WRbAZW+uniUbGtyi7p6GegrE1FfMPIHk23BKSb2BxyKoeFWYD3B94pWFA9v0e7W6ZHOHVSCiY3LrBQv25raJO5IhuJ9QJPzM1LKGwnjlH1TTBxM6o/4zO3R+ikmv1qUTwCXV9oeEV5VI/fPSDQ8eraswM+Kn7GC0R9u08SfIOYaRa4ingG7IPCCQZ4wFJ44G7qcsZw1DjgDVVn4wECTm3CWGmWpwFJB5ik0KkyX4nw+STFtcGD03xHgsMD/qOrrgrv1eKJ+25trJChCW6VKlSpVqlSpUqVKlSpVqlSZMP4P8Vv2OR8EswIAAAAASUVORK5CYII=;" parent="1" vertex="1">
          <mxGeometry x="207" y="170" width="30" height="30" as="geometry" />
        </mxCell>
        <mxCell id="RAJVKOpdcDavsLiYcgov-6" value="" style="ellipse;shape=cloud;whiteSpace=wrap;html=1;" parent="1" vertex="1">
          <mxGeometry x="-293" y="50" width="150" height="140" as="geometry" />
        </mxCell>
        <mxCell id="RAJVKOpdcDavsLiYcgov-106" value="Adicionar início menstruação" style="edgeStyle=orthogonalEdgeStyle;rounded=0;orthogonalLoop=1;jettySize=auto;html=1;exitX=1;exitY=0;exitDx=0;exitDy=0;entryX=0;entryY=0.5;entryDx=0;entryDy=0;" parent="1" source="RAJVKOpdcDavsLiYcgov-15" target="RAJVKOpdcDavsLiYcgov-46" edge="1">
          <mxGeometry x="0.039" y="13" relative="1" as="geometry">
            <Array as="points">
              <mxPoint x="497" y="670" />
            </Array>
            <mxPoint as="offset" />
          </mxGeometry>
        </mxCell>
        <mxCell id="L-sPylKmDmo3-dS7Oe-S-16" style="edgeStyle=orthogonalEdgeStyle;rounded=0;orthogonalLoop=1;jettySize=auto;html=1;exitX=0.25;exitY=1;exitDx=0;exitDy=0;entryX=1;entryY=0.75;entryDx=0;entryDy=0;" parent="1" source="RAJVKOpdcDavsLiYcgov-15" target="RAJVKOpdcDavsLiYcgov-15" edge="1">
          <mxGeometry relative="1" as="geometry">
            <mxPoint x="649.5" y="780" as="targetPoint" />
            <Array as="points">
              <mxPoint x="460" y="770" />
              <mxPoint x="517" y="770" />
              <mxPoint x="517" y="705" />
            </Array>
          </mxGeometry>
        </mxCell>
        <mxCell id="L-sPylKmDmo3-dS7Oe-S-17" value="Visualizar data atual" style="edgeLabel;html=1;align=center;verticalAlign=middle;resizable=0;points=[];" parent="L-sPylKmDmo3-dS7Oe-S-16" vertex="1" connectable="0">
          <mxGeometry x="-0.093" y="2" relative="1" as="geometry">
            <mxPoint x="21.58" y="-5.5" as="offset" />
          </mxGeometry>
        </mxCell>
        <mxCell id="L-sPylKmDmo3-dS7Oe-S-18" style="edgeStyle=orthogonalEdgeStyle;rounded=0;orthogonalLoop=1;jettySize=auto;html=1;exitX=0;exitY=0.75;exitDx=0;exitDy=0;entryX=1;entryY=0.5;entryDx=0;entryDy=0;" parent="1" source="RAJVKOpdcDavsLiYcgov-15" target="RAJVKOpdcDavsLiYcgov-15" edge="1">
          <mxGeometry relative="1" as="geometry">
            <mxPoint x="637" y="805" as="targetPoint" />
            <Array as="points">
              <mxPoint x="447" y="710" />
              <mxPoint x="437" y="710" />
              <mxPoint x="437" y="818" />
              <mxPoint x="607" y="818" />
              <mxPoint x="607" y="693" />
            </Array>
          </mxGeometry>
        </mxCell>
        <mxCell id="L-sPylKmDmo3-dS7Oe-S-19" value="Visuallizar periodo" style="edgeLabel;html=1;align=center;verticalAlign=middle;resizable=0;points=[];" parent="L-sPylKmDmo3-dS7Oe-S-18" vertex="1" connectable="0">
          <mxGeometry x="-0.0705" y="1" relative="1" as="geometry">
            <mxPoint x="-35.709999999999994" y="-9" as="offset" />
          </mxGeometry>
        </mxCell>
        <mxCell id="L-sPylKmDmo3-dS7Oe-S-20" style="edgeStyle=orthogonalEdgeStyle;rounded=0;orthogonalLoop=1;jettySize=auto;html=1;exitX=0;exitY=0.5;exitDx=0;exitDy=0;entryX=1;entryY=0.25;entryDx=0;entryDy=0;" parent="1" source="RAJVKOpdcDavsLiYcgov-15" target="RAJVKOpdcDavsLiYcgov-15" edge="1">
          <mxGeometry relative="1" as="geometry">
            <mxPoint x="637" y="680" as="targetPoint" />
            <Array as="points">
              <mxPoint x="417" y="693" />
              <mxPoint x="417" y="836" />
              <mxPoint x="637" y="836" />
              <mxPoint x="637" y="680" />
            </Array>
            <mxPoint x="437" y="686" as="sourcePoint" />
          </mxGeometry>
        </mxCell>
        <mxCell id="L-sPylKmDmo3-dS7Oe-S-21" value="Mudar mês/ dia" style="edgeLabel;html=1;align=center;verticalAlign=middle;resizable=0;points=[];" parent="L-sPylKmDmo3-dS7Oe-S-20" vertex="1" connectable="0">
          <mxGeometry x="0.2181" y="3" relative="1" as="geometry">
            <mxPoint x="-117" y="20.57" as="offset" />
          </mxGeometry>
        </mxCell>
        <mxCell id="RAJVKOpdcDavsLiYcgov-15" value="Calendário" style="shape=image;verticalLabelPosition=bottom;labelBackgroundColor=#ffffff;verticalAlign=top;aspect=fixed;imageAspect=0;image=data:image/png,iVBORw0KGgoAAAANSUhEUgAAAGAAAABgCAYAAADimHc4AAAABmJLR0QA/wD/AP+gvaeTAAAEMklEQVR4nO2dz28UZRjHv8/OblvchW6aCBIJaiKobILRLkq8EFKKB+XIXyAeiIYTURMu3g02xnCDqyYajiRaJMSThYhG0EpSD8TY2HLY/tiZ/rA7+3pY1Ejb7fsOnfeZ7X4/1/eZme/OZ993Z943eRcghBBCCOlGxOfFLl8f2xM04xEIXgcAA7maD3IfnDhyeMJnjizl8Sbg8vWxPYGJfwIw8FBTLTBy8MTQa5O+smQpT87HRQAgaMYjWP1hAWCgKfjYV46s5fEm4J9uvhYGZt221MhIHn8CgO1t2vq9pfiPTOTxKYCsQT7pgfWjhyoS4BSMDAN4GkCxXf03G5wvHHrFJM2ShE3IEwG4B4NRI3Jx+7Ub40lyOAswJys9CzPF88bgNAyCJBfdIhQBVCCoCMyZcOjVC8XZxlm5dWvF5SROQ5A5WemJaqUrxuBdoKtv/sMEgDkTlXNXzOBgweVAJwELM8XzgDnmlg1YbsSbUrNZpJdHhqNy7iOXI6wF1I8eqhiD066Rmgb45Y/ahnXjkzU0PfwKpJ9H3qkfO/yCbbW1AMnhbSQYdqZmI0TLGw+L4dIKpuci19M74yFPXkzzlG2xwxAkw0nS3J9fcKhdTHIJJ7zkMThuW2rfA4C9SbJEf9mPpeFyI8klnPCSR/CUbam1AAOUkqV5wNL63yZZbH0rBR5fBdLN0+4t+3+k/iZc7Gn9bOR+vrNujdy53artdXqC2xJ5Uhewc8djAID8F59BwvqqdolC5L/8/EHttrTjZC5P6gKeKBdR6itApv5Ez7n3ENz4rtX9lxaRuzmGwofnINNTKPUVsKu/7WzGlsxjvSDzKHM1y40Y45M1hEtrP/6V+go48OQAevN+Xq595Cldu2l1bxNPxrnQmw/w4t7HMT0X4f784r9PF6XePHbu2IZd/UXkPC6OZimPFwEAkBNgd7mI3eX0u7UNWcnD9QBlKEAZClCGApShAGWsH7Z+vPub1zXbTuel55+1urfsAcpQgDIUoAwFKEMBylCAMhSgjLfZ0G+/v922/Uj1YKbr04I9QBkKUIYClKEAZShAGQpQhgKU4XpASnA9oEOgAGUoQBnOBVnWpwV7gDIUoAwFKEMBylCAMhSgDAUow7mglOBcUIdAAcpQgDKcC7KsTwv2AGUoQBkKUIYClKEAZShAGQpQhnNBKcG5oA6BApShAGVcBKzeYpCsx7xtob0Awe+JonQn1vfKXkBTRhNF6U6+si2037o437wIwN8m/51LI5bgkm2xtYCX9+0bF+BCskxdhJFPq889c9e23OkpqBHOnoWYq+6pugUZjaOZ912OcBJQrVZX4vrcGwA+AZD+XvOdQwNGRuJw5s1qter0Jz6J94f9YWLiABq5t0TMcbT+xurRtrfvPEIA90TwdSzNS4P79/+qHYgQQgghhBBCCCGEZJu/ATSfhws6qOfEAAAAAElFTkSuQmCC;" parent="1" vertex="1">
          <mxGeometry x="447" y="667.5" width="50" height="50" as="geometry" />
        </mxCell>
        <mxCell id="RAJVKOpdcDavsLiYcgov-68" style="edgeStyle=orthogonalEdgeStyle;rounded=0;orthogonalLoop=1;jettySize=auto;html=1;exitX=1;exitY=0.5;exitDx=0;exitDy=0;entryX=0;entryY=0.5;entryDx=0;entryDy=0;" parent="1" source="RAJVKOpdcDavsLiYcgov-19" target="L-sPylKmDmo3-dS7Oe-S-1" edge="1">
          <mxGeometry relative="1" as="geometry">
            <mxPoint x="197" y="253" as="targetPoint" />
            <Array as="points">
              <mxPoint x="127" y="250" />
              <mxPoint x="127" y="270" />
              <mxPoint x="207" y="270" />
            </Array>
          </mxGeometry>
        </mxCell>
        <mxCell id="RAJVKOpdcDavsLiYcgov-19" value="" style="shape=image;verticalLabelPosition=bottom;labelBackgroundColor=#ffffff;verticalAlign=top;aspect=fixed;imageAspect=0;image=data:image/png,iVBORw0KGgoAAAANSUhEUgAAAGAAAABgCAYAAADimHc4AAAABmJLR0QA/wD/AP+gvaeTAAAJ9UlEQVR4nO2cf3CT9R3H35+HpJRCyw/FbaJCOaTUpilM6Jg6CEPZbjpP3dwfeugfOne73SzMpnWnp3WioJwT2Lmp551He+xUFD1ARRGatPJLVksT0rRNUlqRpj+UlvVX2iTPZ3+EYmUtTfJ8nyc/yOvPJN/P95P3q/nxfPrkAVKkSJEiRYoUKVKkSHG5QdEuvOPj9+5eMLV33Z+ur79CYnm3NBR4MTt7S4/I5i4HpGgXEvPLnr5pK15x5QZlif4YSNd7PO3mIuZ7J4lsMNmJWgCA6wDA05dpfKUp9zRAxIwtnvZ5dldb6S8E9Zf0KBFw4e3L05eV/4/G3A4GdQPIJZL3ubzmPU0dj89X3mJyo0TA9zg1kLlolAQQcIckB53utpKtDV0lmaL2STaECQBCErY15XYwcPb8TWkgflQX4AZ3W8kjzGVC90sGhAfS0p+5aFvTDZ2jJADA1SB+zdPef8zdUXqT6D0TGVX+Ilv6MxdtazR0XSQBAJZClj/3eM3veNpKr1Nj70RDtbeEloGpOdsaDV0y/58EYuBekFzv8paUnTpVlq5WD4mAqu/JLQNTc7a58r4ZQwIYmErgp4Pp/U1ur/kBNfuIZ1T/UGztn7ZwPAnnuRbAdrfXfLC5o9iodj/xhibfSlr7py38e0N+D4M6L/GwVbJMtW5vcbm7vfgqLfqKBzT7WnjGlzH/JaehjyF1XLofWgtQo8dbUupwlKVp1V+s0PR7eUhCXv8EEgDGDAZvmjxrwO7xFt+uUXsxQfMDozO+jPmbnYaBCSUAAHghg/a628z7Xd7HblC/O+2JyZGp1zcle7PTMMBMYUgAQLiVIJ1wt5Vs9Zwtna5ye5oSs9GA1zcle3NDfvgSAD2IH+UhOanG3jGdzYQk5A0yqD2CZVeExt7Zx5vaHluhWnMaEfPhmNc3dd6LDUZfhBIA8BKJJKvLa95zyvv4PFWa04CYCwCA9sH0eS86DUORSwiNvYMIOlzekrK2trIMNfpTk7gQAADtvoy5G+uNgSDT11EszyDw0wNSaKzBHP3/urUmbgQAQNdQ+jUvOI2IUgLAmANgu6fdfMzVUfxTsd2pQ1wJAEISNjmNJDOdVlBmGcl0yO0tLj/Vaf6hsOZUIO4EAMA3Q+lzNjqNkkIJBNBaOQh3PI+941IAEJLwfH3BpKAMJRJGjb377C6v+V5R/YkibgUAwLfDk6/e6FysWEIIWkDAO26v+YCnvTRfeT0xxLUA4DsJskxfCSr5c2b5S3e7+TWX96+zBdWMmrgXAIQkPOcs0AmUoAPjEUKg0dNuLqrkMp2guhGTEAIA4Ozw5KufdxboZBYmAQBmMmPLte39tV3235oE1g2bhBEAhF4JGxwF+iCjVWTdzO7WvhnfNn7qt+TvH7IackXWnoiEEgAA3f7JP3rWsWRKgKlZRL3M7tajszqdNwLQA7hVYqrzW4xb+eiCLBH1JyLhBADAOX/aVRsci6cFWPIoqZPV03pkVqdzKULhj6AH+NGAL90zbDUW8Tvqjr0TUgBwQUJWtBKyelqPzOxwLgMwzgcwXUnMWwJXNXzhtxh/pqDVS5KwAgDgnF8/e4NjcZZfltyRrMvqnij87/FjgKv8FuOewcrF86Jq9BIktAAgJOG5+sXTw5WQ1d16ZGZn2OGPgu/QUdDhr8zfxJV506JodUwSXgAQkvBsfcGM4eClJWR1t0QZ/gUyQCgNkNQQsBqFjL2TQgAA9PrTrtzgHF9CVnfL4ZmdDUrCH80cZt4esBqODlcalysplDQCgFESZHKNvv18+IUQE/4oqJCIDw1bjOVcmRfV2DupBADnJTiWzBqRMONs89GZnQ3LITz8C0gEXhsgyRmw5v8q4sVqdBRregP6KzY4lsyacrpl3/SupkJo8zxnMOMt5sj2SkoBAFC477Dzv+ubCnmYFB2sRYiDCHIkC5JSwOrPrJ+vPlB1U6APs5r/Js2Wh6lJ/V1pl86f9stIVyWdgNv2W6pXH6i6Ceefm7+XZzQ/RT+QfahXactGItyuN9l+Q7fVnIt0cVIJuG2/pXrVweqbcdHzCgxienOZNEewhG4QHtfNlo26lfaPoi2SNALWfDp2+COMSGAfHAq3ChDwuk7S5ehX2l+gPMewkmJJIWDNp5ZqU+X44Y8QGMR0T5l0jQIJB2WJb9SZ7H+gFbVdUdb4HgkvINzwRwgMYrr7aelaOQIJBLgJ+J3eZF89ecVJW9TNjkFCC1iz72C1qbL6FkT4PII+ZHnCk9APpmcmcW++zmTfGX2n45OwAtZ8fKDaZD10C6K85tEoCSfHuJsZVKFjeYF+la2MVrX4lHU7PgkpYM3HB6pNVYejDn+EoA9Z7jKae5GE4wBuTjPZHqBVjojP1o6UhBPw6z2fHBIR/gjyIGW6y2huoJcqCXSfbqX9J3qT/YiI2uEQs/NhouHO3fusy48cXym47CAP0j9bi33PLWps7BVce0ISRsCdH3xkXX6sRnT4ewNEf15y4kSL4LphkxAC7vrgI2uhwPAZqIUsrzPa7VWiakZL3H8G3PX+h+LCZ/4WzOsaFi5cFg/hA3H+Crjr/Q+thV98KSJ8P4B/Den1Ty2tqTkHm9BjKUXErYC7d+21Ljteqzx85s+kSZOK8mpr1ZqGKiIuBdyza691qcLwCWhior/k19V9KKovNYg7Affs2m1derxOSfg9DGySAoGXDQ5lk0otiCsBCsOXAeyQmYsLbLZLXZcorogbAfe8u9u6tCbq8CtJktYbamvrhDalAXEhQEH4p4n5SYPNVi68KY2IuYD7/v2exWCvN0W4bABEm6f19GzKblFvUqkFMRVw/453LXknnaYIljAB75JOV5xXUyPyp0oxI2YCIg6f+T+QpCLDiROH1etKe2IiYO2OnZbckw2mcB7LQBuInsmvq3uDENlJT4mA5gLur9hpya0PK/xhAK+m+XxPxmJMrBWaClhb/rYl19lkCuOhe1mWi4x2u5Af4sUzmgkIK3xmJxGtN9TVfaJNV7FHk3H0AxUThn8WzOucOTn5l1P4gAavgAfL37bkjB++n4A39TrdEzk1Nd/E05hYK1QV8OD2tyw5DS7TmHcyfyYD6wtstrFOC7lsUEUAMfNDb1RUzW9uNY1xt4uJnjDW1alyolOiIVwAMfPDb+yoym5uvXi20weil9L7+jZe73YPid43UREqIBR+xcXhywB2IBg05588Ge5Vci8bhAkgZn749Yrq7Jbvwmfg2CTmojyb7ZiofZINIQJGhT9yKeGvifkJg81WQQCL2CNZUXwcQMz8yOvlI+EPgOiZ3oyMhQabrTwV/sQoeQX0E3PG7199s2ruV2dWELBTkiTzDbW1Qi+mlOxELYCZNj305o6b5311hkB0S7KNiVOkSJEiRYoUKVKkSJFCLf4HtGNbrNDAX48AAAAASUVORK5CYII=;" parent="1" vertex="1">
          <mxGeometry x="13" y="230" width="40" height="40" as="geometry" />
        </mxCell>
        <mxCell id="ClL08HFa1sP2JxQlRzgX-4" style="edgeStyle=orthogonalEdgeStyle;rounded=0;orthogonalLoop=1;jettySize=auto;html=1;exitX=1;exitY=0.5;exitDx=0;exitDy=0;entryX=0.042;entryY=0.647;entryDx=0;entryDy=0;entryPerimeter=0;" edge="1" parent="1" source="RAJVKOpdcDavsLiYcgov-20" target="RAJVKOpdcDavsLiYcgov-3">
          <mxGeometry relative="1" as="geometry">
            <Array as="points">
              <mxPoint x="127" y="210" />
              <mxPoint x="127" y="189" />
            </Array>
          </mxGeometry>
        </mxCell>
        <mxCell id="ClL08HFa1sP2JxQlRzgX-5" value="Criar conta" style="edgeLabel;html=1;align=center;verticalAlign=middle;resizable=0;points=[];" vertex="1" connectable="0" parent="ClL08HFa1sP2JxQlRzgX-4">
          <mxGeometry x="0.3837" relative="1" as="geometry">
            <mxPoint x="12.98" y="-9.4" as="offset" />
          </mxGeometry>
        </mxCell>
        <mxCell id="RAJVKOpdcDavsLiYcgov-20" value="" style="shape=image;verticalLabelPosition=bottom;labelBackgroundColor=#ffffff;verticalAlign=top;aspect=fixed;imageAspect=0;image=data:image/png,iVBORw0KGgoAAAANSUhEUgAAAGAAAABgCAYAAADimHc4AAAABmJLR0QA/wD/AP+gvaeTAAANLUlEQVR4nO2de3gU1RXAf3dmH9nNbngEEJIoQRAREYFWMKBtlVZaPqSWouKr2oqloIZi0a+2tVVbaysWNYI0SkVbbfv5AqNWLRXbItiKLYJGBUPCI4LII2SzyWZfc/vHgjwyYWdnZ2YJ3d/35Z/sveeePWfmnnOfC3ny5MmTJ0+ePHny5Pl/Q+RagaMxcFFLnyRiJMhTBZxK6q8PkkKgB1C4v2gr0ISgFclOBBuRfIgUG9SkXFtXGdyVq++QjmPKASXV0u+Jt3xFCHE+CuchGUb2OkrgXSF4XUq5It4eXN54k4hYoK4l5N4Bt0vl5N4tY6UQVwHTgCKbWwyBfB7J0w29g3/hEpG0ub2jkjMHlC+RBUpb+DtSiLkgB+RIjXohuFeJBx6tqxTRXCjguANKqqXfm2idhZA3Af2cbr8TdgjEve1q4W+3zxBtTjbsqAMGLAxdiFCqQJY72a5hBI1ozGm4PviMc006QPmipnIh3Q+CnOREexZQI1TXjfUzfFvtbsh2B5Q/FLpIIB4llTZ2JUIIrmuYGXzKzkZsc8CgKulNquF7EFTa1YZDPKwmApV2BWlbHFC6IFTsUcSLwNl2yM8Bq+IebXLj9G57rRZsuQNOfLC1xOXSXkFyhtWyc8wHilQnbLrev81KoZY6oLw6NEQkxV+BE62UewyxFeQFDbOKNlgl0DIHlC1qK3XLxCoQ/a2SeSwi4GOpucY13ODbYoU8xQohpQtCxW6ZXH68Gx9AQqlQEn8pW9zc0wp5WTtgUJX07g+4p1mgT5dAwlBXTHlhUJX0ZisrawckXeHfkINsp8AFlw91M3OUh54+56e0BIxNquF7LJBjngELW6YieDpbJTLlSyep3PkFL2XB1PPz4R6Nyc+0kdCc1gSE5Jv11wefM1vf9BtQvqipHMFis/XNMqRY4ZGJvs+Mf+B/V5/hdloVAKTgdwMWREzHPtMOENJdBXQzW98sg3sqqDrvbeXnPRTnoCsCuqMmHjBb2ZQDyh8KXQTyQrONZsPKbUlaYrLD/4MewdwxnhxoBEi+PmBhyJQ9MnZASbX0C7jfTGNW0NQuqXo7pvvZxUPcDO9jSWadOUJ5oGy+9GVaLWNtvcmW63Od7z/2bpyP9naMuIqAn57jzdEynxzgKmidkWmtjByQynvF9zNtxGqSGty5Sn9yctQJKhee4nJYoxQCeUv5ElmQSZ2MHKCp4WuBkoy0sgAB3Pg5D89M8TH7LA9+t2BVY5IVWxK65X94the/OyfvQT/aw1dnUsG4A26XSmoB3XkuG+pmzmgPo05Qmf15D3+7zM8XTlT5xaoYcZ3cv29A8L2RuUlLkdyMlIa9b9gB/XuHv5iL3QvdvYIfHJHd9C0UPDShgF1tkiXr9QPydSM8nFjkfEAWMHDAwvC5Rssb1lCk9u04zpzRHnoUdHygfG5BgQsW/CfOrraOaalXhR9V5CgtVTBsK0MOKJsvfQI5xbxG5vC54K3tST4JdzTw8oYEeyKScEwy79/6b8GEk11UlKp2q6nHJUZTUkMOcHlaLiAHo97FE31MG+rmu69EeODtGNH9e9hiSfjVmweN/uyHcdZ9qr/B7fZzvajO90RFnoLQ+UYKGlJNCGFImJVMHJh6eseVqTw3xU83r2Dy020s3ZjgkXdibG4+GH0lcOcbMTq+J3BKD4XLhzofkKUU5xkpZ+zZUDAkzCoKXHBrxcGpdpcC15zh5vELfbxan+C+NR27nLU7kyzbqJ+WdhZHbEWI8UaKpXXAwEUtffbvUnaMGSM9lAY7GqxvYSrwanqPOnD36ihhnXmi7l7B989yPCAPH1wd6pWuUFoHpPbnOze67xcQfHeEvrH++0mSFz7Sf8oBdkcki9bGdT+7/HQ3Q4odDQZKIqmMSFsovRx5qhXaGOUnY734dGYSNAl3vBHV7ecPZfER8eEAqoDbxmW9gpgR0oDt0jpg/8kUR6goVfnaQP15nD9/EOfdXemXvOIa3P2mflpaUary1ZMdnSfK3gFIBluiShqO9oQ2RyXz39I3qh7LGxL8Y6t+WnrbOP03zCYscAD0tUCRtFw5rPM++oE1MfZG0nU+h3PX6qjuGnG/gODaMx0LyGltZ+BZkEEzMfj8/i5+ek76LxqOwaxX25ndSZby0V6NSAL+foU/o/Zv+2eUJ2rjXKOzVvy9kW6e2RBnzlkexpSkHynPXRHl7R1mTjKJYLoSBhyQXogehW44ycBk2F2ro1w3wk13r76T56+Jcce5Xvr4M3sIbhvn5dJlESYPcnXYtuJ3C24928vv1seYOsSd9vEy32XJtLYz0gUFzDafjromjTU7kkzrZKT6an2C04qVjI0PMKiHwlcGuDqNHZNOcRGOwUt1nae1FmCJA2zjjjei/KjCq7vLoT0Bi9fFmX6m+WmEm0Z7qKlL8P7uw4NB7W6NacsihGOp4K63puAURhwQtqPhlzcl6OkTjO6kD374nRiXnubKamWrj19w7ZlufrYyNX7YF5X8fFWUi5e2May3wmuX+xldovJkrf7gzQJa0hUwEoRbQGS8EXVfVPJeJ3m7JuG+NTEen6Q/Y7sjLFm2McH9Xy7oVIZRKkpUHnknzi0r2lm+OUlFicorl/o/i083j/EwdWmEEX0UXIq+s8PGM+AjEFY4IL0QPVZuS7JyW+cnPueM9tAvoP+F734zyuZmjYuete7E6LMbEjzytQLGlx/+lYt9gqtOdzPlOTsOz8u0tjPSBX1igSaHcVKR0ul8z9s7krYFxvd2679NV5/hZnBPW8JhWtulb1Ww0RJVDuHWCg9ena4/Kfmsv7aDh9fG2K6zuqYqcOlptqwZpD1Jk9YB0oCQTBhbpjKhk/mYP9XG+WCPfSlJJJGasj6UpvZUYP7lalsOQWbvABCWOUBV4Gfn6M/37ItK3YUWq3lpU4J/b08S11Jp7sSn2ujlE6yfHqBmqp/ybtZ1RcKA7dIGYVdc/jfpQmLBmkAvn9BdMAG4760YTe12dT6H8+N/pJ72IcUKS6f46bs/GRjWW+HJyT4mPd1mhS5aVNPWpiuU1t11lcFdCN7LVhuPCqP6qkx9LsLcFe18eshWkg17NP74vm25eAfq92kUumHBBQWfGf8A/QKCW63ZzrLu4xuK9qQrZGxRHlZkq82oE1QWXlDAE5N91O7WGP/HNqrXxoglUyPipMOj0aJO5p4AvjHYTa9szxpIachmhhwgDQo7GuPKUmlPRanKi1P93Hy2h9+ujXPuE638a7vzdya9u0vrdApCVeBL/bNbNBCqap0D4u3B5UBzNgqNLTuYd6oKfGuYmycn+9jrUL9/JKGoPOoUxLDeWQXj5lib/3UjBQ210niTiEgpnjWrTdAjGN778MS/sUVj5qvtjnc9hzLvX9FOlzn7FWbRBQmeMnovnXE3K/IPZvUZU6IetjttS3NqNnJbKIfWJzUuuKImwgs6I29XNi+ANG4rw81s3hn4J1BvRp9xh3Q/m/ZpTHs+ojsizQXhmGT28nYql7fTHD2o0z7z47K6hpnBN4wWzuB8gNCE4F4zGh3o/zfu1bhsWYSdrceG8Q/lxboEV9ZEiOx/GTbqHIEyyDyEMPwFM3rRlHjgUWB7JnVOKBQM6qFQu1vjsucj7M5wcd1JandrPLY+tcf0bw0mJgQFjWoi8HgmVTJyQF2liCLE/EzqjClRWf9pkitrIo6NdLOhpi7By5sSbNqX+RsgYV6mN2tlHOpLqqXfm2ytNXrzYTevIK5BW/zYN342SNiELzBs87dFeyb1Mo7122eINg0xy2j55qg87o0PoKDNztT4qXom2DKr8GWgxkzd4xEhWVo/q9tLZuqavytCdd0I7DNb/ziiSaDONlvZtAPqZ/i2CiGvAtsWsLoCUhPy2mwu8stqwqN+ZtGLSB7MRkZXRgp5/5aZRUuzkZH18o+aDNwiYXW2crogKwuLgz/MVkjWDqirFFFFjU8E1mUrq6sgoTbu0S6qvURkvYaav7YyUwSNQnGNs+pib8tWoBtn+j8GJgC23zieQ7aKpBxv5a3qlh++61/d2k9Jaq8Aw62WnUsEvC+k+lWrry62fDvYlhmFO+Ie7bzjLDCvTJA8x2rjg03b0xund9tb/mngiwLxa7r2OEEiqfL3Cnx566zuTXY0YP8POCwIfV0oYgld8QccYHrDrKCt96LafkBj8w1Fz6O5RtKF5o6EZKki1WF2Gx8c/hGfkxeFJkmpVOXwZ6vSUS/QKs1OrJnB8YvVyuZLn6ugdYaCnCuh1On2dRE0Sk3ci7+w2syUcnZN54hBVdKbcIevQXKzgIE5UqMOmOfvFXjMilGtGXL/U4bAwIdaP6dJ7VsIrgCKbW6uGWSNQPl9/czC1zJZQLeDY8IBByhfIguUSGi8JsR4kbrwaDjZJwoasA7k60JRX9O8/hVOdzNH45hywJEMrg71iktlJJocjGQIcCqCPqTO33bn4BnmMKnFoRZgJ5KNCD4UiA1RTVtrZJdynjx58uTJkydPnjx58jjF/wDMq2M3bgkjxAAAAABJRU5ErkJggg==;" parent="1" vertex="1">
          <mxGeometry x="13" y="190" width="40" height="40" as="geometry" />
        </mxCell>
        <mxCell id="RAJVKOpdcDavsLiYcgov-86" style="edgeStyle=orthogonalEdgeStyle;rounded=0;orthogonalLoop=1;jettySize=auto;html=1;exitX=1;exitY=0.25;exitDx=0;exitDy=0;" parent="1" source="RAJVKOpdcDavsLiYcgov-22" target="RAJVKOpdcDavsLiYcgov-76" edge="1">
          <mxGeometry relative="1" as="geometry" />
        </mxCell>
        <mxCell id="RAJVKOpdcDavsLiYcgov-87" value="Responder questionário" style="edgeLabel;html=1;align=center;verticalAlign=middle;resizable=0;points=[];" parent="RAJVKOpdcDavsLiYcgov-86" vertex="1" connectable="0">
          <mxGeometry x="-0.4901" y="-1" relative="1" as="geometry">
            <mxPoint x="12" y="-17.5" as="offset" />
          </mxGeometry>
        </mxCell>
        <mxCell id="RAJVKOpdcDavsLiYcgov-22" value="Tela com apresentação e &#xa;termo de uso" style="shape=image;verticalLabelPosition=bottom;labelBackgroundColor=#ffffff;verticalAlign=top;aspect=fixed;imageAspect=0;image=data:image/png,iVBORw0KGgoAAAANSUhEUgAAAGAAAABgCAYAAADimHc4AAAABmJLR0QA/wD/AP+gvaeTAAACyElEQVR4nO3dsWtTURzF8XNfSgdtogUxTupsxUWl4CAIJlJC6ZTu1jq4OEjBP0KKdHCRVlczSdHQmgputQ4JCEHX4lKwltBEHcxLrkMpiE0Kpbm/k+r5jEnpeX1fXpIueYCIiIiIiPxvnPXg1VvjIxHcNOAyAM4DOG59DH/5AWDdOZS8w/yHpcVPluNmAUby+cFkvTnr4e8BSFjtHlALHk/irfRMufy0aTFoEmAknx8cqv8qArhpsXd4biX+djpnESEKPQAAyXpzFkfm5AOAzwyc+vrIYin4FbDzmh99RP++7HQTu1Z0ae3ty88hR4JfARESd3H0Tj4ADLQTfjr4SOgBwGc6PXrx8jXkJm8jmRoOfwj7aNRrKBaeoVp5v+e5CD4bet/iPeBspwf74eQDQDI1jNzkVMfnPHAu9L5FgKFOD/bDyd+VPNH1WJKht00+BUl3CkCmAGQKQKYAZApApgBkCkCmAGQKQKYAZApApgBkCkCmAGQKQKYAZApApgBkCkCmAGQKQKYAZApApgBkCkCmAGQKQKYAZApApgBkCkCmAGQKQKYAZApApgBkCkCmAGQKQKYAZApApgBkCkCmAGQKQKYAZApApgBkCkCmAGQKQKYAZApApgBkCkCmAGS0AI16jTW9R2Obdyy0AMXCc+ofvquxXcPrwgJt3+Db0zurVlZRrayy5vuG3gPIFIBMAcgs3gMa6MH38N8YGz/Qz79benXYSQCo9+KX7MfiCvhisBGEMzj24AGcQyn0RijeYTn0RvAA3mEeQCv0TgBx1G4H/wfB5E56o9mJOTjct9jqFefweG158UHoHZNPQfFWegZwKxZbPeFQam6mH1pMmdxgbWOj3D5z8vqL6NjPFIAr6N+Pv7FzmIs301P/1M08/zQ6NnHBt92dCD7rd25n2/E2V4a+O2Ddw79xrcRC6FsXioiIiIiI/AZRsIuCVhjmigAAAABJRU5ErkJggg==;" parent="1" vertex="1">
          <mxGeometry x="367" y="200" width="58" height="58" as="geometry" />
        </mxCell>
        <mxCell id="RAJVKOpdcDavsLiYcgov-97" style="edgeStyle=orthogonalEdgeStyle;rounded=0;orthogonalLoop=1;jettySize=auto;html=1;exitX=0.75;exitY=0;exitDx=0;exitDy=0;entryX=0;entryY=0.5;entryDx=0;entryDy=0;" parent="1" source="RAJVKOpdcDavsLiYcgov-34" target="RAJVKOpdcDavsLiYcgov-43" edge="1">
          <mxGeometry relative="1" as="geometry">
            <Array as="points">
              <mxPoint x="682" y="355" />
            </Array>
          </mxGeometry>
        </mxCell>
        <mxCell id="RAJVKOpdcDavsLiYcgov-98" value="Editar perfil" style="edgeLabel;html=1;align=center;verticalAlign=middle;resizable=0;points=[];" parent="RAJVKOpdcDavsLiYcgov-97" vertex="1" connectable="0">
          <mxGeometry x="-0.1063" y="1" relative="1" as="geometry">
            <mxPoint x="16.5" y="-13.5" as="offset" />
          </mxGeometry>
        </mxCell>
        <mxCell id="RAJVKOpdcDavsLiYcgov-102" style="edgeStyle=orthogonalEdgeStyle;rounded=0;orthogonalLoop=1;jettySize=auto;html=1;exitX=1;exitY=0.5;exitDx=0;exitDy=0;entryX=0.5;entryY=0;entryDx=0;entryDy=0;" parent="1" source="RAJVKOpdcDavsLiYcgov-34" target="RAJVKOpdcDavsLiYcgov-42" edge="1">
          <mxGeometry relative="1" as="geometry" />
        </mxCell>
        <mxCell id="RAJVKOpdcDavsLiYcgov-103" value="Responder novamente" style="edgeLabel;html=1;align=center;verticalAlign=middle;resizable=0;points=[];" parent="RAJVKOpdcDavsLiYcgov-102" vertex="1" connectable="0">
          <mxGeometry x="-0.6283" y="-3" relative="1" as="geometry">
            <mxPoint x="36" y="-13" as="offset" />
          </mxGeometry>
        </mxCell>
        <mxCell id="L-sPylKmDmo3-dS7Oe-S-11" style="edgeStyle=orthogonalEdgeStyle;rounded=0;orthogonalLoop=1;jettySize=auto;html=1;exitX=0.5;exitY=0;exitDx=0;exitDy=0;entryX=0;entryY=0;entryDx=0;entryDy=0;" parent="1" source="RAJVKOpdcDavsLiYcgov-34" target="RAJVKOpdcDavsLiYcgov-79" edge="1">
          <mxGeometry relative="1" as="geometry">
            <Array as="points">
              <mxPoint x="667" y="140" />
              <mxPoint x="77" y="140" />
              <mxPoint x="77" y="340" />
            </Array>
          </mxGeometry>
        </mxCell>
        <mxCell id="L-sPylKmDmo3-dS7Oe-S-12" value="Sair" style="edgeLabel;html=1;align=center;verticalAlign=middle;resizable=0;points=[];" parent="L-sPylKmDmo3-dS7Oe-S-11" vertex="1" connectable="0">
          <mxGeometry x="-0.1105" y="-2" relative="1" as="geometry">
            <mxPoint x="237" y="182" as="offset" />
          </mxGeometry>
        </mxCell>
        <mxCell id="ClL08HFa1sP2JxQlRzgX-13" value="Sair" style="edgeLabel;html=1;align=center;verticalAlign=middle;resizable=0;points=[];" vertex="1" connectable="0" parent="L-sPylKmDmo3-dS7Oe-S-11">
          <mxGeometry x="-0.34" y="-5" relative="1" as="geometry">
            <mxPoint x="-160" y="5" as="offset" />
          </mxGeometry>
        </mxCell>
        <mxCell id="RAJVKOpdcDavsLiYcgov-34" value="perfil" style="shape=image;verticalLabelPosition=bottom;labelBackgroundColor=#ffffff;verticalAlign=top;aspect=fixed;imageAspect=0;image=data:image/png,iVBORw0KGgoAAAANSUhEUgAAAGAAAABgCAYAAADimHc4AAAABmJLR0QA/wD/AP+gvaeTAAAOA0lEQVR4nO2da5RU1ZXH//tWdXU9+kFXQz9pAQU7EXw0MQRRo0LUgagLjYkmGWeELE1mQJOIgnHNGuOsZK0ITOKgjq7+QGZCHKMQDKCYiFECAy4XChHtBkTopl/VD7qqq6rr1XXv3fOhG4Smu++5956qhkz9vtHss/euveve89rnFJAjR44cOXLkyJEjR47/b9B4OzAWnZ3Rsjyd6lhRasGoJaAWoDKAfQBKAPiGRGMAQgDFwHoXE30KwmHSlSMuSh8orCzsGb9PMTbnVQI6OtjrUuI3k07zQXQTwLNg30cG8DEY7+oKv5NMe3fU1FBCgrtSGPcEMLMSCiTnsYL7wPq9ABVl2GKEQFtAvLGk3LudiLTM2hubcUtAUxO7i93xpQx6FMC0cXLjOIHXlvR719MMSo2HA1lPQEcHe/Mp8c8AHgFQmW37oxAAY20KnherqiieTcNZTUCwM3Y7M60DMDWbdk3QBuDHpZXeTdkymJUEhAKJqRr4WQJuy4Y9uxCwFUwP+as8LVmwlVlOdsQWE9F6DA4bLyA4AtADpZXeVzNpJWMJ4KOcH/QlVoPwcKZsZAWien/U/XCmOumMJCDSFilNO5yvA5ibCf1Zh7DHmU7fUVxTHJSvWjI9PbEqRVX+CPDlsnWPL3wIOt1aWu1tlalVagJOdqS+QKS9BaBGpt7ziBZdV26ZVO0+IkuhtAScbI1XkxN7AEyRpfO8hNCu6HRtSZXnhAx1igwlkbZIKTl5B/7Wgw8AjGqd9O3h1rBfhjrbTwAf5fxgQWInMtjhRkI9aD70EbpaP0NvoBWJeD+SiX4kYzFo6sBZsrcveRS1dfMy5crnMPb6Y575dkdHTrt+hAoS/44MBF8dSKHxg934aO+f0NVyTLjdnzfWo2bGLHgLMrymR5gX9CVWA/ihPTU26A3E7waw0Y6O4TAzGvftxO5tL6E/bG3UV1s3D7cveVSmW6PCjG9MrPJuttrecgJCgcRUHfgrwMVWdQwnHg3jzd+uQ9OhA7Z15bnc8BWXoLCoBJOnz8L0K76MsskXg0jyyJvQp+h0ldVO2bI3JwPxrQTcbrX9cHq72rDxuZ9a/taLUH7RJbhx8f2omT5Tql5ibPFXeRdbamul0dD6zmtW2o5ET0cLNj7/JOLRsCyVY3LFNV/Dgm89CIfDdhd4GiK+w1/h22a6ndkGQ+v5jZA05IxHw9iw5jFE+07KUCdMzYzLcecDq+Bye2WpbIqrnplmtztNzwPclFgGScHXNQ3b1q/JevABoPXox3j9v34JXddlqZzmdSS+b7aRqQTwUc5n4EdmjYzG/l1voPVYoyx1pjneuB+7t/1WnkLCyqYmdptpYioBoYL49wBUmXJqFGLhEN77Y0aX2oX44J0tCDQflaWusjg//o9mGggngJmVoQ10Kex+43+QSsjffq0oZiz5qo7ZU1lInpnx9qZ6MIvJG6ETPcbMwn2r8DDgZGfyBkVS9UK0rxeH9v1FhqrTFLmB+TN1XD2NoRAwZSKjLaigO2Ici66WYzje8CEumXW1bT8IuKQvkLwewC4ReeEnQIF+n2WvhvHBO1uhaaoUXS4HsGCmjkcWaZhz8WDwT/3923N1uBxiet5/2/Jk9hx0QDhWQglobWUPoNxl3aXP0TQVjft22tZDAOqmMFYs1LDgMh4x0OXFwB2zxUY5HccPo6dD0h486d8ajJkxQgnw5MVvkbXk0Hzor0jEorZ0TC9jLL9Fwzfn6Cg0+Jizp7Jwf3DoA1mvRSryOePzRSSFEkA6CSkT4cj+PZbbnupgl96go9LE1+GO2TrKioyTYMe34TDoJhE5sT6AxJQZwcw41rDPdLtCD3DX1TqW36xjRrn50YpofxAOdiPY1WZa/4gQFoiIGSagszNaNlSlbJvu9mZTQ89THeyKhdrp0Y1VRPuD5sMfWTdyJowrIh2RiUZihgnI06kOkvaO2z77REhOpIO1gkhf0NF0WI4xQBlwuK4yEjKcB7Ci1JKcOQpajzYYyswoZyy8klFRLMmoSSTOigFdqwXw9lgixhMxRq0sf3ramw1llnz17NfEkbYoNu9uBxHhzmurUFtTOGZ7s/LDCQe7kUrEke+xv0qqgAxjZ/gKIuZLbXuCwT3eSMj8SaHX/rcDkbiKcCyN1/Z0SJcfiXBvp6V2w2Fi+wkAKRUynAl2t0tbb8k0oZ6AHEVMhrETGIayuWd4FE52Wqvou/PaKhT78lDsy8Nd11VLlx+Jvh45TwAAw9iJLMZJSUAkaO2gYm1NIR6/V7wbMis/EqGT2UuAyESsQIIjiEX6ZKjJCvFISIoelpQAKcSjF04CkolY1myJJKBfhqH4BfQEJONyEkCA4aqjSALsLV0OEe+PyFCTFVIJKd85QE4CSEoC0gPjcgzXEhJ9lZAA1qUMCVQ1LSSXyamCqG5NlXR4ntgwdoYJYKJPZfgyvIx8NHYdytw1DjsbkkJyrMvZLiUmw5M0AjNhSDmOo6liH+qFt/pxokdOAM6ktVdD/dti/dDcW78pxaYOtp8A0nUpCdAFN+ETAzp+vrkPfXFpFWsIxXT826Yg4gPG76B5C+/BvIX3yDGsOOwnwEW8H4NXvtji776zHHkusaKxrrCGR/47iONd9p+EEz0qVm4IojtsnFCpwQd0V3rAsM7eMAGDlx2R2E7KGFw250bc99hqTKq6SEi+N6rhiZdD2Nko9t4eiXc/SWLlS0F0R4w7VcnBBwMfFU0u6jWSE5sJM79j2yMA/vLJ+O6K1bhy3s1C8okBHb96PYxodwpqSvyVpCZ1RLtSeGZ7GMlsv3aGIEAoZkIJ0BU5CQAAZ54LN9/7T1j09w8Lv5K0lI7+7hQigSQSfWmoSR26xoMvRgZ0jaGmdCT60ogEkujvSUEbEEtYJoIPAASxmAmVJibT3h1eZzIs8zjSZXNuRMWU6dj267XCBVG6ykhFVaSickZJmQo+QOGY6nlXRFLoCRg8dKD/3p5T52L2lSSTzAUfAOFV0YMawsW5OpQNCnipda9GcWDolVR98Rex49V6AMDUtBPXx92YG3dhsupEMqgi6Tf3rXf3OrCltQxtThXveVPY5U2iJW+wM85o8AGQjg3CsqKCzKwEOxNHAVxsySsBwtv/BPeLr6Cy5ewTM/x9oL94ABrE3usOJhSE80H1Z/yRCO1TJ+HgosvxlQdsHe0dEwI+K6nwXEokVksivB9ARDqB11p3bXQcJzpQuOwpTHvi+XOCDwB0glBQ6BI6YkoEFBTmg5qH/Qczqpu6sfD5P6PwB/8KR7OkCrjhMK8RDT5gsuBq6FqC45B0SgaqBk/9K/Cs3wSMtVRRA2AlQQvpiMZSo08LCSgsyIdjggKsZmCMbWh2uZB88B4klt4NWyV3Z9Pm7/dMN3N9gakdsSHFvzTt1ki6QhEUPfAv8NT/buzgA4OB7AYcJQoK/fmgEQJGCqHQPxT8LowZfACggQF4ntuAwmU/BUXlbMAwYY3ZuyNMb0mm2PMCgGaz7c4y2tGNovtXwXnAuFLuNEPnTRxeBUUVbuT7nFAcBMVByC9woKjCDYd36OPsEl85yXvvAIqWrILSbe+AOAPHoglPvbHk2Vh69oKB2EIGbbfSlkIRFN2/Co4T7eYa5gF4kgCjmUgfA08BMDlV0KZUIfrrp6H7rU11CHybv9L3htl2ljbl/ZW+NwnYarqhqqJw+VPmgw8AaQC/YYw5EGIAL5Hp4AODA4GCFb8ArGzGEF6zEnzATlUE00MgmNpp9677DZwNNopfPwXwB4zcCTOA3wM4bH3h1nmgAZ4XXzbbLATN+pU1trr/YGfsNmbaKqLHcfg4ir/zY0CXsOc4g4Bb+PP7d5sI2MGAjMJmh4Lwy89Au3SqoSgGz5x8Y2KV1/K9GbbHX70d8f8QuRu0aMlPzHW640j6mjpEX3jKWJDwq9IK7yN2bNkuzPLHPCvB2DuWjPNA4wUTfGBwZCTwqtzt7/U8bteW7QTQDEqRO7kIjFHP9rg3vmnXTNbJf2WsQR41ONX0YppJYpUGYyClNNHv94dZw9cBnHtrlKoi7933ZZjJKq4de4D0iKU0bcRYJOsWXWm1oRNrvO26rtwK4KzF/bwPG0AJ69uK4wUlknAePGdPvUXXlAUyb1WXWpw7qdp9RHfyXAAHT/3N+eGF8+4fTt6+j8/4FzdCx3WTJrul1EmdQnp19KRJvoBTTd90qmPO2KpjFjhjwrjbMZC+Tva90UCGytOLa4qD/krPDQw8rbRIOu4zDijN7QBjnT/o+dqEKRPkHBoYbiMTSgGAiNSJld7H1dm1P2N/ibwqqyyhl05g9UuzflFa5f2hjNHOaGTlJ0xi6zbVud7a+7pz30E5+wgZRv3KlW2p+dd8veBHdx80lrZHVn/EJ7XqP59w7nz/SaW53ZVNu6JokyvT6euv+rnnmRUC02A5ZP1nrHrXbS/yfXJwfd57+xcr3UFJlxDYQy+fqKlz6zaHr5yztGzZTdJOZ4gwbj/kxk9vKRxoPvKcc9/H9yqtgXF5IrSLqge0q2e97PKVL6O1/5C9g2FnMO4/ZQgAieVrljhOdD7qbPj0ixRLZNQn9nlYrZt5TP3CtGc9P3vwWTMb6JngvEjAKXrXbS/ythx7yNEauMtxrPUypb3TbXv5WiFokyuT+iU1DVp1+eb4lOnPlT686Lw5sHZeJWA4iTWvTuOu7rsdnT3zkEhMd0QSFRTqK6BE0olkykHJFAEAu/MZ7nyNPW5VL53QzwW+AHvcn2llJXtpUtkmz0++3TzOHyVHjhw5cuTIkSNHjhw5TvN/rRRHYDYxbZ4AAAAASUVORK5CYII=;" parent="1" vertex="1">
          <mxGeometry x="637" y="380" width="60" height="60" as="geometry" />
        </mxCell>
        <mxCell id="RAJVKOpdcDavsLiYcgov-104" style="edgeStyle=orthogonalEdgeStyle;rounded=0;orthogonalLoop=1;jettySize=auto;html=1;exitX=0.5;exitY=1;exitDx=0;exitDy=0;entryX=1;entryY=0.5;entryDx=0;entryDy=0;" parent="1" source="RAJVKOpdcDavsLiYcgov-42" target="RAJVKOpdcDavsLiYcgov-83" edge="1">
          <mxGeometry relative="1" as="geometry">
            <mxPoint x="527" y="480" as="targetPoint" />
            <Array as="points">
              <mxPoint x="798" y="518" />
              <mxPoint x="617" y="518" />
              <mxPoint x="617" y="452" />
            </Array>
          </mxGeometry>
        </mxCell>
        <mxCell id="RAJVKOpdcDavsLiYcgov-42" value="Tela com questionário" style="shape=image;verticalLabelPosition=bottom;labelBackgroundColor=#ffffff;verticalAlign=top;aspect=fixed;imageAspect=0;image=data:image/png,iVBORw0KGgoAAAANSUhEUgAAAGAAAABgCAYAAADimHc4AAAABmJLR0QA/wD/AP+gvaeTAAACyElEQVR4nO3dsWtTURzF8XNfSgdtogUxTupsxUWl4CAIJlJC6ZTu1jq4OEjBP0KKdHCRVlczSdHQmgputQ4JCEHX4lKwltBEHcxLrkMpiE0Kpbm/k+r5jEnpeX1fXpIueYCIiIiIiPxvnPXg1VvjIxHcNOAyAM4DOG59DH/5AWDdOZS8w/yHpcVPluNmAUby+cFkvTnr4e8BSFjtHlALHk/irfRMufy0aTFoEmAknx8cqv8qArhpsXd4biX+djpnESEKPQAAyXpzFkfm5AOAzwyc+vrIYin4FbDzmh99RP++7HQTu1Z0ae3ty88hR4JfARESd3H0Tj4ADLQTfjr4SOgBwGc6PXrx8jXkJm8jmRoOfwj7aNRrKBaeoVp5v+e5CD4bet/iPeBspwf74eQDQDI1jNzkVMfnPHAu9L5FgKFOD/bDyd+VPNH1WJKht00+BUl3CkCmAGQKQKYAZApApgBkCkCmAGQKQKYAZApApgBkCkCmAGQKQKYAZApApgBkCkCmAGQKQKYAZApApgBkCkCmAGQKQKYAZApApgBkCkCmAGQKQKYAZApApgBkCkCmAGQKQKYAZApApgBkCkCmAGQKQKYAZApApgBkCkCmAGQKQKYAZApApgBkCkCmAGS0AI16jTW9R2Obdyy0AMXCc+ofvquxXcPrwgJt3+Db0zurVlZRrayy5vuG3gPIFIBMAcgs3gMa6MH38N8YGz/Qz79benXYSQCo9+KX7MfiCvhisBGEMzj24AGcQyn0RijeYTn0RvAA3mEeQCv0TgBx1G4H/wfB5E56o9mJOTjct9jqFefweG158UHoHZNPQfFWegZwKxZbPeFQam6mH1pMmdxgbWOj3D5z8vqL6NjPFIAr6N+Pv7FzmIs301P/1M08/zQ6NnHBt92dCD7rd25n2/E2V4a+O2Ddw79xrcRC6FsXioiIiIiI/AZRsIuCVhjmigAAAABJRU5ErkJggg==;" parent="1" vertex="1">
          <mxGeometry x="769" y="445" width="58" height="58" as="geometry" />
        </mxCell>
        <mxCell id="RAJVKOpdcDavsLiYcgov-43" value="" style="shape=image;verticalLabelPosition=bottom;labelBackgroundColor=#ffffff;verticalAlign=top;aspect=fixed;imageAspect=0;image=data:image/png,iVBORw0KGgoAAAANSUhEUgAAAGAAAABgCAYAAADimHc4AAAABmJLR0QA/wD/AP+gvaeTAAAO+ElEQVR4nO2da3BUx5XHf33vjGZGLwSSEEISyFi8EeZpzEMEMOYVjMBIYENtSK2dQMDr2rAmlp3gVVXCgjfBlXIckzh2ba03iReDg212bcCAAQnj4IQNxCDzWmMIAoMs0CAkzUhzez+MhDRiJM2j74xg9a/SB7W6z+n7P336nO7bfQVd6EIXutCFLnShC13oQhf+v0FEuwMdYW1+fq5hd602PExGkC4hRoDeUTtDyl++sHXnk5HoYziwRLsD/rBmyZwR1gbP61KK3AZcVgxuDZVAR4wuxHKg0xugU3nA84tnL603jJdA9FAh707wgk7hAUXfnpUtbrKv3pB9VY6JO8ELou4BRQWzNwkhV5ipQwIawgCjDsHnhkf/2Ya333/TTJ2BImoGKC4ujnF99kkZgn7R0C+kbJDIreu37nosGvpv9SMaSounTIl3pdovA3HR0N8SQsoGIeWqdW/vejUq+iOtsLCw0JEjnFeRIurkt4SUfLxh646JkdarRVif3hnJBxCCCUWFs76ItN6IGqBo0ey/dkbymyAg+9mCmWWR1BkxAxQVzN4kpBwcKX0hQ4hBzxTM2hIpdR0u6VVgbX5+rrQ0vB4JXSogBEO+kZtzteT4mU/N1hURD/DYXPsioUclDIOXiouLY8zWY7oBfrDoobVSomRrIcLQ6z47tM9sJaYbQJf6P5utwzQIMX7NkjkjzFRhqgGKCmZvIkJxxgwIQK833jZTh6kGEJrxuJny20NyN8G3puvcPzC8RxTQr3jJdNO2S0zbDf3hozOfMzzCapb8tmCzwrQROhOGauga9M+Ey9ck56/IkGW66y3bgPvU9bIZpnmANLRnzJLtD0LAqP4aqwus5OV6yQfQNVg6TSchNvRdF0OSq6ibt8GU+XndEw+mueu0H5oh2x8yUgRLpuqMH6Jj8+NzNqsgO03wl7MGRgiOIARi0qAcd2nZmdLwe+sLUzzghtMSkZ3FBAfMn6izcp6FPmntP0pWqmD+xNDHm9DF90Nu3A5MiQFCag95X4OYA10TjBskeGi0/xHfFkblaJz/SnL4pBGCVpmKd8bwhNC4TSifgoq+PStb1PO0arlNGJgp+LuHLIy4V8MSQu/7Z2qcLZdU3Qy+7fjBA65/XHb6k+Bbtg3lU5CsFs+rlgnNaeWyGRZSEkOXo2uw9EELibHBt43R5HdC1+wfyg2gC2aolGezwuyxOv+4wMKgPmq6m+CAJdMstzKlQGEgc5R0oAWUG8BA9lIhRwgYmXN7WqkKfXoKFkwKeg6zFk+ZEq+yH0ofq3jJ9H6BnFrrCBkpguVzdAon6yQ4VPTMP0blBP/4rl4OpSc4lGZB9fXac+G0T3DAzDE6I3M0RNQPzPiHNIxFwM9UyVNqACnF+FBe84eaVkYDwhBK94XUGkCIjGDb5PTWmPuARs+kTjrkW0EKwsjBbodaA0B8sDT+/aw7a7dagFIfVRqEVQTgOwE/yc/PUiVLmQc888jMb6qSBXDyXBV/+PAcQsCC6dkMzO4W0fbtoUZ3LwI2qpClzAN0izZTlSyAbbvP4bxZT1V1Pdv2fBnx9u3B0ORUVbKUGcCQKF8ldlpoQtmzKjOAhgw6A2oPC6Zn0y3eSreEGB55sG/E23eAJFWCFGZBIlnlFvTA7G4UPRH6W8Bw27cHYcgQtvL8Q10WJEhQJquTQwpsqmQpM4CU0q5KVmeHynRb5TqgU9w3iwSkVBk71eHO2EtQACHUPWukL2jcJVCXbETdA8x7dW+mbnXOHnUP2H2kOmq6dx6+ETXdTYh64Hx529dMGOogzhbZfbzqWg+btlcy9J7ewTcWHG1d9LfVq6cKITYBPSW8mLFx4zoRgJNF3QMAnvz5JaSM3GRkSMmql8pDaqtpYvP6t3b4HFkvX7NmhhDifWAg0F3Ajy8+/fQmGcBcpdIAITNYWe2h6LXLEYkHUkLRry9zvTr4w1lCiKJ1mz94tGVZ+Zo1M6RhvAv4rIOElMsDMYIyA3j0pEyQoQ0r4PPzbop+cymks5uBwpCSotcucfKiO6h2EqShNcz/l7c+eKFl+Xt7Smdf757yAq3Ib4KQcnn56tU/b88IynP3HxTO2qjD9wOVffwLX5v1iNf5xVO9iXeonR2raz2seqn8tpEfQAxw2yzW+4rf3P55y8J39n48E+Q7Qkr3gMOlFxIrrg5tS4CEVzM2blzhLyaYsnj6SX5+Vk2M64iElI7qtjZAE9598hL0GAbWMI/h1N+Ays/If9k/0e0ZQEh5PabClVW8b59PqtZEPo0jX0jpDNUIpqQee0+edJacOPPTbwztlyURo9qre/W6/1TwseFfwI0voaEadBtYgjwg5KqEayeg8jNoqOE/j6T5rdazext7iIKj67fsvGffuXM+81Vr8r11ha0yo489vrLirK22JtW/OEY7J0xoePHQoQMty03NgtZt2fWEzWIdLKS8HpoECTcvwuWDcHEPVB7z/u6uAo8bMLw/hhtcVd6/VR7z1r18EGrKCSU38JfpABzevu7B28hv6qkQiafG5WU6k1NOtCVXeKdmH5i+DmicO7sXFcz4dyG0b4UsqKHG6xE31L5ebA2P8Dy/fvOHP25dLn/NDC7+6J2SrFcOVzqGT/bXtskIAw6XnkisuDrET5UrrQsitg7YsHXXMhBDQ/cGc9GU6fzrW22QL3kXpCPvwsq8HrXHDviTAY1GuH9SpjMltbUn1EkpV7auH5UdzGcXz/4thlwKzUHYY0+g4t5pXIrPoaJG48yk9aTXt+nNQeGSdSg5pUX0jDVIu3GK1LN70VzeCwKNQdhvpgMtyW857QhZkvVKSVue4K3hE5jdUsqFmS+++F+t60XlHE/p8TN/eGD40B26YSy5GtfLyuzvUmqfyP86bThrPDTUNzB9UAw5sgyM+vCUWeMo0fN5oyyVqhoPFz1JXOk3lb7jH4BrX5Fqra84S0LaK5u3XW7d1D/5AIi+zvf7XI0dU1JrTfP/wrkxMMddryyz19Z8L3PjxtvIhyjuBZ1etbknUh4VgvEAsdf2U1XRPDvtcQ5hZvZ4RPk+MBpCU6JZkWkT2HNukE9xbLcExMS5MHEhZVAmhJjCli0ftKzTDvlNNUTehZV5JX1+VVppHzbJfw0Rc3rMhGfzp+ftaLOLwT5TuHj44M2x+QdqPwb5Ho3kAyT08D04dfBqMkJ3QMpYQpspBaSMROh2Dl7xXY4k9vA51JAnpXw/v7R2/7z9N0dCIOQ3QYq88ysmthET3IYQhe2RDxE0QOFHMj6/tOYlzdAOtSS+Cd3TfdPnskuN6aMjBVJGEJwRBCSPAEdaoyzf1W9rXQBIJgtNO/zKe7/YGhj5txoKP4HZZQix8JGpE/xOOy0REQPMO+Aa7rbUfYoU/0AbcSclIw2txTWYqqpaPrje+H2nuExIHQ0igJClWSBlNMRnArD92mBuOGub/6xrJPfu6bfpiOrdlscvrVlIwOQ3wccILkOIgkDIhwgYYF5JTaEQxifAoPbq6RYLPXr5jsxXv2yRSsemQ3oexLRzOtyaCL3yIC79VtHr533T8R7pqeiW20PfqOpdPHe+kBhZ114324EUeRdWjk2v3jsnUPLBZAPMK61bIRBvAgHtI2QMvMfn910nNao8LQajNQHSJ3tHuC3ZO9o1C9iTvR7Se7LP3pHTY2f3aV+vyRxw+/2KEdW7KTq/OAzyAXAj5aJx89buDaaRaWno/JK674L8FUEYOT4pgS+OncIwvHN2Q72HqoS+fDP5dItaAmISID4LuvX3/sRneY3TKk48dWYWfzzbfK9at1gY+eB4NL35sUdU7w5z5APgRrJQfI+AR34TTPGA/NK6ORL5y2DbWaxWMgdk+5T9x9F4vm4I/kOLFfVx/O6o7wnCrMH9sMQ036+INvlgggHm7q/rj5SbCXGNMWBsLrq1uenN6joWHpkbtJwFRx6m5mYzsbrVwoAxzR896Qzkg+prqlJquiZfB0LexLfHx9LvvoE+ZQdO1LL8VOBG+M7JuRwsq/Epu3f4IOxx3lDUWcgHxQb4n4O1q4G8cOUMGJNLYrLvCfDfHNKY+5cCqj1tn4ut9tiYc6SA1w/5PlZichL9xw4DOhf5oHAzrvBD2c1td30BsrsKedXXnZS8tYN6t+/728REB/OH1LI0/SQjY/8GwJ9vZvD7S4N454SDGzdqfepbbVYmF84hLilBCfkNWLlmTV/c8/Hzb4UspAWU7QW5bHX/JEAJ+QDxSYmMnjWJw/+9H8PTnMk4nbW88Qm8wUC8p0Bawpd83WJh9MzJ6sgXMWzIepM/J84ZGGBm3SGUeMCMnTLOEVtXDmrv0AJ8XX6FP+04gKsmOOLscQ5Gz8wjuXdPpeT/KWEOIK8bDkfG9jGipsOGHUBJDHDE1eVjAvkAyb17MuWxh+k7tD9C67i7mqaRPaw/Ux6baxL5ACJJr6sNPjXzAzVTkCEXm/lxB5vDxn1TxzFwbC4XTp2jsvwrnFev4XZ540OMLYbE1O4kZ/Qic0C20mzndvK9kFJ7FAg7DoTNWuFHMt5tqasAddd2VMBM8htRF9NgT90yVYR1ujjsKahBrxvNXUr+C1m/b4t8ALvbWjcyZAWNCNsAHiFHhytDJVSS/2lC+5f/pWz/zFMgCNsAQkEnVCGS5AMIwh984Qdhwb1hy1CAHlxmWdWPwiLfLexs6LOZI/EBfvZOwdcBVKShyhZf4SBXHiAtvZwLSf7OQ3WMBhHDT7N+Gzj5ACL8G/MqDKDs2n44GCZLicVJcvrVoI0QzLTTCmEPvrvGALmiBCBoI4RBPigwwF1xt1d+5MhEMy74FAqcnHdfoFq2eWQccAMFYgXbTe1gO+gUd8TChvDz/R5JIn1isogXx9toFXXy4S75xFi3zKGvDk53Ztqtt31X20aSbqfWOIOblmdROgX5cJcYwJY2YtPO4+na1EGXiY3p0Aidhny4C6agl9cOH/eV0245VxHPqt/dz9c3/fzrr6bpKFYcpRORD3eBAa65rLf+UVAbRjiD5DWkXEk/x5zORD50gpvy4eKK0+4TgF31uufNP/b765PTTm7CYJeYWneu+a/BXU+NBO74NHTZsinXEh31FWmJrr2Jse5/e6r4mNJ/sGA2/g8PwEKhAGhM8wAAAABJRU5ErkJggg==;" parent="1" vertex="1">
          <mxGeometry x="777" y="329.5" width="50" height="50" as="geometry" />
        </mxCell>
        <mxCell id="RAJVKOpdcDavsLiYcgov-46" value="" style="shape=image;verticalLabelPosition=bottom;labelBackgroundColor=#ffffff;verticalAlign=top;aspect=fixed;imageAspect=0;image=data:image/png,iVBORw0KGgoAAAANSUhEUgAAAGAAAABgCAYAAADimHc4AAAABmJLR0QA/wD/AP+gvaeTAAACbElEQVR4nO3dvWoUURjG8efMrEhM1kvQFBZBCZbWfqQwhUiKvQCzuNgGb0OUoBgkIbcQLBSSaJ9CsMgmjUWIVdqozezOvBaKlVu8Z3Z93DnPrwy8s4f57xwGMswCIiIiIiIiIiKSilD3ANsLO4uVoWuGuwiYBzBbf1n/tR8wnCDYPjLb7B6vHNY5WHSA9WvvLl7KB88B6wHI6ixiipUhYKOdF2udfqeIOUBUgF8nv3gP4HbMfNME2Md2a3A/JkLUN3cmL15AJ/8PQ7hzPrjwLGbWfQVsL+wslobPSHfbGaWs8uzm46MHfc+Q+yRWhm7MXALyrKpWvUPuE2kB97wzyTAseUf832TDFfdMOq56B2K2krmImVS0vQPay8kUgEwByFrsBXgtvb7117/vPTn4xysZD10BZApApgBkCkCmAGQKQKYAZApApgBkCkCmAGQKQKYAZApApgBkCkCmAGQKQKYAZApApgBkE38qYtRTDNPyOZN+2kJXAJkCkCkAmQKQKQDZxO+Cxn0XoWdDZawUgEwByBSATAHIFIBMAcgUgEwByBSATAHIFIBMAcgUgEwByBSATAHIFIBMAcim7n1B0/q/31F0BZApAJkCkMUE+Db2VTTHuXfAHyDgq3smHafegYhXF9ueeyYVwXa9I/4AmW0CKN1zzVdmw7DlHXIH6B6vHIaADe9c0wXg1aMvD4+8c1F3Qe28WAPwIWa2iSxgfzh39jRmNipAp98pLreKZZi9RNrbURmA9Wr2bLn3qTeIOUDtn7F6c/3tjayqVn//eME8mv96++8AThBsNxuGrZhtR0RERERERERE0vQTzuN8H9a4OsEAAAAASUVORK5CYII=;" parent="1" vertex="1">
          <mxGeometry x="665" y="654" width="32" height="32" as="geometry" />
        </mxCell>
        <mxCell id="L-sPylKmDmo3-dS7Oe-S-31" style="edgeStyle=orthogonalEdgeStyle;rounded=0;orthogonalLoop=1;jettySize=auto;html=1;entryX=0.469;entryY=0.019;entryDx=0;entryDy=0;entryPerimeter=0;" parent="1" source="RAJVKOpdcDavsLiYcgov-83" edge="1" target="L-sPylKmDmo3-dS7Oe-S-39">
          <mxGeometry relative="1" as="geometry">
            <mxPoint x="72" y="552" as="targetPoint" />
            <Array as="points">
              <mxPoint x="70" y="498" />
            </Array>
            <mxPoint x="207" y="498" as="sourcePoint" />
          </mxGeometry>
        </mxCell>
        <mxCell id="L-sPylKmDmo3-dS7Oe-S-32" value="Visualizar tarefas" style="edgeLabel;html=1;align=center;verticalAlign=middle;resizable=0;points=[];" parent="L-sPylKmDmo3-dS7Oe-S-31" vertex="1" connectable="0">
          <mxGeometry x="-0.4945" y="2" relative="1" as="geometry">
            <mxPoint x="2" y="-10" as="offset" />
          </mxGeometry>
        </mxCell>
        <mxCell id="ClL08HFa1sP2JxQlRzgX-10" value="Visualizar sintomas" style="edgeLabel;html=1;align=center;verticalAlign=middle;resizable=0;points=[];" vertex="1" connectable="0" parent="L-sPylKmDmo3-dS7Oe-S-31">
          <mxGeometry x="-0.5012" relative="1" as="geometry">
            <mxPoint x="-114.88" y="-8" as="offset" />
          </mxGeometry>
        </mxCell>
        <mxCell id="RAJVKOpdcDavsLiYcgov-118" style="edgeStyle=orthogonalEdgeStyle;rounded=0;orthogonalLoop=1;jettySize=auto;html=1;exitX=1;exitY=0.25;exitDx=0;exitDy=0;" parent="1" source="RAJVKOpdcDavsLiYcgov-49" target="RAJVKOpdcDavsLiYcgov-83" edge="1">
          <mxGeometry relative="1" as="geometry">
            <Array as="points">
              <mxPoint x="383" y="611" />
            </Array>
          </mxGeometry>
        </mxCell>
        <mxCell id="L-sPylKmDmo3-dS7Oe-S-22" value="Voltar" style="edgeLabel;html=1;align=center;verticalAlign=middle;resizable=0;points=[];" parent="RAJVKOpdcDavsLiYcgov-118" vertex="1" connectable="0">
          <mxGeometry x="-0.3316" y="-2" relative="1" as="geometry">
            <mxPoint x="-16.09" as="offset" />
          </mxGeometry>
        </mxCell>
        <mxCell id="RAJVKOpdcDavsLiYcgov-49" value="Informaçoes sobre a fase" style="shape=image;verticalLabelPosition=bottom;labelBackgroundColor=#ffffff;verticalAlign=top;aspect=fixed;imageAspect=0;image=data:image/png,iVBORw0KGgoAAAANSUhEUgAAAGAAAABgCAYAAADimHc4AAAABmJLR0QA/wD/AP+gvaeTAAACyElEQVR4nO3dsWtTURzF8XNfSgdtogUxTupsxUWl4CAIJlJC6ZTu1jq4OEjBP0KKdHCRVlczSdHQmgputQ4JCEHX4lKwltBEHcxLrkMpiE0Kpbm/k+r5jEnpeX1fXpIueYCIiIiIiPxvnPXg1VvjIxHcNOAyAM4DOG59DH/5AWDdOZS8w/yHpcVPluNmAUby+cFkvTnr4e8BSFjtHlALHk/irfRMufy0aTFoEmAknx8cqv8qArhpsXd4biX+djpnESEKPQAAyXpzFkfm5AOAzwyc+vrIYin4FbDzmh99RP++7HQTu1Z0ae3ty88hR4JfARESd3H0Tj4ADLQTfjr4SOgBwGc6PXrx8jXkJm8jmRoOfwj7aNRrKBaeoVp5v+e5CD4bet/iPeBspwf74eQDQDI1jNzkVMfnPHAu9L5FgKFOD/bDyd+VPNH1WJKht00+BUl3CkCmAGQKQKYAZApApgBkCkCmAGQKQKYAZApApgBkCkCmAGQKQKYAZApApgBkCkCmAGQKQKYAZApApgBkCkCmAGQKQKYAZApApgBkCkCmAGQKQKYAZApApgBkCkCmAGQKQKYAZApApgBkCkCmAGQKQKYAZApApgBkCkCmAGQKQKYAZApApgBkCkCmAGS0AI16jTW9R2Obdyy0AMXCc+ofvquxXcPrwgJt3+Db0zurVlZRrayy5vuG3gPIFIBMAcgs3gMa6MH38N8YGz/Qz79benXYSQCo9+KX7MfiCvhisBGEMzj24AGcQyn0RijeYTn0RvAA3mEeQCv0TgBx1G4H/wfB5E56o9mJOTjct9jqFefweG158UHoHZNPQfFWegZwKxZbPeFQam6mH1pMmdxgbWOj3D5z8vqL6NjPFIAr6N+Pv7FzmIs301P/1M08/zQ6NnHBt92dCD7rd25n2/E2V4a+O2Ddw79xrcRC6FsXioiIiIiI/AZRsIuCVhjmigAAAABJRU5ErkJggg==;" parent="1" vertex="1">
          <mxGeometry x="267" y="596" width="58" height="58" as="geometry" />
        </mxCell>
        <mxCell id="ClL08HFa1sP2JxQlRzgX-9" style="edgeStyle=orthogonalEdgeStyle;rounded=0;orthogonalLoop=1;jettySize=auto;html=1;exitX=1;exitY=0.5;exitDx=0;exitDy=0;entryX=1;entryY=0.5;entryDx=0;entryDy=0;" edge="1" parent="1" source="RAJVKOpdcDavsLiYcgov-53" target="L-sPylKmDmo3-dS7Oe-S-39">
          <mxGeometry relative="1" as="geometry" />
        </mxCell>
        <mxCell id="RAJVKOpdcDavsLiYcgov-53" value="" style="shape=image;verticalLabelPosition=bottom;labelBackgroundColor=#ffffff;verticalAlign=top;aspect=fixed;imageAspect=0;image=data:image/png,iVBORw0KGgoAAAANSUhEUgAAAGAAAABgCAYAAADimHc4AAAABmJLR0QA/wD/AP+gvaeTAAAH3ElEQVR4nO2dXWwcVxXHf2fGsa06UZWiqEItNDh24vWm5Mu7G9K0QSURBRUJVZVfkBC8EFQhCF9NaJM0kUDC0AcqHpAiEAJVKqoRQqJShRQporTEXjsmNFnvru2GgNoKNaJJWjsQ7+4cHtYpaWN7P+be2Rlrfi+213PP+fuee+Z+zhhiYmJiYmJiYmJiYmIihGb79mi2b0+rdfihrdUCfHIUVIE/tVpIs0irBTSLZvt2Aa9Uf3AekMzkn1urqDmcVgvwwbH3vnO8w62T4Y9IZoCOJHbi6On3feh498vA1MstktQ00cwAR5+65TPPfaIFSnwTuQzQkb4dOIyxmHbxMpKaygavqnmilwEux1mq4ahzJFgx/olUBuh4YjuejrOsbi8t6amxwET5JFoZ4OlT1Go06j4ZjBgzRCYDNJvcCpUJamtWVNOSKY4HocsvEcqAylHqazCCyPdsqzFFJDJAs/1J8F6l/gajqLdNMlN/s6nLBNHIAPWO0ZhWwYlGXxD6DNCRZD9O5RyNNxbFYYsMFM7Z0GWK8GeAUz5KczoFj9DPjkOdAXq6N4Hrnqf5huIhskVS+fMmdZkk3Bnguofxp9FB9ZApOTYIbQboSKIXRyfxv2lUQTQpqWLRhC7ThDcDxDuCmR07FyS0fUEoM0DHezbgtRUwt2VaQemXTGHKkD1jhDMDvLbDmN2vdhFC2ReELgN0bGM36hQxf2CggicJ2ZmfNmzXFyHMAHkCO6c1XBzvcQt2fRGqDNDx5EfxKtNAuyUXJVQ3Sab4d0v2GyZcGeBVnsRe5QOsAjlo0X7DtCwDdLTvQ6j04tKLshG0B3gEuwEAmAd+BzKDMEWFaUSnJVP4t2W/i2I1AHpqfSddt21AK/3gdCPaDXQDSeDDNn03jHAZuAByAbzqV/EmcW87L9vOXrHn1ic63dPBFecu1Emi0n9TJXcDHzPho+V8MDieM4lqDsrTsnPmHX+m60BzyXaule4Gtxv1kiD9/L+S1xO2viRIbg6Op5OgOVQusMYtSjI3W7v4Emi27zvAZ0B7Qe5e7tog+eLjty/7+1//6GpASmqioK+DTAMvSrrw9GIXLdNy3WeBO0E+QkgqP2LIQt3dRdl7bqmLlgyApHP/olR6EAj1jlKoEcnTpg/Krqk3lrpk2Xu33PfaW1xftQeIxBGPcKFncUt7ZHvxzeWuqtl5yv3nLrOqcx/KqDlxK54JVPbK9plLtS6sa/Qi285ewZ3/NHC65sUx45TdffVO7OoePsrAhat0tO9DONW8thWOyst45U/Jrtzb9RZpaPwuW16dQ7oeBk42LG7l8xIl77ONTswankDJwJlrrC0/DPyh0bIrmD9Snn1IdhffbbRgUzNY6Z25Tpf7KKK/b6b8ykJeZO6/n5ddr/+nqdJ+XGsu2c5c5Tmqq5i+qDXDNY2hGfMLrC0/Kr0z15s14GsNR5K5eS4WBkGe9WMnmsjzOF2P+Kl8MLCIJoNUuJj/EvArv7YixG+Yu/MLMnCm5NeQkb1XGaSiWvgyY5vmQB4zYTO0iP6CgeJXRAqeCXPGlpFFUFLFryH81JTNEHKiWvkYqXwwvI4vgjJQ+AboT0zaDQfyM1KFr5qsfLCwkSKCSrr4TZDvm7bdQp6WdP4xEdS0YWs7WZLOH0EllKfRGkJ0SNKF71ozb8vwDXQ0cRDRH5qyF+iOmHBMUoXj5gzeivW9XMnkhwBrLcgeesR25UNAm+nV/VA9EIQvM+gBSRcD6cOCO83QxnBgvvziOM8H5iooR8zL5sB8+UUJTGtwAZDg/igDrMAAIMngfPnFC0xrnAGL4QV3uwwkAKoIaCIIX4ZIVjXbJ5gMyG5aD6wJxJcJhNWM9N0ThKtgXtwq5lI6sLOfDpuBi/bdBEN07v83CKjPCioAERoB3SCYUVucAUvirYwM0FOfbAP6bPsxjyQWtFvFfgZ0vtELdFj3Y54O1rzZY9uJ/QA4TgRvPwuo/QlZAH1AlJYgPkAAM+IgOmFbAXirusegB6rfW8F647EfAOFeo/aUWUSH8Mq9ki4+I+niM3S0d1f3n9Xs87wBzAXsPqg93dPB5bZZzMy4rwE/p1T6gdz32qItXv+SvAO38nWEb2Fm6aPM2vJqv8cPl8NuAKqvG/6rTzMl4Je06fFaz1u953eiZx0V99uoHMDvCEy9rTZfAGv5FlT2k8IeIsO4br+kC/vrrXwA2T5zSVLFQzjuRuAEUGlahcF1rMWwHICmR0Anwd0hqfyg7MjNNO19IPdPSRf2U6nci8gwNHOwyu4oznYn3GjreQV1HpB0YZ+kc2dNiZBPTOcllR9EvJ3ACw0Wj3IG1CtesuDslXRht81/RyWpqaykC59DdDfwUp3FrAbAWiesueRq5irv1PAxieox0sXf2jh3WQsdS+xFvR+DbF3uMub19mae/6oHexnwrreZJf/XC/9A2M/FwsclUxxuReUDSCp/klRxB6qDwFIv8xM63X5bGuwFYPFJzCVUDnFHeZOkCidk0MfoxBAieJIpDuN0JRH2A7e+16Gi1m5DFgPwvqMdb6NyiPLsPZLJD9mc2DSLDJwpSapwgi63eyEQN0321NpIyGInLJuBOUSHWNW5QTL5oWYf5QwSSebmFwKxYeF4/dVIHam5gY4mDupEz7pW6/CLTvSs09FEqN60GBMTExMTExMTExMTbf4HssNKL0TaQgMAAAAASUVORK5CYII=;" parent="1" vertex="1">
          <mxGeometry x="117" y="677.5" width="40" height="40" as="geometry" />
        </mxCell>
        <mxCell id="RAJVKOpdcDavsLiYcgov-74" style="edgeStyle=orthogonalEdgeStyle;rounded=0;orthogonalLoop=1;jettySize=auto;html=1;exitX=1.008;exitY=0.35;exitDx=0;exitDy=0;entryX=0;entryY=0.5;entryDx=0;entryDy=0;exitPerimeter=0;" parent="1" source="RAJVKOpdcDavsLiYcgov-55" target="RAJVKOpdcDavsLiYcgov-73" edge="1">
          <mxGeometry relative="1" as="geometry">
            <Array as="points">
              <mxPoint x="-122" y="370" />
              <mxPoint x="-63" y="370" />
              <mxPoint x="-63" y="360" />
              <mxPoint x="13" y="360" />
            </Array>
          </mxGeometry>
        </mxCell>
        <mxCell id="RAJVKOpdcDavsLiYcgov-75" style="edgeStyle=orthogonalEdgeStyle;rounded=0;orthogonalLoop=1;jettySize=auto;html=1;exitX=1.013;exitY=0.645;exitDx=0;exitDy=0;entryX=0;entryY=0.5;entryDx=0;entryDy=0;exitPerimeter=0;" parent="1" source="RAJVKOpdcDavsLiYcgov-55" target="RAJVKOpdcDavsLiYcgov-72" edge="1">
          <mxGeometry relative="1" as="geometry">
            <Array as="points">
              <mxPoint x="-123" y="392" />
              <mxPoint x="-123" y="390" />
              <mxPoint x="-63" y="390" />
              <mxPoint x="-63" y="400" />
              <mxPoint x="13" y="400" />
            </Array>
          </mxGeometry>
        </mxCell>
        <mxCell id="RAJVKOpdcDavsLiYcgov-55" value="Usuária&#xa;(novo dispositivo)" style="shape=image;verticalLabelPosition=bottom;labelBackgroundColor=#ffffff;verticalAlign=top;aspect=fixed;imageAspect=0;image=data:image/png,iVBORw0KGgoAAAANSUhEUgAAAGAAAABgCAYAAADimHc4AAAABmJLR0QA/wD/AP+gvaeTAAAOA0lEQVR4nO2da5RU1ZXH//tWdXU9+kFXQz9pAQU7EXw0MQRRo0LUgagLjYkmGWeELE1mQJOIgnHNGuOsZK0ITOKgjq7+QGZCHKMQDKCYiFECAy4XChHtBkTopl/VD7qqq6rr1XXv3fOhG4Smu++5956qhkz9vtHss/euveve89rnFJAjR44cOXLkyJEjR47/b9B4OzAWnZ3Rsjyd6lhRasGoJaAWoDKAfQBKAPiGRGMAQgDFwHoXE30KwmHSlSMuSh8orCzsGb9PMTbnVQI6OtjrUuI3k07zQXQTwLNg30cG8DEY7+oKv5NMe3fU1FBCgrtSGPcEMLMSCiTnsYL7wPq9ABVl2GKEQFtAvLGk3LudiLTM2hubcUtAUxO7i93xpQx6FMC0cXLjOIHXlvR719MMSo2HA1lPQEcHe/Mp8c8AHgFQmW37oxAAY20KnherqiieTcNZTUCwM3Y7M60DMDWbdk3QBuDHpZXeTdkymJUEhAKJqRr4WQJuy4Y9uxCwFUwP+as8LVmwlVlOdsQWE9F6DA4bLyA4AtADpZXeVzNpJWMJ4KOcH/QlVoPwcKZsZAWien/U/XCmOumMJCDSFilNO5yvA5ibCf1Zh7DHmU7fUVxTHJSvWjI9PbEqRVX+CPDlsnWPL3wIOt1aWu1tlalVagJOdqS+QKS9BaBGpt7ziBZdV26ZVO0+IkuhtAScbI1XkxN7AEyRpfO8hNCu6HRtSZXnhAx1igwlkbZIKTl5B/7Wgw8AjGqd9O3h1rBfhjrbTwAf5fxgQWInMtjhRkI9aD70EbpaP0NvoBWJeD+SiX4kYzFo6sBZsrcveRS1dfMy5crnMPb6Y575dkdHTrt+hAoS/44MBF8dSKHxg934aO+f0NVyTLjdnzfWo2bGLHgLMrymR5gX9CVWA/ihPTU26A3E7waw0Y6O4TAzGvftxO5tL6E/bG3UV1s3D7cveVSmW6PCjG9MrPJuttrecgJCgcRUHfgrwMVWdQwnHg3jzd+uQ9OhA7Z15bnc8BWXoLCoBJOnz8L0K76MsskXg0jyyJvQp+h0ldVO2bI3JwPxrQTcbrX9cHq72rDxuZ9a/taLUH7RJbhx8f2omT5Tql5ibPFXeRdbamul0dD6zmtW2o5ET0cLNj7/JOLRsCyVY3LFNV/Dgm89CIfDdhd4GiK+w1/h22a6ndkGQ+v5jZA05IxHw9iw5jFE+07KUCdMzYzLcecDq+Bye2WpbIqrnplmtztNzwPclFgGScHXNQ3b1q/JevABoPXox3j9v34JXddlqZzmdSS+b7aRqQTwUc5n4EdmjYzG/l1voPVYoyx1pjneuB+7t/1WnkLCyqYmdptpYioBoYL49wBUmXJqFGLhEN77Y0aX2oX44J0tCDQflaWusjg//o9mGggngJmVoQ10Kex+43+QSsjffq0oZiz5qo7ZU1lInpnx9qZ6MIvJG6ETPcbMwn2r8DDgZGfyBkVS9UK0rxeH9v1FhqrTFLmB+TN1XD2NoRAwZSKjLaigO2Ici66WYzje8CEumXW1bT8IuKQvkLwewC4ReeEnQIF+n2WvhvHBO1uhaaoUXS4HsGCmjkcWaZhz8WDwT/3923N1uBxiet5/2/Jk9hx0QDhWQglobWUPoNxl3aXP0TQVjft22tZDAOqmMFYs1LDgMh4x0OXFwB2zxUY5HccPo6dD0h486d8ajJkxQgnw5MVvkbXk0Hzor0jEorZ0TC9jLL9Fwzfn6Cg0+Jizp7Jwf3DoA1mvRSryOePzRSSFEkA6CSkT4cj+PZbbnupgl96go9LE1+GO2TrKioyTYMe34TDoJhE5sT6AxJQZwcw41rDPdLtCD3DX1TqW36xjRrn50YpofxAOdiPY1WZa/4gQFoiIGSagszNaNlSlbJvu9mZTQ89THeyKhdrp0Y1VRPuD5sMfWTdyJowrIh2RiUZihgnI06kOkvaO2z77REhOpIO1gkhf0NF0WI4xQBlwuK4yEjKcB7Ci1JKcOQpajzYYyswoZyy8klFRLMmoSSTOigFdqwXw9lgixhMxRq0sf3ramw1llnz17NfEkbYoNu9uBxHhzmurUFtTOGZ7s/LDCQe7kUrEke+xv0qqgAxjZ/gKIuZLbXuCwT3eSMj8SaHX/rcDkbiKcCyN1/Z0SJcfiXBvp6V2w2Fi+wkAKRUynAl2t0tbb8k0oZ6AHEVMhrETGIayuWd4FE52Wqvou/PaKhT78lDsy8Nd11VLlx+Jvh45TwAAw9iJLMZJSUAkaO2gYm1NIR6/V7wbMis/EqGT2UuAyESsQIIjiEX6ZKjJCvFISIoelpQAKcSjF04CkolY1myJJKBfhqH4BfQEJONyEkCA4aqjSALsLV0OEe+PyFCTFVIJKd85QE4CSEoC0gPjcgzXEhJ9lZAA1qUMCVQ1LSSXyamCqG5NlXR4ntgwdoYJYKJPZfgyvIx8NHYdytw1DjsbkkJyrMvZLiUmw5M0AjNhSDmOo6liH+qFt/pxokdOAM6ktVdD/dti/dDcW78pxaYOtp8A0nUpCdAFN+ETAzp+vrkPfXFpFWsIxXT826Yg4gPG76B5C+/BvIX3yDGsOOwnwEW8H4NXvtji776zHHkusaKxrrCGR/47iONd9p+EEz0qVm4IojtsnFCpwQd0V3rAsM7eMAGDlx2R2E7KGFw250bc99hqTKq6SEi+N6rhiZdD2Nko9t4eiXc/SWLlS0F0R4w7VcnBBwMfFU0u6jWSE5sJM79j2yMA/vLJ+O6K1bhy3s1C8okBHb96PYxodwpqSvyVpCZ1RLtSeGZ7GMlsv3aGIEAoZkIJ0BU5CQAAZ54LN9/7T1j09w8Lv5K0lI7+7hQigSQSfWmoSR26xoMvRgZ0jaGmdCT60ogEkujvSUEbEEtYJoIPAASxmAmVJibT3h1eZzIs8zjSZXNuRMWU6dj267XCBVG6ykhFVaSickZJmQo+QOGY6nlXRFLoCRg8dKD/3p5T52L2lSSTzAUfAOFV0YMawsW5OpQNCnipda9GcWDolVR98Rex49V6AMDUtBPXx92YG3dhsupEMqgi6Tf3rXf3OrCltQxtThXveVPY5U2iJW+wM85o8AGQjg3CsqKCzKwEOxNHAVxsySsBwtv/BPeLr6Cy5ewTM/x9oL94ABrE3usOJhSE80H1Z/yRCO1TJ+HgosvxlQdsHe0dEwI+K6nwXEokVksivB9ARDqB11p3bXQcJzpQuOwpTHvi+XOCDwB0glBQ6BI6YkoEFBTmg5qH/Qczqpu6sfD5P6PwB/8KR7OkCrjhMK8RDT5gsuBq6FqC45B0SgaqBk/9K/Cs3wSMtVRRA2AlQQvpiMZSo08LCSgsyIdjggKsZmCMbWh2uZB88B4klt4NWyV3Z9Pm7/dMN3N9gakdsSHFvzTt1ki6QhEUPfAv8NT/buzgA4OB7AYcJQoK/fmgEQJGCqHQPxT8LowZfACggQF4ntuAwmU/BUXlbMAwYY3ZuyNMb0mm2PMCgGaz7c4y2tGNovtXwXnAuFLuNEPnTRxeBUUVbuT7nFAcBMVByC9woKjCDYd36OPsEl85yXvvAIqWrILSbe+AOAPHoglPvbHk2Vh69oKB2EIGbbfSlkIRFN2/Co4T7eYa5gF4kgCjmUgfA08BMDlV0KZUIfrrp6H7rU11CHybv9L3htl2ljbl/ZW+NwnYarqhqqJw+VPmgw8AaQC/YYw5EGIAL5Hp4AODA4GCFb8ArGzGEF6zEnzATlUE00MgmNpp9677DZwNNopfPwXwB4zcCTOA3wM4bH3h1nmgAZ4XXzbbLATN+pU1trr/YGfsNmbaKqLHcfg4ir/zY0CXsOc4g4Bb+PP7d5sI2MGAjMJmh4Lwy89Au3SqoSgGz5x8Y2KV1/K9GbbHX70d8f8QuRu0aMlPzHW640j6mjpEX3jKWJDwq9IK7yN2bNkuzPLHPCvB2DuWjPNA4wUTfGBwZCTwqtzt7/U8bteW7QTQDEqRO7kIjFHP9rg3vmnXTNbJf2WsQR41ONX0YppJYpUGYyClNNHv94dZw9cBnHtrlKoi7933ZZjJKq4de4D0iKU0bcRYJOsWXWm1oRNrvO26rtwK4KzF/bwPG0AJ69uK4wUlknAePGdPvUXXlAUyb1WXWpw7qdp9RHfyXAAHT/3N+eGF8+4fTt6+j8/4FzdCx3WTJrul1EmdQnp19KRJvoBTTd90qmPO2KpjFjhjwrjbMZC+Tva90UCGytOLa4qD/krPDQw8rbRIOu4zDijN7QBjnT/o+dqEKRPkHBoYbiMTSgGAiNSJld7H1dm1P2N/ibwqqyyhl05g9UuzflFa5f2hjNHOaGTlJ0xi6zbVud7a+7pz30E5+wgZRv3KlW2p+dd8veBHdx80lrZHVn/EJ7XqP59w7nz/SaW53ZVNu6JokyvT6euv+rnnmRUC02A5ZP1nrHrXbS/yfXJwfd57+xcr3UFJlxDYQy+fqKlz6zaHr5yztGzZTdJOZ4gwbj/kxk9vKRxoPvKcc9/H9yqtgXF5IrSLqge0q2e97PKVL6O1/5C9g2FnMO4/ZQgAieVrljhOdD7qbPj0ixRLZNQn9nlYrZt5TP3CtGc9P3vwWTMb6JngvEjAKXrXbS/ythx7yNEauMtxrPUypb3TbXv5WiFokyuT+iU1DVp1+eb4lOnPlT686Lw5sHZeJWA4iTWvTuOu7rsdnT3zkEhMd0QSFRTqK6BE0olkykHJFAEAu/MZ7nyNPW5VL53QzwW+AHvcn2llJXtpUtkmz0++3TzOHyVHjhw5cuTIkSNHjhw5TvN/rRRHYDYxbZ4AAAAASUVORK5CYII=;" parent="1" vertex="1">
          <mxGeometry x="-203" y="340" width="80" height="80" as="geometry" />
        </mxCell>
        <mxCell id="RAJVKOpdcDavsLiYcgov-88" style="edgeStyle=orthogonalEdgeStyle;rounded=0;orthogonalLoop=1;jettySize=auto;html=1;exitX=1;exitY=0.25;exitDx=0;exitDy=0;" parent="1" source="RAJVKOpdcDavsLiYcgov-63" target="RAJVKOpdcDavsLiYcgov-83" edge="1">
          <mxGeometry relative="1" as="geometry">
            <Array as="points">
              <mxPoint x="-123" y="470" />
            </Array>
          </mxGeometry>
        </mxCell>
        <mxCell id="RAJVKOpdcDavsLiYcgov-93" value="Visualizar calendário e dicas" style="edgeLabel;html=1;align=center;verticalAlign=middle;resizable=0;points=[];" parent="RAJVKOpdcDavsLiYcgov-88" vertex="1" connectable="0">
          <mxGeometry x="-0.3741" relative="1" as="geometry">
            <mxPoint x="-2.6" y="-8.39" as="offset" />
          </mxGeometry>
        </mxCell>
        <mxCell id="RAJVKOpdcDavsLiYcgov-63" value="Usuária" style="shape=image;verticalLabelPosition=bottom;labelBackgroundColor=#ffffff;verticalAlign=top;aspect=fixed;imageAspect=0;image=data:image/png,iVBORw0KGgoAAAANSUhEUgAAAGAAAABgCAYAAADimHc4AAAABmJLR0QA/wD/AP+gvaeTAAAOA0lEQVR4nO2da5RU1ZXH//tWdXU9+kFXQz9pAQU7EXw0MQRRo0LUgagLjYkmGWeELE1mQJOIgnHNGuOsZK0ITOKgjq7+QGZCHKMQDKCYiFECAy4XChHtBkTopl/VD7qqq6rr1XXv3fOhG4Smu++5956qhkz9vtHss/euveve89rnFJAjR44cOXLkyJEjR47/b9B4OzAWnZ3Rsjyd6lhRasGoJaAWoDKAfQBKAPiGRGMAQgDFwHoXE30KwmHSlSMuSh8orCzsGb9PMTbnVQI6OtjrUuI3k07zQXQTwLNg30cG8DEY7+oKv5NMe3fU1FBCgrtSGPcEMLMSCiTnsYL7wPq9ABVl2GKEQFtAvLGk3LudiLTM2hubcUtAUxO7i93xpQx6FMC0cXLjOIHXlvR719MMSo2HA1lPQEcHe/Mp8c8AHgFQmW37oxAAY20KnherqiieTcNZTUCwM3Y7M60DMDWbdk3QBuDHpZXeTdkymJUEhAKJqRr4WQJuy4Y9uxCwFUwP+as8LVmwlVlOdsQWE9F6DA4bLyA4AtADpZXeVzNpJWMJ4KOcH/QlVoPwcKZsZAWien/U/XCmOumMJCDSFilNO5yvA5ibCf1Zh7DHmU7fUVxTHJSvWjI9PbEqRVX+CPDlsnWPL3wIOt1aWu1tlalVagJOdqS+QKS9BaBGpt7ziBZdV26ZVO0+IkuhtAScbI1XkxN7AEyRpfO8hNCu6HRtSZXnhAx1igwlkbZIKTl5B/7Wgw8AjGqd9O3h1rBfhjrbTwAf5fxgQWInMtjhRkI9aD70EbpaP0NvoBWJeD+SiX4kYzFo6sBZsrcveRS1dfMy5crnMPb6Y575dkdHTrt+hAoS/44MBF8dSKHxg934aO+f0NVyTLjdnzfWo2bGLHgLMrymR5gX9CVWA/ihPTU26A3E7waw0Y6O4TAzGvftxO5tL6E/bG3UV1s3D7cveVSmW6PCjG9MrPJuttrecgJCgcRUHfgrwMVWdQwnHg3jzd+uQ9OhA7Z15bnc8BWXoLCoBJOnz8L0K76MsskXg0jyyJvQp+h0ldVO2bI3JwPxrQTcbrX9cHq72rDxuZ9a/taLUH7RJbhx8f2omT5Tql5ibPFXeRdbamul0dD6zmtW2o5ET0cLNj7/JOLRsCyVY3LFNV/Dgm89CIfDdhd4GiK+w1/h22a6ndkGQ+v5jZA05IxHw9iw5jFE+07KUCdMzYzLcecDq+Bye2WpbIqrnplmtztNzwPclFgGScHXNQ3b1q/JevABoPXox3j9v34JXddlqZzmdSS+b7aRqQTwUc5n4EdmjYzG/l1voPVYoyx1pjneuB+7t/1WnkLCyqYmdptpYioBoYL49wBUmXJqFGLhEN77Y0aX2oX44J0tCDQflaWusjg//o9mGggngJmVoQ10Kex+43+QSsjffq0oZiz5qo7ZU1lInpnx9qZ6MIvJG6ETPcbMwn2r8DDgZGfyBkVS9UK0rxeH9v1FhqrTFLmB+TN1XD2NoRAwZSKjLaigO2Ici66WYzje8CEumXW1bT8IuKQvkLwewC4ReeEnQIF+n2WvhvHBO1uhaaoUXS4HsGCmjkcWaZhz8WDwT/3923N1uBxiet5/2/Jk9hx0QDhWQglobWUPoNxl3aXP0TQVjft22tZDAOqmMFYs1LDgMh4x0OXFwB2zxUY5HccPo6dD0h486d8ajJkxQgnw5MVvkbXk0Hzor0jEorZ0TC9jLL9Fwzfn6Cg0+Jizp7Jwf3DoA1mvRSryOePzRSSFEkA6CSkT4cj+PZbbnupgl96go9LE1+GO2TrKioyTYMe34TDoJhE5sT6AxJQZwcw41rDPdLtCD3DX1TqW36xjRrn50YpofxAOdiPY1WZa/4gQFoiIGSagszNaNlSlbJvu9mZTQ89THeyKhdrp0Y1VRPuD5sMfWTdyJowrIh2RiUZihgnI06kOkvaO2z77REhOpIO1gkhf0NF0WI4xQBlwuK4yEjKcB7Ci1JKcOQpajzYYyswoZyy8klFRLMmoSSTOigFdqwXw9lgixhMxRq0sf3ramw1llnz17NfEkbYoNu9uBxHhzmurUFtTOGZ7s/LDCQe7kUrEke+xv0qqgAxjZ/gKIuZLbXuCwT3eSMj8SaHX/rcDkbiKcCyN1/Z0SJcfiXBvp6V2w2Fi+wkAKRUynAl2t0tbb8k0oZ6AHEVMhrETGIayuWd4FE52Wqvou/PaKhT78lDsy8Nd11VLlx+Jvh45TwAAw9iJLMZJSUAkaO2gYm1NIR6/V7wbMis/EqGT2UuAyESsQIIjiEX6ZKjJCvFISIoelpQAKcSjF04CkolY1myJJKBfhqH4BfQEJONyEkCA4aqjSALsLV0OEe+PyFCTFVIJKd85QE4CSEoC0gPjcgzXEhJ9lZAA1qUMCVQ1LSSXyamCqG5NlXR4ntgwdoYJYKJPZfgyvIx8NHYdytw1DjsbkkJyrMvZLiUmw5M0AjNhSDmOo6liH+qFt/pxokdOAM6ktVdD/dti/dDcW78pxaYOtp8A0nUpCdAFN+ETAzp+vrkPfXFpFWsIxXT826Yg4gPG76B5C+/BvIX3yDGsOOwnwEW8H4NXvtji776zHHkusaKxrrCGR/47iONd9p+EEz0qVm4IojtsnFCpwQd0V3rAsM7eMAGDlx2R2E7KGFw250bc99hqTKq6SEi+N6rhiZdD2Nko9t4eiXc/SWLlS0F0R4w7VcnBBwMfFU0u6jWSE5sJM79j2yMA/vLJ+O6K1bhy3s1C8okBHb96PYxodwpqSvyVpCZ1RLtSeGZ7GMlsv3aGIEAoZkIJ0BU5CQAAZ54LN9/7T1j09w8Lv5K0lI7+7hQigSQSfWmoSR26xoMvRgZ0jaGmdCT60ogEkujvSUEbEEtYJoIPAASxmAmVJibT3h1eZzIs8zjSZXNuRMWU6dj267XCBVG6ykhFVaSickZJmQo+QOGY6nlXRFLoCRg8dKD/3p5T52L2lSSTzAUfAOFV0YMawsW5OpQNCnipda9GcWDolVR98Rex49V6AMDUtBPXx92YG3dhsupEMqgi6Tf3rXf3OrCltQxtThXveVPY5U2iJW+wM85o8AGQjg3CsqKCzKwEOxNHAVxsySsBwtv/BPeLr6Cy5ewTM/x9oL94ABrE3usOJhSE80H1Z/yRCO1TJ+HgosvxlQdsHe0dEwI+K6nwXEokVksivB9ARDqB11p3bXQcJzpQuOwpTHvi+XOCDwB0glBQ6BI6YkoEFBTmg5qH/Qczqpu6sfD5P6PwB/8KR7OkCrjhMK8RDT5gsuBq6FqC45B0SgaqBk/9K/Cs3wSMtVRRA2AlQQvpiMZSo08LCSgsyIdjggKsZmCMbWh2uZB88B4klt4NWyV3Z9Pm7/dMN3N9gakdsSHFvzTt1ki6QhEUPfAv8NT/buzgA4OB7AYcJQoK/fmgEQJGCqHQPxT8LowZfACggQF4ntuAwmU/BUXlbMAwYY3ZuyNMb0mm2PMCgGaz7c4y2tGNovtXwXnAuFLuNEPnTRxeBUUVbuT7nFAcBMVByC9woKjCDYd36OPsEl85yXvvAIqWrILSbe+AOAPHoglPvbHk2Vh69oKB2EIGbbfSlkIRFN2/Co4T7eYa5gF4kgCjmUgfA08BMDlV0KZUIfrrp6H7rU11CHybv9L3htl2ljbl/ZW+NwnYarqhqqJw+VPmgw8AaQC/YYw5EGIAL5Hp4AODA4GCFb8ArGzGEF6zEnzATlUE00MgmNpp9677DZwNNopfPwXwB4zcCTOA3wM4bH3h1nmgAZ4XXzbbLATN+pU1trr/YGfsNmbaKqLHcfg4ir/zY0CXsOc4g4Bb+PP7d5sI2MGAjMJmh4Lwy89Au3SqoSgGz5x8Y2KV1/K9GbbHX70d8f8QuRu0aMlPzHW640j6mjpEX3jKWJDwq9IK7yN2bNkuzPLHPCvB2DuWjPNA4wUTfGBwZCTwqtzt7/U8bteW7QTQDEqRO7kIjFHP9rg3vmnXTNbJf2WsQR41ONX0YppJYpUGYyClNNHv94dZw9cBnHtrlKoi7933ZZjJKq4de4D0iKU0bcRYJOsWXWm1oRNrvO26rtwK4KzF/bwPG0AJ69uK4wUlknAePGdPvUXXlAUyb1WXWpw7qdp9RHfyXAAHT/3N+eGF8+4fTt6+j8/4FzdCx3WTJrul1EmdQnp19KRJvoBTTd90qmPO2KpjFjhjwrjbMZC+Tva90UCGytOLa4qD/krPDQw8rbRIOu4zDijN7QBjnT/o+dqEKRPkHBoYbiMTSgGAiNSJld7H1dm1P2N/ibwqqyyhl05g9UuzflFa5f2hjNHOaGTlJ0xi6zbVud7a+7pz30E5+wgZRv3KlW2p+dd8veBHdx80lrZHVn/EJ7XqP59w7nz/SaW53ZVNu6JokyvT6euv+rnnmRUC02A5ZP1nrHrXbS/yfXJwfd57+xcr3UFJlxDYQy+fqKlz6zaHr5yztGzZTdJOZ4gwbj/kxk9vKRxoPvKcc9/H9yqtgXF5IrSLqge0q2e97PKVL6O1/5C9g2FnMO4/ZQgAieVrljhOdD7qbPj0ixRLZNQn9nlYrZt5TP3CtGc9P3vwWTMb6JngvEjAKXrXbS/ythx7yNEauMtxrPUypb3TbXv5WiFokyuT+iU1DVp1+eb4lOnPlT686Lw5sHZeJWA4iTWvTuOu7rsdnT3zkEhMd0QSFRTqK6BE0olkykHJFAEAu/MZ7nyNPW5VL53QzwW+AHvcn2llJXtpUtkmz0++3TzOHyVHjhw5cuTIkSNHjhw5TvN/rRRHYDYxbZ4AAAAASUVORK5CYII=;" parent="1" vertex="1">
          <mxGeometry x="-203" y="474" width="80" height="80" as="geometry" />
        </mxCell>
        <mxCell id="RAJVKOpdcDavsLiYcgov-71" value="Baixar app" style="edgeLabel;html=1;align=center;verticalAlign=middle;resizable=0;points=[];" parent="1" vertex="1" connectable="0">
          <mxGeometry x="-93" y="380" as="geometry" />
        </mxCell>
        <mxCell id="L-sPylKmDmo3-dS7Oe-S-7" style="edgeStyle=orthogonalEdgeStyle;rounded=0;orthogonalLoop=1;jettySize=auto;html=1;exitX=1;exitY=0.5;exitDx=0;exitDy=0;entryX=0;entryY=0.5;entryDx=0;entryDy=0;" parent="1" source="RAJVKOpdcDavsLiYcgov-72" target="L-sPylKmDmo3-dS7Oe-S-6" edge="1">
          <mxGeometry relative="1" as="geometry">
            <mxPoint x="137" y="420" as="targetPoint" />
          </mxGeometry>
        </mxCell>
        <mxCell id="RAJVKOpdcDavsLiYcgov-72" value="" style="shape=image;verticalLabelPosition=bottom;labelBackgroundColor=#ffffff;verticalAlign=top;aspect=fixed;imageAspect=0;image=data:image/png,iVBORw0KGgoAAAANSUhEUgAAAGAAAABgCAYAAADimHc4AAAABmJLR0QA/wD/AP+gvaeTAAAJ9UlEQVR4nO2cf3CT9R3H35+HpJRCyw/FbaJCOaTUpilM6Jg6CEPZbjpP3dwfeugfOne73SzMpnWnp3WioJwT2Lmp551He+xUFD1ARRGatPJLVksT0rRNUlqRpj+UlvVX2iTPZ3+EYmUtTfJ8nyc/yOvPJN/P95P3q/nxfPrkAVKkSJEiRYoUKVKkSHG5QdEuvOPj9+5eMLV33Z+ur79CYnm3NBR4MTt7S4/I5i4HpGgXEvPLnr5pK15x5QZlif4YSNd7PO3mIuZ7J4lsMNmJWgCA6wDA05dpfKUp9zRAxIwtnvZ5dldb6S8E9Zf0KBFw4e3L05eV/4/G3A4GdQPIJZL3ubzmPU0dj89X3mJyo0TA9zg1kLlolAQQcIckB53utpKtDV0lmaL2STaECQBCErY15XYwcPb8TWkgflQX4AZ3W8kjzGVC90sGhAfS0p+5aFvTDZ2jJADA1SB+zdPef8zdUXqT6D0TGVX+Ilv6MxdtazR0XSQBAJZClj/3eM3veNpKr1Nj70RDtbeEloGpOdsaDV0y/58EYuBekFzv8paUnTpVlq5WD4mAqu/JLQNTc7a58r4ZQwIYmErgp4Pp/U1ur/kBNfuIZ1T/UGztn7ZwPAnnuRbAdrfXfLC5o9iodj/xhibfSlr7py38e0N+D4M6L/GwVbJMtW5vcbm7vfgqLfqKBzT7WnjGlzH/JaehjyF1XLofWgtQo8dbUupwlKVp1V+s0PR7eUhCXv8EEgDGDAZvmjxrwO7xFt+uUXsxQfMDozO+jPmbnYaBCSUAAHghg/a628z7Xd7HblC/O+2JyZGp1zcle7PTMMBMYUgAQLiVIJ1wt5Vs9Zwtna5ye5oSs9GA1zcle3NDfvgSAD2IH+UhOanG3jGdzYQk5A0yqD2CZVeExt7Zx5vaHluhWnMaEfPhmNc3dd6LDUZfhBIA8BKJJKvLa95zyvv4PFWa04CYCwCA9sH0eS86DUORSwiNvYMIOlzekrK2trIMNfpTk7gQAADtvoy5G+uNgSDT11EszyDw0wNSaKzBHP3/urUmbgQAQNdQ+jUvOI2IUgLAmANgu6fdfMzVUfxTsd2pQ1wJAEISNjmNJDOdVlBmGcl0yO0tLj/Vaf6hsOZUIO4EAMA3Q+lzNjqNkkIJBNBaOQh3PI+941IAEJLwfH3BpKAMJRJGjb377C6v+V5R/YkibgUAwLfDk6/e6FysWEIIWkDAO26v+YCnvTRfeT0xxLUA4DsJskxfCSr5c2b5S3e7+TWX96+zBdWMmrgXAIQkPOcs0AmUoAPjEUKg0dNuLqrkMp2guhGTEAIA4Ozw5KufdxboZBYmAQBmMmPLte39tV3235oE1g2bhBEAhF4JGxwF+iCjVWTdzO7WvhnfNn7qt+TvH7IackXWnoiEEgAA3f7JP3rWsWRKgKlZRL3M7tajszqdNwLQA7hVYqrzW4xb+eiCLBH1JyLhBADAOX/aVRsci6cFWPIoqZPV03pkVqdzKULhj6AH+NGAL90zbDUW8Tvqjr0TUgBwQUJWtBKyelqPzOxwLgMwzgcwXUnMWwJXNXzhtxh/pqDVS5KwAgDgnF8/e4NjcZZfltyRrMvqnij87/FjgKv8FuOewcrF86Jq9BIktAAgJOG5+sXTw5WQ1d16ZGZn2OGPgu/QUdDhr8zfxJV506JodUwSXgAQkvBsfcGM4eClJWR1t0QZ/gUyQCgNkNQQsBqFjL2TQgAA9PrTrtzgHF9CVnfL4ZmdDUrCH80cZt4esBqODlcalysplDQCgFESZHKNvv18+IUQE/4oqJCIDw1bjOVcmRfV2DupBADnJTiWzBqRMONs89GZnQ3LITz8C0gEXhsgyRmw5v8q4sVqdBRregP6KzY4lsyacrpl3/SupkJo8zxnMOMt5sj2SkoBAFC477Dzv+ubCnmYFB2sRYiDCHIkC5JSwOrPrJ+vPlB1U6APs5r/Js2Wh6lJ/V1pl86f9stIVyWdgNv2W6pXH6i6Ceefm7+XZzQ/RT+QfahXactGItyuN9l+Q7fVnIt0cVIJuG2/pXrVweqbcdHzCgxienOZNEewhG4QHtfNlo26lfaPoi2SNALWfDp2+COMSGAfHAq3ChDwuk7S5ehX2l+gPMewkmJJIWDNp5ZqU+X44Y8QGMR0T5l0jQIJB2WJb9SZ7H+gFbVdUdb4HgkvINzwRwgMYrr7aelaOQIJBLgJ+J3eZF89ecVJW9TNjkFCC1iz72C1qbL6FkT4PII+ZHnCk9APpmcmcW++zmTfGX2n45OwAtZ8fKDaZD10C6K85tEoCSfHuJsZVKFjeYF+la2MVrX4lHU7PgkpYM3HB6pNVYejDn+EoA9Z7jKae5GE4wBuTjPZHqBVjojP1o6UhBPw6z2fHBIR/gjyIGW6y2huoJcqCXSfbqX9J3qT/YiI2uEQs/NhouHO3fusy48cXym47CAP0j9bi33PLWps7BVce0ISRsCdH3xkXX6sRnT4ewNEf15y4kSL4LphkxAC7vrgI2uhwPAZqIUsrzPa7VWiakZL3H8G3PX+h+LCZ/4WzOsaFi5cFg/hA3H+Crjr/Q+thV98KSJ8P4B/Den1Ty2tqTkHm9BjKUXErYC7d+21Ljteqzx85s+kSZOK8mpr1ZqGKiIuBdyza691qcLwCWhior/k19V9KKovNYg7Affs2m1derxOSfg9DGySAoGXDQ5lk0otiCsBCsOXAeyQmYsLbLZLXZcorogbAfe8u9u6tCbq8CtJktYbamvrhDalAXEhQEH4p4n5SYPNVi68KY2IuYD7/v2exWCvN0W4bABEm6f19GzKblFvUqkFMRVw/453LXknnaYIljAB75JOV5xXUyPyp0oxI2YCIg6f+T+QpCLDiROH1etKe2IiYO2OnZbckw2mcB7LQBuInsmvq3uDENlJT4mA5gLur9hpya0PK/xhAK+m+XxPxmJMrBWaClhb/rYl19lkCuOhe1mWi4x2u5Af4sUzmgkIK3xmJxGtN9TVfaJNV7FHk3H0AxUThn8WzOucOTn5l1P4gAavgAfL37bkjB++n4A39TrdEzk1Nd/E05hYK1QV8OD2tyw5DS7TmHcyfyYD6wtstrFOC7lsUEUAMfNDb1RUzW9uNY1xt4uJnjDW1alyolOiIVwAMfPDb+yoym5uvXi20weil9L7+jZe73YPid43UREqIBR+xcXhywB2IBg05588Ge5Vci8bhAkgZn749Yrq7Jbvwmfg2CTmojyb7ZiofZINIQJGhT9yKeGvifkJg81WQQCL2CNZUXwcQMz8yOvlI+EPgOiZ3oyMhQabrTwV/sQoeQX0E3PG7199s2ruV2dWELBTkiTzDbW1Qi+mlOxELYCZNj305o6b5311hkB0S7KNiVOkSJEiRYoUKVKkSJFCLf4HtGNbrNDAX48AAAAASUVORK5CYII=;" parent="1" vertex="1">
          <mxGeometry x="13" y="380" width="40" height="40" as="geometry" />
        </mxCell>
        <mxCell id="RAJVKOpdcDavsLiYcgov-80" style="edgeStyle=orthogonalEdgeStyle;rounded=0;orthogonalLoop=1;jettySize=auto;html=1;exitX=1;exitY=0.5;exitDx=0;exitDy=0;entryX=0;entryY=0.25;entryDx=0;entryDy=0;" parent="1" source="RAJVKOpdcDavsLiYcgov-73" target="RAJVKOpdcDavsLiYcgov-79" edge="1">
          <mxGeometry relative="1" as="geometry">
            <Array as="points">
              <mxPoint x="115" y="360" />
              <mxPoint x="115" y="348" />
            </Array>
          </mxGeometry>
        </mxCell>
        <mxCell id="RAJVKOpdcDavsLiYcgov-82" value="Entrar" style="edgeLabel;html=1;align=center;verticalAlign=middle;resizable=0;points=[];" parent="RAJVKOpdcDavsLiYcgov-80" vertex="1" connectable="0">
          <mxGeometry x="-0.2702" y="-1" relative="1" as="geometry">
            <mxPoint x="-16" y="9" as="offset" />
          </mxGeometry>
        </mxCell>
        <mxCell id="RAJVKOpdcDavsLiYcgov-73" value="" style="shape=image;verticalLabelPosition=bottom;labelBackgroundColor=#ffffff;verticalAlign=top;aspect=fixed;imageAspect=0;image=data:image/png,iVBORw0KGgoAAAANSUhEUgAAAGAAAABgCAYAAADimHc4AAAABmJLR0QA/wD/AP+gvaeTAAANLUlEQVR4nO2de3gU1RXAf3dmH9nNbngEEJIoQRAREYFWMKBtlVZaPqSWouKr2oqloIZi0a+2tVVbaysWNYI0SkVbbfv5AqNWLRXbItiKLYJGBUPCI4LII2SzyWZfc/vHgjwyYWdnZ2YJ3d/35Z/sveeePWfmnnOfC3ny5MmTJ0+ePHny5Pl/Q+RagaMxcFFLnyRiJMhTBZxK6q8PkkKgB1C4v2gr0ISgFclOBBuRfIgUG9SkXFtXGdyVq++QjmPKASXV0u+Jt3xFCHE+CuchGUb2OkrgXSF4XUq5It4eXN54k4hYoK4l5N4Bt0vl5N4tY6UQVwHTgCKbWwyBfB7J0w29g3/hEpG0ub2jkjMHlC+RBUpb+DtSiLkgB+RIjXohuFeJBx6tqxTRXCjguANKqqXfm2idhZA3Af2cbr8TdgjEve1q4W+3zxBtTjbsqAMGLAxdiFCqQJY72a5hBI1ozGm4PviMc006QPmipnIh3Q+CnOREexZQI1TXjfUzfFvtbsh2B5Q/FLpIIB4llTZ2JUIIrmuYGXzKzkZsc8CgKulNquF7EFTa1YZDPKwmApV2BWlbHFC6IFTsUcSLwNl2yM8Bq+IebXLj9G57rRZsuQNOfLC1xOXSXkFyhtWyc8wHilQnbLrev81KoZY6oLw6NEQkxV+BE62UewyxFeQFDbOKNlgl0DIHlC1qK3XLxCoQ/a2SeSwi4GOpucY13ODbYoU8xQohpQtCxW6ZXH68Gx9AQqlQEn8pW9zc0wp5WTtgUJX07g+4p1mgT5dAwlBXTHlhUJX0ZisrawckXeHfkINsp8AFlw91M3OUh54+56e0BIxNquF7LJBjngELW6YieDpbJTLlSyep3PkFL2XB1PPz4R6Nyc+0kdCc1gSE5Jv11wefM1vf9BtQvqipHMFis/XNMqRY4ZGJvs+Mf+B/V5/hdloVAKTgdwMWREzHPtMOENJdBXQzW98sg3sqqDrvbeXnPRTnoCsCuqMmHjBb2ZQDyh8KXQTyQrONZsPKbUlaYrLD/4MewdwxnhxoBEi+PmBhyJQ9MnZASbX0C7jfTGNW0NQuqXo7pvvZxUPcDO9jSWadOUJ5oGy+9GVaLWNtvcmW63Od7z/2bpyP9naMuIqAn57jzdEynxzgKmidkWmtjByQynvF9zNtxGqSGty5Sn9yctQJKhee4nJYoxQCeUv5ElmQSZ2MHKCp4WuBkoy0sgAB3Pg5D89M8TH7LA9+t2BVY5IVWxK65X94the/OyfvQT/aw1dnUsG4A26XSmoB3XkuG+pmzmgPo05Qmf15D3+7zM8XTlT5xaoYcZ3cv29A8L2RuUlLkdyMlIa9b9gB/XuHv5iL3QvdvYIfHJHd9C0UPDShgF1tkiXr9QPydSM8nFjkfEAWMHDAwvC5Rssb1lCk9u04zpzRHnoUdHygfG5BgQsW/CfOrraOaalXhR9V5CgtVTBsK0MOKJsvfQI5xbxG5vC54K3tST4JdzTw8oYEeyKScEwy79/6b8GEk11UlKp2q6nHJUZTUkMOcHlaLiAHo97FE31MG+rmu69EeODtGNH9e9hiSfjVmweN/uyHcdZ9qr/B7fZzvajO90RFnoLQ+UYKGlJNCGFImJVMHJh6eseVqTw3xU83r2Dy020s3ZjgkXdibG4+GH0lcOcbMTq+J3BKD4XLhzofkKUU5xkpZ+zZUDAkzCoKXHBrxcGpdpcC15zh5vELfbxan+C+NR27nLU7kyzbqJ+WdhZHbEWI8UaKpXXAwEUtffbvUnaMGSM9lAY7GqxvYSrwanqPOnD36ihhnXmi7l7B989yPCAPH1wd6pWuUFoHpPbnOze67xcQfHeEvrH++0mSFz7Sf8oBdkcki9bGdT+7/HQ3Q4odDQZKIqmMSFsovRx5qhXaGOUnY734dGYSNAl3vBHV7ecPZfER8eEAqoDbxmW9gpgR0oDt0jpg/8kUR6goVfnaQP15nD9/EOfdXemXvOIa3P2mflpaUary1ZMdnSfK3gFIBluiShqO9oQ2RyXz39I3qh7LGxL8Y6t+WnrbOP03zCYscAD0tUCRtFw5rPM++oE1MfZG0nU+h3PX6qjuGnG/gODaMx0LyGltZ+BZkEEzMfj8/i5+ek76LxqOwaxX25ndSZby0V6NSAL+foU/o/Zv+2eUJ2rjXKOzVvy9kW6e2RBnzlkexpSkHynPXRHl7R1mTjKJYLoSBhyQXogehW44ycBk2F2ro1w3wk13r76T56+Jcce5Xvr4M3sIbhvn5dJlESYPcnXYtuJ3C24928vv1seYOsSd9vEy32XJtLYz0gUFzDafjromjTU7kkzrZKT6an2C04qVjI0PMKiHwlcGuDqNHZNOcRGOwUt1nae1FmCJA2zjjjei/KjCq7vLoT0Bi9fFmX6m+WmEm0Z7qKlL8P7uw4NB7W6NacsihGOp4K63puAURhwQtqPhlzcl6OkTjO6kD374nRiXnubKamWrj19w7ZlufrYyNX7YF5X8fFWUi5e2May3wmuX+xldovJkrf7gzQJa0hUwEoRbQGS8EXVfVPJeJ3m7JuG+NTEen6Q/Y7sjLFm2McH9Xy7oVIZRKkpUHnknzi0r2lm+OUlFicorl/o/i083j/EwdWmEEX0UXIq+s8PGM+AjEFY4IL0QPVZuS7JyW+cnPueM9tAvoP+F734zyuZmjYuete7E6LMbEjzytQLGlx/+lYt9gqtOdzPlOTsOz8u0tjPSBX1igSaHcVKR0ul8z9s7krYFxvd2679NV5/hZnBPW8JhWtulb1Ww0RJVDuHWCg9ena4/Kfmsv7aDh9fG2K6zuqYqcOlptqwZpD1Jk9YB0oCQTBhbpjKhk/mYP9XG+WCPfSlJJJGasj6UpvZUYP7lalsOQWbvABCWOUBV4Gfn6M/37ItK3YUWq3lpU4J/b08S11Jp7sSn2ujlE6yfHqBmqp/ybtZ1RcKA7dIGYVdc/jfpQmLBmkAvn9BdMAG4760YTe12dT6H8+N/pJ72IcUKS6f46bs/GRjWW+HJyT4mPd1mhS5aVNPWpiuU1t11lcFdCN7LVhuPCqP6qkx9LsLcFe18eshWkg17NP74vm25eAfq92kUumHBBQWfGf8A/QKCW63ZzrLu4xuK9qQrZGxRHlZkq82oE1QWXlDAE5N91O7WGP/HNqrXxoglUyPipMOj0aJO5p4AvjHYTa9szxpIachmhhwgDQo7GuPKUmlPRanKi1P93Hy2h9+ujXPuE638a7vzdya9u0vrdApCVeBL/bNbNBCqap0D4u3B5UBzNgqNLTuYd6oKfGuYmycn+9jrUL9/JKGoPOoUxLDeWQXj5lib/3UjBQ210niTiEgpnjWrTdAjGN778MS/sUVj5qvtjnc9hzLvX9FOlzn7FWbRBQmeMnovnXE3K/IPZvUZU6IetjttS3NqNnJbKIfWJzUuuKImwgs6I29XNi+ANG4rw81s3hn4J1BvRp9xh3Q/m/ZpTHs+ojsizQXhmGT28nYql7fTHD2o0z7z47K6hpnBN4wWzuB8gNCE4F4zGh3o/zfu1bhsWYSdrceG8Q/lxboEV9ZEiOx/GTbqHIEyyDyEMPwFM3rRlHjgUWB7JnVOKBQM6qFQu1vjsucj7M5wcd1JandrPLY+tcf0bw0mJgQFjWoi8HgmVTJyQF2liCLE/EzqjClRWf9pkitrIo6NdLOhpi7By5sSbNqX+RsgYV6mN2tlHOpLqqXfm2ytNXrzYTevIK5BW/zYN342SNiELzBs87dFeyb1Mo7122eINg0xy2j55qg87o0PoKDNztT4qXom2DKr8GWgxkzd4xEhWVo/q9tLZuqavytCdd0I7DNb/ziiSaDONlvZtAPqZ/i2CiGvAtsWsLoCUhPy2mwu8stqwqN+ZtGLSB7MRkZXRgp5/5aZRUuzkZH18o+aDNwiYXW2crogKwuLgz/MVkjWDqirFFFFjU8E1mUrq6sgoTbu0S6qvURkvYaav7YyUwSNQnGNs+pib8tWoBtn+j8GJgC23zieQ7aKpBxv5a3qlh++61/d2k9Jaq8Aw62WnUsEvC+k+lWrry62fDvYlhmFO+Ie7bzjLDCvTJA8x2rjg03b0xund9tb/mngiwLxa7r2OEEiqfL3Cnx566zuTXY0YP8POCwIfV0oYgld8QccYHrDrKCt96LafkBj8w1Fz6O5RtKF5o6EZKki1WF2Gx8c/hGfkxeFJkmpVOXwZ6vSUS/QKs1OrJnB8YvVyuZLn6ugdYaCnCuh1On2dRE0Sk3ci7+w2syUcnZN54hBVdKbcIevQXKzgIE5UqMOmOfvFXjMilGtGXL/U4bAwIdaP6dJ7VsIrgCKbW6uGWSNQPl9/czC1zJZQLeDY8IBByhfIguUSGi8JsR4kbrwaDjZJwoasA7k60JRX9O8/hVOdzNH45hywJEMrg71iktlJJocjGQIcCqCPqTO33bn4BnmMKnFoRZgJ5KNCD4UiA1RTVtrZJdynjx58uTJkydPnjx58jjF/wDMq2M3bgkjxAAAAABJRU5ErkJggg==;" parent="1" vertex="1">
          <mxGeometry x="13" y="340" width="40" height="40" as="geometry" />
        </mxCell>
        <mxCell id="RAJVKOpdcDavsLiYcgov-90" style="edgeStyle=orthogonalEdgeStyle;rounded=0;orthogonalLoop=1;jettySize=auto;html=1;exitX=0;exitY=0.75;exitDx=0;exitDy=0;" parent="1" source="RAJVKOpdcDavsLiYcgov-76" target="RAJVKOpdcDavsLiYcgov-83" edge="1">
          <mxGeometry relative="1" as="geometry">
            <Array as="points">
              <mxPoint x="507" y="294" />
              <mxPoint x="507" y="340" />
              <mxPoint x="383" y="340" />
            </Array>
          </mxGeometry>
        </mxCell>
        <mxCell id="RAJVKOpdcDavsLiYcgov-91" value="Visualizar calendário e dicas" style="edgeLabel;html=1;align=center;verticalAlign=middle;resizable=0;points=[];" parent="RAJVKOpdcDavsLiYcgov-90" vertex="1" connectable="0">
          <mxGeometry x="0.2552" y="-1" relative="1" as="geometry">
            <mxPoint x="16.83" y="11" as="offset" />
          </mxGeometry>
        </mxCell>
        <mxCell id="RAJVKOpdcDavsLiYcgov-76" value="Tela com questionário" style="shape=image;verticalLabelPosition=bottom;labelBackgroundColor=#ffffff;verticalAlign=top;aspect=fixed;imageAspect=0;image=data:image/png,iVBORw0KGgoAAAANSUhEUgAAAGAAAABgCAYAAADimHc4AAAABmJLR0QA/wD/AP+gvaeTAAACyElEQVR4nO3dsWtTURzF8XNfSgdtogUxTupsxUWl4CAIJlJC6ZTu1jq4OEjBP0KKdHCRVlczSdHQmgputQ4JCEHX4lKwltBEHcxLrkMpiE0Kpbm/k+r5jEnpeX1fXpIueYCIiIiIiPxvnPXg1VvjIxHcNOAyAM4DOG59DH/5AWDdOZS8w/yHpcVPluNmAUby+cFkvTnr4e8BSFjtHlALHk/irfRMufy0aTFoEmAknx8cqv8qArhpsXd4biX+djpnESEKPQAAyXpzFkfm5AOAzwyc+vrIYin4FbDzmh99RP++7HQTu1Z0ae3ty88hR4JfARESd3H0Tj4ADLQTfjr4SOgBwGc6PXrx8jXkJm8jmRoOfwj7aNRrKBaeoVp5v+e5CD4bet/iPeBspwf74eQDQDI1jNzkVMfnPHAu9L5FgKFOD/bDyd+VPNH1WJKht00+BUl3CkCmAGQKQKYAZApApgBkCkCmAGQKQKYAZApApgBkCkCmAGQKQKYAZApApgBkCkCmAGQKQKYAZApApgBkCkCmAGQKQKYAZApApgBkCkCmAGQKQKYAZApApgBkCkCmAGQKQKYAZApApgBkCkCmAGQKQKYAZApApgBkCkCmAGQKQKYAZApApgBkCkCmAGS0AI16jTW9R2Obdyy0AMXCc+ofvquxXcPrwgJt3+Db0zurVlZRrayy5vuG3gPIFIBMAcgs3gMa6MH38N8YGz/Qz79benXYSQCo9+KX7MfiCvhisBGEMzj24AGcQyn0RijeYTn0RvAA3mEeQCv0TgBx1G4H/wfB5E56o9mJOTjct9jqFefweG158UHoHZNPQfFWegZwKxZbPeFQam6mH1pMmdxgbWOj3D5z8vqL6NjPFIAr6N+Pv7FzmIs301P/1M08/zQ6NnHBt92dCD7rd25n2/E2V4a+O2Ddw79xrcRC6FsXioiIiIiI/AZRsIuCVhjmigAAAABJRU5ErkJggg==;" parent="1" vertex="1">
          <mxGeometry x="557" y="250" width="58" height="58" as="geometry" />
        </mxCell>
        <mxCell id="RAJVKOpdcDavsLiYcgov-89" style="edgeStyle=orthogonalEdgeStyle;rounded=0;orthogonalLoop=1;jettySize=auto;html=1;exitX=1;exitY=0.5;exitDx=0;exitDy=0;entryX=-0.001;entryY=0.144;entryDx=0;entryDy=0;entryPerimeter=0;" parent="1" source="RAJVKOpdcDavsLiYcgov-79" target="RAJVKOpdcDavsLiYcgov-83" edge="1">
          <mxGeometry relative="1" as="geometry" />
        </mxCell>
        <mxCell id="RAJVKOpdcDavsLiYcgov-92" value="Visualizar calendário e dicas" style="edgeLabel;html=1;align=center;verticalAlign=middle;resizable=0;points=[];" parent="RAJVKOpdcDavsLiYcgov-89" vertex="1" connectable="0">
          <mxGeometry x="0.1206" relative="1" as="geometry">
            <mxPoint x="18.2" y="-48.25" as="offset" />
          </mxGeometry>
        </mxCell>
        <mxCell id="RAJVKOpdcDavsLiYcgov-79" value="Email pessoal" style="shape=image;verticalLabelPosition=bottom;labelBackgroundColor=#ffffff;verticalAlign=top;aspect=fixed;imageAspect=0;image=data:image/png,iVBORw0KGgoAAAANSUhEUgAAAGAAAABgCAYAAADimHc4AAAABmJLR0QA/wD/AP+gvaeTAAAOGElEQVR4nO2dfXBc1XXAf+e9lWVJu7KxsU2MP7RrYTx1P/gIQ4khdUIJDSmUNLXjtngmaUJsSaAAGQieToibphNPPQODjCQrCaGkDgxqSFpoSYBJoCGhMLSQOrjBjeWVvwj+wpZ2ZdnWvnv6x8qJLfTue2/3rWTS/c34H79zzz16592vc8+9C1WqVKlSpUqVKlWqVKlSpcr/J2SyDQhDc4fWak3uvUblIoTfQlmEMBfDbIQpwDlAAcgBR4BBICewD3Qr6FbcKT/buaZu92T+HeNx1jpgQdfRTILEjYpeD/w+MDUGtW8DPxDR7xfUfHd36/QjMegsi7PKAc0dWuu5Qx9H9NPAlVTWvhPAvxqlc1db6rkK1mPlrHDAvHu1rqZuqBXVO4C5k2DCa4L5ws7Waf820RVPrgNUJdM1tEpFNwALJtUWQOA5RVuyrY3bJ7DOyaGp+0iTmMRXEa6ZLBt8OK6qX+xvTW1ERCtd2aQ4INOd/0tV3QwkS1QxAmRBjoAeBY6qYARqUKZTnBU1ATNLtVFVnyrU6uq9n572dqk6wjChDli+XhP9s/MdAi0Rix4DngR+ophXqGv8af8n5XhQoaWdB5LDTL1IhSvAuQr0GqLNpn6OSXw4e0vdroj2hmbCHHDhgwdTJ0/U9oL8UYRiz6vqw7VTTzy+/VOzcnHYMHKy7gZVXQNcFaqQsNcUvPfvunV6ttz6x1c/ATR3HG70ErXPgF4eroS8DObObGvjC5WyaVH34DJP5UsCHwxhT7bgyZV7bm14M247Ku6AORvfaqhvaHgaWBZC/Jeq3N7fmuydiAEQIN2dX43qvcC5dkl5Wesalofp+qLgxKnsHfSqW9/Q8AhhXr7wA2rk4v621GMT9fIBsi3Jf3TUvUSEV+2SerkM5++Pu/6KOiB9KLcBuCFATEX5m+zM5LXZm5P7K2mPH31t9XuOO8mrgCcCRD+T6R784zjrrlgXlO4avAHknwPqUFFu2dmW6qqUHVEohkLyT9rWJgL76nR4yba22fk46qxIC5i/aWguyEMEvHwVbjtbXj7AjnY5cSKRvBHhZ34yCucPUf/XcdVZEQfUuKYTmBEgdk9/S6qjEvWXw5tr5JgxfBxkyE9GRD/b1Jk/L476YnfAwu7BjyrcaJMR9HvZluTfxV13XOxqS/0c9PMWkToRc2ccdcU6Bizt1SnHDuW3Ac2WCvc5BS7e0Z46WE5dzR1aa9zcZUZYJipzEZ2hiAMMCBxBZbvj6Kvz9yffeH69FKLqX75eE7tm518DfttH5KjWJd9T7rQ0Vgc0defaRbFO1Rzh6r6W1A9LrWNR19ClBrMW5M9BG0IUeRv4NuiWqAu7hV1DH3YwT/k9V2VVf1vqsSg6xxKbA0a/mD7sYeXHs62pPytF//xNQ3MTrrcB5CZKtFvhRVf0rr6Wxp+ELZPuzm1F+Z1x9ak+1d/W+JFSbDlFbGPA7llDK7C//BFxzLpSdKe7cisSrnkDZDVlfDQC7zMqL6Q7c/fP7dH6MGVU8Z2liciHFvYMvadUeyBGB6jo5+wCdO9cO+0X0ZSqNHXmvwI8BqRKt+4MBKG91su/ltmUH/fLPh2D9xjF8Pd4JBzPXF+OMbE4oKk7txy41CJScD13Y1S9mc1DG0T0biqzYFyMa94bJDS6cf/v/hIaJsblSywOEGVtgMi/7Giv3xtFZ6ZrcJ2q3lWGWSHQA6GkhCf9n8qV5ViQKKcwjC7fyV9nk3HEvx8dj0XduQ8a5W9DihuEH6uRHY7oXkXrQeZTjPfbN/g1EcoBjjgvqhq/x5n5m4bmlhqqLtsBZsqxqzGW/ll5o68l+VzYPbDFPYPnjnhsAdwAUQ/0PkcTHX2t9XvGPmzqzJ8nor+0akg4oYJ/dTPqtx47lD+Oz25aTcJcATweRtc7TCil0OmoMR+1CgjfiRJeLhTkywhBM4tDRlm5q63RN59HXObg+9EWMVOmhmoB21bKyXTn4OuIjDtmGKOLwugZj/LGgPXqANbwrKMaOtem+YHcUhU+FSA2osKKwGQqjzkBegYirWJFfLckpdjllURZDlg459jvAbag1OG+WamXw+rzHPkKQa1SZF1/S+r5QGXC7ACJUF//aQr7/U1iXjRdv6YsBzjGu8T2XIVnWCleGF1NPYNLQINWlTvrZzZsCmWcBLaAiA7Qd4wzv3oCk9MCcMTqAOClsKrEk9sD7RFZv22lnAylD3sLUIi0+6aqtqyMktMpy3OAim3xhai+FkZN00M6FVgVIDY4Mtzw7dCmqbHG60V4K6wuAEFsO2A1UXSdTskOWL5eE6C/axFRPeH57iydwVDuWqDRLiT/tPcOGQ5tYEALEEOkcLjaHVDyeyy54O5zcxmgzl9CdvXffs7RMLpEZEWQjCqhv/5RnfZB2InYBYnYwiET7wBFArbkNHyGsXB1gIRXO3U4dAi5WH28g7Cjnm12NvEOwLVOPwEN9YVlNg9cgH0qC7A1UmqiqijMssqYcPb9StyxTo9LDhaW7oDALyzcMh8THMzSCLMpgHkPDp4DTAlQGq0F4NgyuUs+6lTOLMg+yyDsLENsA/kpmf8Np6uIe8IJ6n5wzEi0WZBaWpSyL4quM+wotSBB82wJN8swqouDZERNX1ijACR4FXx8R/vMwSg6FfU9a6CCPehnoQwHqL2JGw01ZRSRC4JkXJWdIY0a1Rn3KhgU8Q0QCpPiAKwRTlX128Yby/lBAicdL1qsPWh80nAbMacjsNT/mU5KF2RX7GhwLk4xmmpZSxSZ5U6LlocZ1ALEidT/06suqF9+EKq8HknfaZTsABHHHuO3L1wAmNOwv47gKdzIf62RsK3pFEFxoEir4OYD+SWAbxbFiJMISG33p2QHGLV3QcZIYNJUMtkQJrGq5tIejRZrCV6ERWoBxlVL5oPu2ttSP/FdkGDv4wUNiO2AjJwMtSGSIzctrF3F7sI+tXU0YhzIiP8ZB5Fnouh6hy2lFhQNGvmdwJc2OhUM7N9PeuqbazqW9OH8x0Cb7KaFnwWluwYvRPA/22bUkjERTBmxoKCRX8NuUgTOcBxxLg6pC4wGZy2LhF65qjp34f+eDtfPSj0dVtd4lDEIq/3FiaRDquoPEjBKqHzSdFduhd/G+Rn6Cl6oMaW55+giEb3JX0IfDrtB5EcZg7BrbQGKZsLoEdHAm0oEli/qGrJu/izcdDQN4fKPHMcJzmLoVbfgud/EP6ZUwNSUfcCkZAdMSRhrppvAhWESYD3cME3YMZh/aO7IjRuPWdQ50Oy47tMEHjUtoqj1AAlA+lDu7wXe5/dclAfjOEFfVs5lujP3ln3Ro+8PzMlXlUx3fo+GWBGDZFXNl1xHnuprSR3I9AwvwIz8haqsI3BHbUy1yCf6W5MPj/3/5g6t9RL5DuAzluIDjrC4ryUVeUU9lvISs4SfAtf6PVblCsDuABHVzlw3wpeDK9S0iDxkFNJdOVWvIKV+Q4J+I92dW2YMjyYwezxxzheVy4zkbyPoY1Bp72tNlv3yocxQhIA150ccCXV4QRIjDxA9QBb05oMCZA7KzY7wQyPOLwSeR3RjYEtUvpVtS34zkqVWI8rAgP2okbJscc9gYL+8c82MARD7+YIICGw2jn6MgIBhCYp/5HrJoMy9SJTlgEQh+ZLtOCfgFgqyMoyubGtyi6p8oxx7ABS+s+BA8tZdaxv/A/S+cvWdpvjZY/mh63a0y4nYdFKmA3a0ywlEv2cVEtpQDdVRNx1sWIPSW6o9AptnuslVp05FznBTd1M8XVMOCrJxRiL5kf13nmf72Eqi7JMnTd25VaI8ahVy5EPZtclnQylUlczm3OdV5YuEvFxJYB/CZ3e2pN6ZIt6rbvpQfh1wD9ETqF4yjt5RbE2VoWwHzLtX62qm5vdiOxmv+p/Zg6nLWS8BCeO/JtMzvEALI+0Uc4bGO/w3gvAjQR9xRlLfCuoaRu+o+xywwjp1FvaifN9RfaivrfHFsPaWSixnrzJdufsUbguoanW2NbmlFP3NHcfmFWq8ZlFtFJxjeOyvm9OwvaQwQK+6TUdyF+CxRBhN3hIZRnhLxN0+0bfrxuOAnuEF6hV2YG/iBwuec1Elbp16NxPLlmTxq9FHAsRmJVzz8Og2ZJVRYnsZjia+QPF2Qxt/mJ6dP+tuSJlMYnNAX1v9HuDeEKJtTV25e+Kq991OrAegmzu01qvJv+J3t8IYvjrDTd5Swob7bxSxn0Bf+MDQJY5jXgRqA4WVZ0cc95PlbGq/26nInXGZ7sG/UpUHQ4oPKNzdf27ya2HPk/0mUbFL+zJd+Q1qv3VqLDtQ3eB6qS1xx1ugeH9pQ0P9SlSu39mW+tO49ZdK5S5uVZV0V74D4ZaIJY+oyndx6B3O539cTvwls3ngAjXOByjejnsdozeuiGMWR765pUJU9ubc4m7Xei3GYUqhAPy3wCtGNSuO9DvoPtQ9jhYGRkSN6yRS4pkUrtuIZ5pUWIKyBGEpvqcX9eZsa+PXS7QpVibk7uh0V/4m0G5Kv64+ZnRLtrVx9WRbAZW+uniUbGtyi7p6GegrE1FfMPIHk23BKSb2BxyKoeFWYD3B94pWFA9v0e7W6ZHOHVSCiY3LrBQv25raJO5IhuJ9QJPzM1LKGwnjlH1TTBxM6o/4zO3R+ikmv1qUTwCXV9oeEV5VI/fPSDQ8eraswM+Kn7GC0R9u08SfIOYaRa4ingG7IPCCQZ4wFJ44G7qcsZw1DjgDVVn4wECTm3CWGmWpwFJB5ik0KkyX4nw+STFtcGD03xHgsMD/qOrrgrv1eKJ+25trJChCW6VKlSpVqlSpUqVKlSpVqlSZMP4P8Vv2OR8EswIAAAAASUVORK5CYII=;" parent="1" vertex="1">
          <mxGeometry x="177" y="340" width="30" height="30" as="geometry" />
        </mxCell>
        <mxCell id="RAJVKOpdcDavsLiYcgov-94" style="edgeStyle=orthogonalEdgeStyle;rounded=0;orthogonalLoop=1;jettySize=auto;html=1;exitX=1;exitY=0.25;exitDx=0;exitDy=0;entryX=0;entryY=0.633;entryDx=0;entryDy=0;entryPerimeter=0;" parent="1" source="RAJVKOpdcDavsLiYcgov-83" target="RAJVKOpdcDavsLiYcgov-34" edge="1">
          <mxGeometry relative="1" as="geometry">
            <Array as="points">
              <mxPoint x="475" y="418" />
            </Array>
          </mxGeometry>
        </mxCell>
        <mxCell id="RAJVKOpdcDavsLiYcgov-96" value="Visualizar perfil" style="edgeLabel;html=1;align=center;verticalAlign=middle;resizable=0;points=[];" parent="RAJVKOpdcDavsLiYcgov-94" vertex="1" connectable="0">
          <mxGeometry x="-0.3256" y="-1" relative="1" as="geometry">
            <mxPoint x="16.869999999999997" y="-8.990000000000002" as="offset" />
          </mxGeometry>
        </mxCell>
        <mxCell id="RAJVKOpdcDavsLiYcgov-105" style="edgeStyle=orthogonalEdgeStyle;rounded=0;orthogonalLoop=1;jettySize=auto;html=1;entryX=0.5;entryY=0;entryDx=0;entryDy=0;exitX=0.935;exitY=0.994;exitDx=0;exitDy=0;exitPerimeter=0;" parent="1" source="RAJVKOpdcDavsLiYcgov-83" target="RAJVKOpdcDavsLiYcgov-15" edge="1">
          <mxGeometry relative="1" as="geometry">
            <mxPoint x="472" y="525" as="sourcePoint" />
            <Array as="points">
              <mxPoint x="466" y="525" />
              <mxPoint x="472" y="525" />
            </Array>
          </mxGeometry>
        </mxCell>
        <mxCell id="RAJVKOpdcDavsLiYcgov-107" value="Visualizar calendário" style="edgeLabel;html=1;align=center;verticalAlign=middle;resizable=0;points=[];" parent="RAJVKOpdcDavsLiYcgov-105" vertex="1" connectable="0">
          <mxGeometry x="0.513" y="2" relative="1" as="geometry">
            <mxPoint x="-2" y="-55.4" as="offset" />
          </mxGeometry>
        </mxCell>
        <mxCell id="RAJVKOpdcDavsLiYcgov-110" style="edgeStyle=orthogonalEdgeStyle;rounded=0;orthogonalLoop=1;jettySize=auto;html=1;exitX=0;exitY=1;exitDx=0;exitDy=0;entryX=0.5;entryY=0;entryDx=0;entryDy=0;" parent="1" source="RAJVKOpdcDavsLiYcgov-83" target="RAJVKOpdcDavsLiYcgov-49" edge="1">
          <mxGeometry relative="1" as="geometry">
            <Array as="points">
              <mxPoint x="267" y="525" />
              <mxPoint x="267" y="570" />
              <mxPoint x="296" y="570" />
            </Array>
          </mxGeometry>
        </mxCell>
        <mxCell id="RAJVKOpdcDavsLiYcgov-112" value="Sobre a fase" style="edgeLabel;html=1;align=center;verticalAlign=middle;resizable=0;points=[];" parent="RAJVKOpdcDavsLiYcgov-110" vertex="1" connectable="0">
          <mxGeometry x="0.3242" y="1" relative="1" as="geometry">
            <mxPoint x="-1" y="-21" as="offset" />
          </mxGeometry>
        </mxCell>
        <mxCell id="L-sPylKmDmo3-dS7Oe-S-46" style="edgeStyle=orthogonalEdgeStyle;rounded=0;orthogonalLoop=1;jettySize=auto;html=1;exitX=1;exitY=0.75;exitDx=0;exitDy=0;" parent="1" source="RAJVKOpdcDavsLiYcgov-83" edge="1">
          <mxGeometry relative="1" as="geometry">
            <mxPoint x="577" y="560" as="targetPoint" />
          </mxGeometry>
        </mxCell>
        <mxCell id="L-sPylKmDmo3-dS7Oe-S-47" value="Visualizar fase" style="edgeLabel;html=1;align=center;verticalAlign=middle;resizable=0;points=[];" parent="L-sPylKmDmo3-dS7Oe-S-46" vertex="1" connectable="0">
          <mxGeometry x="-0.3394" y="-4" relative="1" as="geometry">
            <mxPoint x="-12" y="-12.39" as="offset" />
          </mxGeometry>
        </mxCell>
        <mxCell id="RAJVKOpdcDavsLiYcgov-83" value="Tela principal" style="shape=image;verticalLabelPosition=bottom;labelBackgroundColor=#ffffff;verticalAlign=top;aspect=fixed;imageAspect=0;image=data:image/png,iVBORw0KGgoAAAANSUhEUgAAAGAAAABgCAYAAADimHc4AAAABmJLR0QA/wD/AP+gvaeTAAACyElEQVR4nO3dsWtTURzF8XNfSgdtogUxTupsxUWl4CAIJlJC6ZTu1jq4OEjBP0KKdHCRVlczSdHQmgputQ4JCEHX4lKwltBEHcxLrkMpiE0Kpbm/k+r5jEnpeX1fXpIueYCIiIiIiPxvnPXg1VvjIxHcNOAyAM4DOG59DH/5AWDdOZS8w/yHpcVPluNmAUby+cFkvTnr4e8BSFjtHlALHk/irfRMufy0aTFoEmAknx8cqv8qArhpsXd4biX+djpnESEKPQAAyXpzFkfm5AOAzwyc+vrIYin4FbDzmh99RP++7HQTu1Z0ae3ty88hR4JfARESd3H0Tj4ADLQTfjr4SOgBwGc6PXrx8jXkJm8jmRoOfwj7aNRrKBaeoVp5v+e5CD4bet/iPeBspwf74eQDQDI1jNzkVMfnPHAu9L5FgKFOD/bDyd+VPNH1WJKht00+BUl3CkCmAGQKQKYAZApApgBkCkCmAGQKQKYAZApApgBkCkCmAGQKQKYAZApApgBkCkCmAGQKQKYAZApApgBkCkCmAGQKQKYAZApApgBkCkCmAGQKQKYAZApApgBkCkCmAGQKQKYAZApApgBkCkCmAGQKQKYAZApApgBkCkCmAGQKQKYAZApApgBkCkCmAGS0AI16jTW9R2Obdyy0AMXCc+ofvquxXcPrwgJt3+Db0zurVlZRrayy5vuG3gPIFIBMAcgs3gMa6MH38N8YGz/Qz79benXYSQCo9+KX7MfiCvhisBGEMzj24AGcQyn0RijeYTn0RvAA3mEeQCv0TgBx1G4H/wfB5E56o9mJOTjct9jqFefweG158UHoHZNPQfFWegZwKxZbPeFQam6mH1pMmdxgbWOj3D5z8vqL6NjPFIAr6N+Pv7FzmIs301P/1M08/zQ6NnHBt92dCD7rd25n2/E2V4a+O2Ddw79xrcRC6FsXioiIiIiI/AZRsIuCVhjmigAAAABJRU5ErkJggg==;" parent="1" vertex="1">
          <mxGeometry x="330.5" y="380" width="144.5" height="144.5" as="geometry" />
        </mxCell>
        <mxCell id="RAJVKOpdcDavsLiYcgov-99" style="edgeStyle=orthogonalEdgeStyle;rounded=0;orthogonalLoop=1;jettySize=auto;html=1;exitX=0.5;exitY=1;exitDx=0;exitDy=0;" parent="1" source="RAJVKOpdcDavsLiYcgov-42" target="RAJVKOpdcDavsLiYcgov-42" edge="1">
          <mxGeometry relative="1" as="geometry" />
        </mxCell>
        <mxCell id="L-sPylKmDmo3-dS7Oe-S-5" style="edgeStyle=orthogonalEdgeStyle;rounded=0;orthogonalLoop=1;jettySize=auto;html=1;exitX=1;exitY=0.5;exitDx=0;exitDy=0;" parent="1" source="L-sPylKmDmo3-dS7Oe-S-1" edge="1" target="RAJVKOpdcDavsLiYcgov-22">
          <mxGeometry relative="1" as="geometry">
            <mxPoint x="367" y="250" as="targetPoint" />
            <Array as="points">
              <mxPoint x="307" y="270" />
              <mxPoint x="307" y="250" />
            </Array>
          </mxGeometry>
        </mxCell>
        <mxCell id="L-sPylKmDmo3-dS7Oe-S-1" value="Conta google" style="shape=image;verticalLabelPosition=bottom;labelBackgroundColor=#ffffff;verticalAlign=top;aspect=fixed;imageAspect=0;image=data:image/png,iVBORw0KGgoAAAANSUhEUgAAAGQAAABkCAYAAABw4pVUAAAABmJLR0QA/wD/AP+gvaeTAAATcElEQVR4nO2deXSU1dnAf/edSSaTyUzIQoDsQFgTBBJAUVCDKBR3XCq4tWLR+qm17Wer1i5+x566oFQrLlWrdUFKrSsUrAhKQWRJwtKwhSV7CCEhmTUzmXnv90eCbFnmfWcSsGd+53AOh/e5z314n7nbc597X4gQIUKECBEiRIgQIUKECBEiRIjQBeJMG/Bdp/Gz1Iwog1wo4TIACV8oinjINq12jx59EYdopGXVoPWAGj+9bmrjZ6kZRoPcCiSeInbUHxBjk2bUVmnVbwyLlb1MaamM9sU5JoJhtBRyhJSMFJApkBaJSAAsHaIugTwqES4BFapgtyLFXmSgNNpl3ZKbK3xhMEcFJEBHyzjVGQAJUQaeAW7UqvysbSFF5Y5RQoirJRQKmALEhqjSBawD1qiq+vGEwbbdodrYsmqQHbB28dgeP70uXqvOs8ohW2rtyUqbmAPiVmBiL1e3SUr5tt8o3zs33daoR0H3DhEt8dNr+2nVqegxJNxsOugcWFzhfEJpUypAPE/vOwNgkhDiT1EBpaakwvHKphp3hlYFEr7o8qHgMz1GndEWsm2fI8UfxeMCcTsQfSZtAXwg3yCaX+cPsjYEU8C+OnWEVOUGIOGUR41+gzIuqbCmWqsRZ6SFSCmV4grnbYEoUSoQP+LMOwMgGsRd+MTekgrnT5ZKaeipgG1a7R5/QIwViL8DdsCOEEv1OgPOQAspqmrJEarhXWBSX9etCSG/CciomydmxRzoy2r7tIUUlbuvFaphM2e7MwCkOM+Av6So0vH9vqy2TxyyVEpDcYXreSHUDwDNM48ziE1IsaSkwrlQStkn76rXu6z2RZ3rbaljkXQ2IaX8yC7j5hQOFq09yf7yzZLLBbwCSCnk/Cdvz18RbD296vV1uxus3jjXiu+6MwCEENfEK65l63Y3dLUQPC4LLwNpQLqQvKKlnl5zSGmpjDabze8D03qrjmN43S48TkdvVwNwidls/risTJp6q4JeiWVJKZWSSvc7oiMCGhadqkrdwTIObNtCVdlOGisP0nSoBo/HfZKc2RxLwoBUkjOHkDkyj6zcsaTljEKI8PTOAgrtUc4lS6W8/kYhAp3aKuR8IcWfQUqknK9Rf/gprnA9D/K+cOiqO1hG0eefsn31Chz2ZqIUI4PNcaQaYxgYbcasGIlVjCgI3KofR6CNI/5WKn0eKlqdtKl+bP2SyLtwOhNnXsvA7KHhMAshWTg+O+5nYVF2ol4twsEMViUVjhskYmmohh3YUcSXi1+nbNtmbFEmJluSKbAmMSzGhlEE19P6pWSPp4WtrkY2OI/Q0uZl6Jh8LrnlbgaPGR+qiUgpryvItn4QsqIT0OSQh94sqQLSO8ypeuIH+ZknPt9S2TxUkcYiQHOU8xjNh+v49KWn2bnx32SarVzZL50JcckYQ+xy/FJS7Gzkk+YqKjwORk28gCvv+QUJA1JDUdscwFgQzsVj2MaQ9nHDtZgQnLFp5Ycse2kBFmHg3kGjmGTtH7Y+1SgEk6zJTLQms8nRwOLtxSycfwOX3/Uzzp11nV61/Qy0vSOlnCKEUMNipxbh7garrVXOu0HoWoH7fa38Y+HjbP3qM6b1S2VO8mBilB5DSboQwLnW/oyLS2JxwwE+euEJDmwv5roHHiU6xqxH4+Stle55wKvhsi9ktu1zpASixG5Oj3r2iMfl5K3f/IS6vTuZl5LDZGtKOEwKiha/j0ert2JMTOSuZ/5CXEKSXlVNRMuRwUaJuyMs6xB/FI+jwxmtbievPXgnDft283BqXp86w6X6ebJuJ6rFwg//8GIozgBIlF7ld+GwK+QWsq3anR4IqPvRGEL3+7z85Vf3Ub+nlF+njyE92tJzoTDhkypP1PyHGuFn/oLXGZA1RJee4QNikEBZfSuAV1GUoeMyYmtCsS3kQT0QkL9Ax37Gx4ueoHrXDh5Oz9PsDI/qZ7enhUqvi8NtHlrVAAoCiyGKBGM0OTE2hsZYOx2H/FLyXN1OKgOtzPvDS7qdAR2ZDscxyYD6cyCktUlILaR9D1ypQGMCQsnqf7J0wW+ZP3A4U20Dgy63093MZy21bHM2EZAqJlMM8Yn9sSQmYzAouJqP0nykHo/bhVExUBCXRKFtILmx7QFmKSWL6vdQ5D7K7Y/9kZzxYd8FcLUZ1Cy9e/QQYgtpT0jQ5gzn0UY+eeFJLrANCNoZVV4nS5oq2O5oZFDmUC659npGn3cRA7JzTpOVqsrhygPsLf6Gzcs/YGP1dkbHJXJr0mA+b6lls+MIcx75Q284A8ASrYrvAy/qVRBSCymucG5CY0LC0qceZd/6L3kqs4A4Q8+/h1XNtbzTsJ+EQelc9oN7ybugMOi4lJSSPVvWs/zFp2msrwMBs3/yKyZcdrUWk7Uh5Df5mdbJuovrLdiRN7VTS5naA3t54b5bmDdgGBf10DoCSN6q38fqljqmXDOXmfPuwxCEAzvD72vl83dexdIvgQtn36JLhxYMAXXk2CE2XamkurssRYhrZM9iJ/HlktcY0D+KWQ+a8fwtgNrc9eLvrfp9fOU8zHUPPBryL9oYHcP37ghLrDMoVEW5CnhaT1nd6xAJhVrkmxsO8Z+vv+T6uYnEjPXS79GjmKZ4OpVd1VzL6pY6rrn/kd7tXnoJqWh7NyeiyyGlpTIaOF9LmZLVK4g2Cgqn2QAQsSpxcx1Y72xBiTve1qq8Tt5p2M+Ua+Yy4dKr9Jh35pFc2PGONKPLIT6LYwLHE5yDYvvqZZw/JQ5z7MlVRud76fe7xm9by5KmChIGpTFzXt91Mb2ApTXWk6+noC6HqMKQp0Xe3tjAoapKzj0/rtPnx1pLeWEN2x2NXPYD/QP42YIQMldPOV0OEVKO0CK/f3sRQsCYsd03qmXb60nNzCbvAt1d8FmDFNre0TF0/QylYISW+fKh/XtI6W8iIaHrWZXLFaBok4vCuTdr3v+WqsojV5yrqYxWps25k0tvvStoeUEfOkRAZs9SxzlSU05GdlS3MqU7PPgDktzJF+sxqZ0ZN0BCsv7yXSDWLudIdYXGQiJLT116O2qbFuGm+mqGjuveIQf2ezGZYzoNhwSLGHseZOgPFnaFrCijvrZSYyFt7+gYetchPSaLnYjX7cIS231VdXU+bIn99VkTphSfLrEl4Ha0aC2l6R0dQ69DOp8udYHX4zltunsqbpeKVa9DehtTDD63u2e5k+lTh2hCKAI1qBSAsOQJhB2hBlAMvbPHfyp6xxAnHadPo42CzEQTFpMBlzdAZZMXn//kKFdMTCwej79bhRaLgv1AvU5zehlvKyaz5jOnunJb9baQbyvLTDRhjTGgCLDGGMhMPD3tNcZqw97SadbltwxMjaalqUmnOcfQGu4MUqvTTmyc5jFal0P0thD7sb9YTCf7NDb6dB8npWZTXV3XrcKhQ020ebwcOljGwMHDNBnz7brlkK5TZJCSBqaYLh8rDbX0T9c00wdx/B1pQd/CECoFjAFweVWsMcf7V7fv9HGgf3o2G7d92a3O3LxYDAbBzm++0uyQb+1664/aCxmNiN+/2Y1SCfXVJJ97gUZjpMaFS4c5egoJwW4klwNUNnk7xhAFl1elssl7mnzGiFy+WNxGdbWP9PTOg6BekwklN5Xirz6n8KZ5mlfr9z7/liZ5KSVv/d//4swaAbHdhHTqq1EddjJHjNGkXyB0XUygzyFS7JEd/bXPL9l3uPtDRdl541EMCttK3J065IumJO7YnYf7nCNMfOcf/GfdasZMvUSTTWk5ozTJ79q4FkdjA+Lm+7sX3LsDxRhFdt44TfqlFLp2DPUN6jJQqkXcZI4lc/RY1q49eZzzqAr3l41ixrYCqr0xNGWl0zhsMMvf/BOBQPezslDwt/lY8eYiRE4e5PQQlN26gey8cZrTTKXUtr19DF0OiXZZt9B+d0jQFEy/gh3b3DQ0tL/ozfZ4Jmw+n0XVmcgTtvb3FJ5Py+FDrHjtOT2mBcUX777aHpu6cX73q/ymBuT+neRPm6WxBuGUjeYiPbZpXu3ITTdlJKgfvJriWZmb7FmhxAbK8RgzCSjdL96TBqWz/uP3EELyeVIut+8aQ33b6VNknyUWX2wMrcuWEZ+cQlrOSK0mdkvJmpUsf/05uOLm9thXN8h//YOo2gquf+DXGKO6j8WdwqqC0aa39dinLft9000ZfqPYiiRRyDYMgM1bgsW3h339fovP0NlNRe2YYi1MvvxG3v9oKavTsmiL6bpxVuWfg7W+kY9eeAKAiTOu0WJml+xYu4r3n30MJl2MuHR298JuJ2LdSs6/8kbNi0IhWaPXRk1dlt8gFiJPvx/KIN0MdPd8aGrq7JsxqDBk/aYeZXfNuJjKcbl88Nzv+eTlBQT8bVpMPQk1EOCzv77Ie08+gpx4EeKme3outPLvGKVkyuybNdenqOqnOswEtM+yujzEGefreZyPS0jikpvuIPDun6kZMxpnStcZ51IRlM4sxJ6SBMvfZ9fmdcy6/V7ypl6iaUpcVrSBj/78LE21VXD5XMSM63suVFsOXy1n2m13ExevNalfbtCbkwUaE+XaiuZ0eT9UQJjZmfR8jzr8bT6e/fEcqqWXr2+7AdXY8zAW19DIyDVfk1R2gOSsIYybOp3Rky9mUCcLSKmqHK4qZ1/JRjas/IDGynLsGWnsu2ImI4YXEmfsITejzYdY+DCJqDywaDEGo6axA4S8Jz/T+pK2QicU1yLcVjTnQ6DTDr3ZNIEqa3BbnLX7drPo53dQPnY0u2ZcHHT9iZXVZG/aSvK+ckQggNEUQ1xSf+ITk1AMBhwtzdgPH8LndiENBhqGD6Gi4ByastqPRUYpRsbF55Jk6uZX/7dXUDat5p5n3yB1yPCgbevAZVICmbkZ8bqDcpq6rIBqeMigBC7ilMM5fsXCIUvwlzWk5ozkyh/9jI9ffBJXYgKVE8cGVa4pM52mzHQMvjYSK2uw1jdgbrZj9LqQqqAtOQ5v9lia0wfSkjqIQNTJ/7021c+Wo9sZacshKzbtNP3yy09h3Uquuu9hPc4AwcuhOKNdhUY6ZlrPIJkBoIqYr/YmPDazTUmMAkiruhEpFGrTl/Soa/lrz7Huw3fZceWl1I7RttIOlczYNEbZchAdr0BuXAOLX+DC2bfoTTv1IsSQ/ExLbSh2aQ6diElLqjjl7pLiiudfBu4CkEIhWD/Pmnc/HqcdPv2UKE8rFZNCPzseLJXuGlwBN+Pic4lasxw+/isTZ1zNzB/eq0+hEK+G6gwI06HPjdX2pKiAshvQnPIhpWTlGy+w9v23qB6Xx+4ZFxEw9k2SnKHNzzn/+jcpW7dz8fd/yGW3/VjvFRyNapQ6ckKq7UioNoUtO6C40nU3UuqeXWz5/BM+WvQUzgQr22ZNpyV1QLhM65R+NYc4559fENfi4Nr/eYiC6VfoVybFvPxsy1/CYVfYHCKlVEqqnOuRovt4RDccKt/PkgW/of5gGdXj8tg/dRKtVk35FD0S43CQs3YTadtKGTBkGHMffJyUzMEhaBTrx2fGThVChGW7Mqz5M8UHPFkYAsV0fttzUEg1wIZl7/PZ2y/j87ZSPWYUlQVjcAwILSPFdqiBjOLtpG3fRYw5lpm3/ZhzZ81GhHZBQbNBGvLHZpsPhmTcCYQ9oam4wnE97bd0hoTX7WLDp0tZ+9F7eFqO4k7pT93wITRlp9OSNrDHccbg9xNfU0dieTWpZQcx1zdg7pfIRdfO5bwrbtCTtHAqUkrluoLs2A9DVXQivZJhVlLhXCjhgXDoUgMB9hZ9TfHqlewt+Qavww5Coa1fPPZEG20mE35Te9TY6PUS5fVia7JjbG5GSInJZmPE+MmMnzaT4fmTw5bOIwULCjLjHgyLshPoFYdIKZWtla73wn2137FLzKrLdtJYXcmRuircLicelxMAsyUOS5yVpIHpJGdkkTZsNIOycxBKmNPPJEvGZ1luDhTN+Z4U4hUkUijqfGP+34K+W7Erei0Hs7RURnvjXJ9A+wLyvwUJa2w+y/eGDRPeti1zqhDt11VJqIoueE9jasrp9FrmYm6u8Lk9nhvo7n707x6rYszuq4YNE6dncoSJXk0lnTKyv8PktMxC0nMc5WxHiA9aVMuVuSkpzm//SVHnI6mWUCVA092KXVYTDiU9IaVUtla4FkjBT/uivjAjpeCZ/AzLL8N1SVl39Ond7yWVrqullG+g4yqnM4RdIO8cn2UNeRofLH1+Gf+2cs/ggPC/C0L39RN9g1gvVOWW8YPN5X1aa19WdgwppSipdN2KZAGCs+1QyFEBj43LtPypL7qoUzmjH3TZUmtPFj7DY0LIeUCv3RYdJK0I8ZpJ+H8b6iZTKJwV36Dq+NLOPQLxUzSeXwwDLuB1RVGeCvU2uHBwVjjkGKVVLYmtAWWOULgllKhxcMgNQvBOtFCXnMkWcSq96pBQPtuwtdo+XPqVqyVMQ4gpIEOMwwsnQv5bqKzGEPh4fEZ8WWj6eode3Zo74bMNdHy2IejQwrh0217arzh6essWGaUkeyYIZK4q5HCBHIEQWUJKq0T04/ghVKdANkshHEhZIRF7hBR7pBSl9mzzlkIhei+DO0x8Jy4UmTBBtAEbOv78V9OroRMp5HygGmSV1s82RIgQIUKECBEiRIgQIUKECBEiRIhwCv8PZbQVgem+EjMAAAAASUVORK5CYII=;" parent="1" vertex="1">
          <mxGeometry x="207" y="250" width="40" height="40" as="geometry" />
        </mxCell>
        <mxCell id="L-sPylKmDmo3-dS7Oe-S-4" style="edgeStyle=orthogonalEdgeStyle;rounded=0;orthogonalLoop=1;jettySize=auto;html=1;exitX=0.5;exitY=1;exitDx=0;exitDy=0;" parent="1" source="RAJVKOpdcDavsLiYcgov-3" target="RAJVKOpdcDavsLiYcgov-3" edge="1">
          <mxGeometry relative="1" as="geometry" />
        </mxCell>
        <mxCell id="L-sPylKmDmo3-dS7Oe-S-8" style="edgeStyle=orthogonalEdgeStyle;rounded=0;orthogonalLoop=1;jettySize=auto;html=1;exitX=1;exitY=0.5;exitDx=0;exitDy=0;entryX=0.005;entryY=0.291;entryDx=0;entryDy=0;entryPerimeter=0;" parent="1" source="L-sPylKmDmo3-dS7Oe-S-6" target="RAJVKOpdcDavsLiYcgov-83" edge="1">
          <mxGeometry relative="1" as="geometry">
            <Array as="points">
              <mxPoint x="274" y="423" />
            </Array>
          </mxGeometry>
        </mxCell>
        <mxCell id="L-sPylKmDmo3-dS7Oe-S-6" value="Conta google" style="shape=image;verticalLabelPosition=bottom;labelBackgroundColor=#ffffff;verticalAlign=top;aspect=fixed;imageAspect=0;image=data:image/png,iVBORw0KGgoAAAANSUhEUgAAAGQAAABkCAYAAABw4pVUAAAABmJLR0QA/wD/AP+gvaeTAAATcElEQVR4nO2deXSU1dnAf/edSSaTyUzIQoDsQFgTBBJAUVCDKBR3XCq4tWLR+qm17Wer1i5+x566oFQrLlWrdUFKrSsUrAhKQWRJwtKwhSV7CCEhmTUzmXnv90eCbFnmfWcSsGd+53AOh/e5z314n7nbc597X4gQIUKECBEiRIgQIUKECBEiRIjQBeJMG/Bdp/Gz1Iwog1wo4TIACV8oinjINq12jx59EYdopGXVoPWAGj+9bmrjZ6kZRoPcCiSeInbUHxBjk2bUVmnVbwyLlb1MaamM9sU5JoJhtBRyhJSMFJApkBaJSAAsHaIugTwqES4BFapgtyLFXmSgNNpl3ZKbK3xhMEcFJEBHyzjVGQAJUQaeAW7UqvysbSFF5Y5RQoirJRQKmALEhqjSBawD1qiq+vGEwbbdodrYsmqQHbB28dgeP70uXqvOs8ohW2rtyUqbmAPiVmBiL1e3SUr5tt8o3zs33daoR0H3DhEt8dNr+2nVqegxJNxsOugcWFzhfEJpUypAPE/vOwNgkhDiT1EBpaakwvHKphp3hlYFEr7o8qHgMz1GndEWsm2fI8UfxeMCcTsQfSZtAXwg3yCaX+cPsjYEU8C+OnWEVOUGIOGUR41+gzIuqbCmWqsRZ6SFSCmV4grnbYEoUSoQP+LMOwMgGsRd+MTekgrnT5ZKaeipgG1a7R5/QIwViL8DdsCOEEv1OgPOQAspqmrJEarhXWBSX9etCSG/CciomydmxRzoy2r7tIUUlbuvFaphM2e7MwCkOM+Av6So0vH9vqy2TxyyVEpDcYXreSHUDwDNM48ziE1IsaSkwrlQStkn76rXu6z2RZ3rbaljkXQ2IaX8yC7j5hQOFq09yf7yzZLLBbwCSCnk/Cdvz18RbD296vV1uxus3jjXiu+6MwCEENfEK65l63Y3dLUQPC4LLwNpQLqQvKKlnl5zSGmpjDabze8D03qrjmN43S48TkdvVwNwidls/risTJp6q4JeiWVJKZWSSvc7oiMCGhadqkrdwTIObNtCVdlOGisP0nSoBo/HfZKc2RxLwoBUkjOHkDkyj6zcsaTljEKI8PTOAgrtUc4lS6W8/kYhAp3aKuR8IcWfQUqknK9Rf/gprnA9D/K+cOiqO1hG0eefsn31Chz2ZqIUI4PNcaQaYxgYbcasGIlVjCgI3KofR6CNI/5WKn0eKlqdtKl+bP2SyLtwOhNnXsvA7KHhMAshWTg+O+5nYVF2ol4twsEMViUVjhskYmmohh3YUcSXi1+nbNtmbFEmJluSKbAmMSzGhlEE19P6pWSPp4WtrkY2OI/Q0uZl6Jh8LrnlbgaPGR+qiUgpryvItn4QsqIT0OSQh94sqQLSO8ypeuIH+ZknPt9S2TxUkcYiQHOU8xjNh+v49KWn2bnx32SarVzZL50JcckYQ+xy/FJS7Gzkk+YqKjwORk28gCvv+QUJA1JDUdscwFgQzsVj2MaQ9nHDtZgQnLFp5Ycse2kBFmHg3kGjmGTtH7Y+1SgEk6zJTLQms8nRwOLtxSycfwOX3/Uzzp11nV61/Qy0vSOlnCKEUMNipxbh7garrVXOu0HoWoH7fa38Y+HjbP3qM6b1S2VO8mBilB5DSboQwLnW/oyLS2JxwwE+euEJDmwv5roHHiU6xqxH4+Stle55wKvhsi9ktu1zpASixG5Oj3r2iMfl5K3f/IS6vTuZl5LDZGtKOEwKiha/j0ert2JMTOSuZ/5CXEKSXlVNRMuRwUaJuyMs6xB/FI+jwxmtbievPXgnDft283BqXp86w6X6ebJuJ6rFwg//8GIozgBIlF7ld+GwK+QWsq3anR4IqPvRGEL3+7z85Vf3Ub+nlF+njyE92tJzoTDhkypP1PyHGuFn/oLXGZA1RJee4QNikEBZfSuAV1GUoeMyYmtCsS3kQT0QkL9Ax37Gx4ueoHrXDh5Oz9PsDI/qZ7enhUqvi8NtHlrVAAoCiyGKBGM0OTE2hsZYOx2H/FLyXN1OKgOtzPvDS7qdAR2ZDscxyYD6cyCktUlILaR9D1ypQGMCQsnqf7J0wW+ZP3A4U20Dgy63093MZy21bHM2EZAqJlMM8Yn9sSQmYzAouJqP0nykHo/bhVExUBCXRKFtILmx7QFmKSWL6vdQ5D7K7Y/9kZzxYd8FcLUZ1Cy9e/QQYgtpT0jQ5gzn0UY+eeFJLrANCNoZVV4nS5oq2O5oZFDmUC659npGn3cRA7JzTpOVqsrhygPsLf6Gzcs/YGP1dkbHJXJr0mA+b6lls+MIcx75Q284A8ASrYrvAy/qVRBSCymucG5CY0LC0qceZd/6L3kqs4A4Q8+/h1XNtbzTsJ+EQelc9oN7ybugMOi4lJSSPVvWs/zFp2msrwMBs3/yKyZcdrUWk7Uh5Df5mdbJuovrLdiRN7VTS5naA3t54b5bmDdgGBf10DoCSN6q38fqljqmXDOXmfPuwxCEAzvD72vl83dexdIvgQtn36JLhxYMAXXk2CE2XamkurssRYhrZM9iJ/HlktcY0D+KWQ+a8fwtgNrc9eLvrfp9fOU8zHUPPBryL9oYHcP37ghLrDMoVEW5CnhaT1nd6xAJhVrkmxsO8Z+vv+T6uYnEjPXS79GjmKZ4OpVd1VzL6pY6rrn/kd7tXnoJqWh7NyeiyyGlpTIaOF9LmZLVK4g2Cgqn2QAQsSpxcx1Y72xBiTve1qq8Tt5p2M+Ua+Yy4dKr9Jh35pFc2PGONKPLIT6LYwLHE5yDYvvqZZw/JQ5z7MlVRud76fe7xm9by5KmChIGpTFzXt91Mb2ApTXWk6+noC6HqMKQp0Xe3tjAoapKzj0/rtPnx1pLeWEN2x2NXPYD/QP42YIQMldPOV0OEVKO0CK/f3sRQsCYsd03qmXb60nNzCbvAt1d8FmDFNre0TF0/QylYISW+fKh/XtI6W8iIaHrWZXLFaBok4vCuTdr3v+WqsojV5yrqYxWps25k0tvvStoeUEfOkRAZs9SxzlSU05GdlS3MqU7PPgDktzJF+sxqZ0ZN0BCsv7yXSDWLudIdYXGQiJLT116O2qbFuGm+mqGjuveIQf2ezGZYzoNhwSLGHseZOgPFnaFrCijvrZSYyFt7+gYetchPSaLnYjX7cIS231VdXU+bIn99VkTphSfLrEl4Ha0aC2l6R0dQ69DOp8udYHX4zltunsqbpeKVa9DehtTDD63u2e5k+lTh2hCKAI1qBSAsOQJhB2hBlAMvbPHfyp6xxAnHadPo42CzEQTFpMBlzdAZZMXn//kKFdMTCwej79bhRaLgv1AvU5zehlvKyaz5jOnunJb9baQbyvLTDRhjTGgCLDGGMhMPD3tNcZqw97SadbltwxMjaalqUmnOcfQGu4MUqvTTmyc5jFal0P0thD7sb9YTCf7NDb6dB8npWZTXV3XrcKhQ020ebwcOljGwMHDNBnz7brlkK5TZJCSBqaYLh8rDbX0T9c00wdx/B1pQd/CECoFjAFweVWsMcf7V7fv9HGgf3o2G7d92a3O3LxYDAbBzm++0uyQb+1664/aCxmNiN+/2Y1SCfXVJJ97gUZjpMaFS4c5egoJwW4klwNUNnk7xhAFl1elssl7mnzGiFy+WNxGdbWP9PTOg6BekwklN5Xirz6n8KZ5mlfr9z7/liZ5KSVv/d//4swaAbHdhHTqq1EddjJHjNGkXyB0XUygzyFS7JEd/bXPL9l3uPtDRdl541EMCttK3J065IumJO7YnYf7nCNMfOcf/GfdasZMvUSTTWk5ozTJ79q4FkdjA+Lm+7sX3LsDxRhFdt44TfqlFLp2DPUN6jJQqkXcZI4lc/RY1q49eZzzqAr3l41ixrYCqr0xNGWl0zhsMMvf/BOBQPezslDwt/lY8eYiRE4e5PQQlN26gey8cZrTTKXUtr19DF0OiXZZt9B+d0jQFEy/gh3b3DQ0tL/ozfZ4Jmw+n0XVmcgTtvb3FJ5Py+FDrHjtOT2mBcUX777aHpu6cX73q/ymBuT+neRPm6WxBuGUjeYiPbZpXu3ITTdlJKgfvJriWZmb7FmhxAbK8RgzCSjdL96TBqWz/uP3EELyeVIut+8aQ33b6VNknyUWX2wMrcuWEZ+cQlrOSK0mdkvJmpUsf/05uOLm9thXN8h//YOo2gquf+DXGKO6j8WdwqqC0aa39dinLft9000ZfqPYiiRRyDYMgM1bgsW3h339fovP0NlNRe2YYi1MvvxG3v9oKavTsmiL6bpxVuWfg7W+kY9eeAKAiTOu0WJml+xYu4r3n30MJl2MuHR298JuJ2LdSs6/8kbNi0IhWaPXRk1dlt8gFiJPvx/KIN0MdPd8aGrq7JsxqDBk/aYeZXfNuJjKcbl88Nzv+eTlBQT8bVpMPQk1EOCzv77Ie08+gpx4EeKme3outPLvGKVkyuybNdenqOqnOswEtM+yujzEGefreZyPS0jikpvuIPDun6kZMxpnStcZ51IRlM4sxJ6SBMvfZ9fmdcy6/V7ypl6iaUpcVrSBj/78LE21VXD5XMSM63suVFsOXy1n2m13ExevNalfbtCbkwUaE+XaiuZ0eT9UQJjZmfR8jzr8bT6e/fEcqqWXr2+7AdXY8zAW19DIyDVfk1R2gOSsIYybOp3Rky9mUCcLSKmqHK4qZ1/JRjas/IDGynLsGWnsu2ImI4YXEmfsITejzYdY+DCJqDywaDEGo6axA4S8Jz/T+pK2QicU1yLcVjTnQ6DTDr3ZNIEqa3BbnLX7drPo53dQPnY0u2ZcHHT9iZXVZG/aSvK+ckQggNEUQ1xSf+ITk1AMBhwtzdgPH8LndiENBhqGD6Gi4ByastqPRUYpRsbF55Jk6uZX/7dXUDat5p5n3yB1yPCgbevAZVICmbkZ8bqDcpq6rIBqeMigBC7ilMM5fsXCIUvwlzWk5ozkyh/9jI9ffBJXYgKVE8cGVa4pM52mzHQMvjYSK2uw1jdgbrZj9LqQqqAtOQ5v9lia0wfSkjqIQNTJ/7021c+Wo9sZacshKzbtNP3yy09h3Uquuu9hPc4AwcuhOKNdhUY6ZlrPIJkBoIqYr/YmPDazTUmMAkiruhEpFGrTl/Soa/lrz7Huw3fZceWl1I7RttIOlczYNEbZchAdr0BuXAOLX+DC2bfoTTv1IsSQ/ExLbSh2aQ6diElLqjjl7pLiiudfBu4CkEIhWD/Pmnc/HqcdPv2UKE8rFZNCPzseLJXuGlwBN+Pic4lasxw+/isTZ1zNzB/eq0+hEK+G6gwI06HPjdX2pKiAshvQnPIhpWTlGy+w9v23qB6Xx+4ZFxEw9k2SnKHNzzn/+jcpW7dz8fd/yGW3/VjvFRyNapQ6ckKq7UioNoUtO6C40nU3UuqeXWz5/BM+WvQUzgQr22ZNpyV1QLhM65R+NYc4559fENfi4Nr/eYiC6VfoVybFvPxsy1/CYVfYHCKlVEqqnOuRovt4RDccKt/PkgW/of5gGdXj8tg/dRKtVk35FD0S43CQs3YTadtKGTBkGHMffJyUzMEhaBTrx2fGThVChGW7Mqz5M8UHPFkYAsV0fttzUEg1wIZl7/PZ2y/j87ZSPWYUlQVjcAwILSPFdqiBjOLtpG3fRYw5lpm3/ZhzZ81GhHZBQbNBGvLHZpsPhmTcCYQ9oam4wnE97bd0hoTX7WLDp0tZ+9F7eFqO4k7pT93wITRlp9OSNrDHccbg9xNfU0dieTWpZQcx1zdg7pfIRdfO5bwrbtCTtHAqUkrluoLs2A9DVXQivZJhVlLhXCjhgXDoUgMB9hZ9TfHqlewt+Qavww5Coa1fPPZEG20mE35Te9TY6PUS5fVia7JjbG5GSInJZmPE+MmMnzaT4fmTw5bOIwULCjLjHgyLshPoFYdIKZWtla73wn2137FLzKrLdtJYXcmRuircLicelxMAsyUOS5yVpIHpJGdkkTZsNIOycxBKmNPPJEvGZ1luDhTN+Z4U4hUkUijqfGP+34K+W7Erei0Hs7RURnvjXJ9A+wLyvwUJa2w+y/eGDRPeti1zqhDt11VJqIoueE9jasrp9FrmYm6u8Lk9nhvo7n707x6rYszuq4YNE6dncoSJXk0lnTKyv8PktMxC0nMc5WxHiA9aVMuVuSkpzm//SVHnI6mWUCVA092KXVYTDiU9IaVUtla4FkjBT/uivjAjpeCZ/AzLL8N1SVl39Ond7yWVrqullG+g4yqnM4RdIO8cn2UNeRofLH1+Gf+2cs/ggPC/C0L39RN9g1gvVOWW8YPN5X1aa19WdgwppSipdN2KZAGCs+1QyFEBj43LtPypL7qoUzmjH3TZUmtPFj7DY0LIeUCv3RYdJK0I8ZpJ+H8b6iZTKJwV36Dq+NLOPQLxUzSeXwwDLuB1RVGeCvU2uHBwVjjkGKVVLYmtAWWOULgllKhxcMgNQvBOtFCXnMkWcSq96pBQPtuwtdo+XPqVqyVMQ4gpIEOMwwsnQv5bqKzGEPh4fEZ8WWj6eode3Zo74bMNdHy2IejQwrh0217arzh6essWGaUkeyYIZK4q5HCBHIEQWUJKq0T04/ghVKdANkshHEhZIRF7hBR7pBSl9mzzlkIhei+DO0x8Jy4UmTBBtAEbOv78V9OroRMp5HygGmSV1s82RIgQIUKECBEiRIgQIUKECBEiRIhwCv8PZbQVgem+EjMAAAAASUVORK5CYII=;" parent="1" vertex="1">
          <mxGeometry x="172" y="400" width="45" height="45" as="geometry" />
        </mxCell>
        <mxCell id="L-sPylKmDmo3-dS7Oe-S-40" style="edgeStyle=orthogonalEdgeStyle;rounded=0;orthogonalLoop=1;jettySize=auto;html=1;exitX=0.5;exitY=1;exitDx=0;exitDy=0;" parent="1" source="L-sPylKmDmo3-dS7Oe-S-39" target="RAJVKOpdcDavsLiYcgov-53" edge="1">
          <mxGeometry relative="1" as="geometry">
            <Array as="points">
              <mxPoint x="72" y="698" />
            </Array>
          </mxGeometry>
        </mxCell>
        <mxCell id="L-sPylKmDmo3-dS7Oe-S-41" value="Avaliar previsão das tarefas e sintomas" style="edgeLabel;html=1;align=center;verticalAlign=middle;resizable=0;points=[];" parent="L-sPylKmDmo3-dS7Oe-S-40" vertex="1" connectable="0">
          <mxGeometry x="-0.3064" y="-3" relative="1" as="geometry">
            <mxPoint x="74" y="55.93" as="offset" />
          </mxGeometry>
        </mxCell>
        <mxCell id="ClL08HFa1sP2JxQlRzgX-11" style="edgeStyle=orthogonalEdgeStyle;rounded=0;orthogonalLoop=1;jettySize=auto;html=1;exitX=1;exitY=0.25;exitDx=0;exitDy=0;entryX=-0.001;entryY=0.948;entryDx=0;entryDy=0;entryPerimeter=0;" edge="1" parent="1" source="L-sPylKmDmo3-dS7Oe-S-39" target="RAJVKOpdcDavsLiYcgov-83">
          <mxGeometry relative="1" as="geometry">
            <mxPoint x="297" y="520" as="targetPoint" />
          </mxGeometry>
        </mxCell>
        <mxCell id="ClL08HFa1sP2JxQlRzgX-12" value="Voltar" style="edgeLabel;html=1;align=center;verticalAlign=middle;resizable=0;points=[];" vertex="1" connectable="0" parent="ClL08HFa1sP2JxQlRzgX-11">
          <mxGeometry x="-0.6652" y="2" relative="1" as="geometry">
            <mxPoint x="68.79" y="-27.51" as="offset" />
          </mxGeometry>
        </mxCell>
        <mxCell id="L-sPylKmDmo3-dS7Oe-S-39" value="Previsão de hoje" style="shape=image;verticalLabelPosition=bottom;labelBackgroundColor=#ffffff;verticalAlign=top;aspect=fixed;imageAspect=0;image=data:image/png,iVBORw0KGgoAAAANSUhEUgAAAGQAAABkCAYAAABw4pVUAAAABmJLR0QA/wD/AP+gvaeTAAAZ6UlEQVR4nO2deXxURbb4v3V7TSdNFggkHcJqIBA2WQUUCGFRQdFRcWFcxu0544Yz+nxuo86MPsVdec+ZQUURUBlxRAVGWQICohA2IWDCEkLSSQhJSNKdXtLdt94fwSymk3R3OmF+v0++f6VvnTp17j236ladWgJddNFFF1100UUXXXTRRRdddNFFF120gDjfBvz/gJQI22bLRFAHqVKxRlfEbhXzs2tD0dXlkBCo3Jw4RvhkQvTMkrX2jT17+dB8AMxuJJKnSnFN7MyifcHq/n/KIdvy82O9Gs1gIFURYrCUMgmIRNANQTckXqAGQSUSO4iTAnKA3EghcsZaLI5w2FG1IWGNEGK0OaO4T/WmxLXAZX7ETtYaPSPiLy6zBaP739ohG44fj9ZGRKQLKacD00EOJXSbvcAuKchUVDbXOJ07Lk9JcYeiyLYuId6nl2ZFaBKklDtaFBTi/uiMosXB6P63c8gqKTXxRUXpQspbEFwDmDqoqEokX0ohlk2zWDYJIWSwCqo3JtwqEe+3KCDkW9EZJQ8Eo1MbrBEdxYbjx6N1EYZ7KbI+APTqhFclBsHNAnnz1iLrkczCwkXmkpIVY8eO9QSqQBVKsZAt+1GqSlGwRp33GpKZlxeDQfewkNwLxJxnc04iWSSTkpakC+FtS1iuStNXx1X8BPT3k+xSBamxGcX5wRhwXh2yxWq9AuT/Ar3Ppx1+yFEl907v3XtTW4JnN1guVIRcTVOnuCTy5pgZJZ8GW/B5cUhmQcEFQiOWIJn2y7SqkhKKcnJw2e0daoPWoKd7ch8SU1IQiuJPRALve1zuh2YOHFjVmq4z23uY9W79rajqYKkohRL5cbA142c63SFbigquRor3+EXzZCsvZ8Mbr1Ocm8sFaUMxRUV2qB2e2lqseSdx1XqY9eCD9B05qiXRfCm5Ib137+871KBzdJpDsrOz9Wdio19H8ttfptnKy1mx8EEy5l5Gxry5aDSazjKLnw4c5L3X3mTGfQ+QMnFiS2JuiXg4PSkpqC5sKHSKQ74uKYk0+HyfgrzUX/rqPz7F8LRUZv9qXmeY04zCkyd59ck/cde772GMimpFUrw11WJZKIRQO8qWDnfIdwUFcbWK+Arw+/pVlhSz8qGHeGHp39Fo/Lblfjm87wBlJaf9pmm0WiZmTEVRAq9pS99YTNQFQxh7VVsvhVgZVVx8WzDd42Do0HHIxsLC7rVCfgsMbUmmOCeXgUOHBOUMgOqzZyk77d8hOr2eVoYHfhkyfBhZB7KBthwib7In9jKtkvLa+UL4giulbTrMIVlFRaYaqa6RiBadAeCuqcEUGfxg/KLp00K0zD8RkZG4A+7Ziat6Wq1LpZS3hjLCb43gXssAycrK0tmlXC1hcluyUkqEOO/jUwDOWq1889ornMk70baw4OYtxdY/h9uG4GvI8uX3IsREpPyYX//6K38i9sRez7X0AW+L/d/vYv0nn2IModa0hUar5d4n/wuNVoujpoa1K1dx3V2/qU83myOZc0UGn36wlHnPtP2sheSJzUUF+6ZbkleHy8bgHLJy5VVIWdf1E2I+H300iBtvPNlYZEtxwWWo4uFQDao+W8mYWXMYOvv6UFW0SjGACjZHGYVFZU3SNBoNeqMRr6fNqEk9ihTvbDudv++SXn0DqFYB6AtKWso+jX7p8PmSGidvKihIQhXL+DeIkXUiMT6P5uOsrCxdOJQF5xCdbjlCHDj3azXHju1snKwV4g2gRzgM62hMMTFcdMVV4VEmGGdPTFwIULnRMqNyU+JqmdnPGIqq4Jqs+fMrgFGsWhXF/PlNuiRbi4pmSaleE4oR5wUp0eoM4VT4zKaiolXKkbHJUjK6SqtGAK5gtYTW7f2FMzLz8owS9X9D0nWeUBQN0d2bVuby0jN8smQ55vieoag0aVX1lW4ZRdcCS0O1KyzjEKHX346UA8Ohq7MQikJcogWorL8WnWhh/K23071v35B0SsE1mUWnxqZb+mSFale7HZKVlaWzIx9pr57OQKoqpw7txZr9IzUVZZhjoph08Wgs/fsBoDMa6TlgQLvKEKryGBBy091uh9gSEhYI6NdePR1N/o9ZbHr7FSqsp5pc37FqJVf+5hbikhLDU5Dg6sySU8PSE/ocCiV7ux0iBEFN4jdDShx2G7u+3Yaj2saRAweRWiM+QwxxCUkkpKSi0bTPzAP/+pyNb7+M9BPgklKy5r0PmHnj/HaV0QiBV7kPuCe0zO1gc3F+mqJqgn4TpJSc3LeXg+vXczxrN7FxsQxKG0q3mG4YIyJwOBzYqu3k5R6ntLiY/mkjGTHzSgZNuCSoCC5AwY97+eSpB2gr2ujFh0EfgSk6mtSMDC665RaU0OdlzjoczsRQlhm1yyFbrAWLQAT1/SjMPsSGN98iKiqCK669iokZU4kytzwH4bDX8MPW7az9dA2ni0qZ9R+/J2VsmyEyoM7x7/zHfKpKWln8IYRfZ4278QYm3fYbPxkCQxXy2lBCKiE7REopthZZC4CkNoXr5Nm29D2ObvuW3z66kAlTLw66zP3f7+at517FMng4l977aJtNWWH2fj5+7N4W0++47VLSp4xiydJ1HDx0nIqzNfVpGp2OO1asICI6Omg76xD/nJaU9Kugc4VYWlDNlZSSf736Ct6KMzz9+gtE+pmVk1Ky69vt7NvxHR6Xi9j4eNKvmEtSvz5N5NwuN88/8hQ2l8o1j7/YqlO2L1/C96ve95s2+sIU/vDgtU2u7d6TwxuLP6uvMBm/f4hhs0OKkYKgqjQxqXuwcyYhh98VVZkeqOyeNZ/jKi3h+bdf8+sMZ42DP95zP6UHv2PBzMHc/auxXDoqnq0fL2XNB8uayBqMBv74+n9j0ku2rVjSYplSVflp+8YW0+deNqHZtXFjBnPdNVPrfx/9blsgt9eCAUQnFBaOCTZbO+ZDlPRApGxlZ/j+o5U89sKzaHUN8bdlL75MzbkJoXdeep25U1Ipzylg+eKvcLk8rF6dSVVRCT1EFdvXr2+iU6PR8MhfnuTHzLWcPnmsWZmq6iPz3TepLCr0a9OYCwcxeFCy37TZM8eh1dZ9zKus1kBusUWkQkDPqDHtcIhs/or5Yf+6dUyfM5v4hIZwhK2qmqp9u1n64EL2bNlKXk4uo9L6Y7Da6F/i5my1jXgFemkVRgxJJv/gPlS1ac2Pjo1lznVXs3dd0+9mYfZ+PnzodvZ++Q+/9pjNJsaNS6XaVve9cNd62XPgGGs37GbN+u85nHOKgQMsADjK60bxzqpWl2W1iISLgs0TkkO+Ly/vBgQ0ksrb9QPTLpvZ5JpWq6VK6Bip87B66Qq69+zOkaMFTLlnFhfcPY3EnnFcOHMCY2ZPQK/TMaRvLEf2/dhM9/S5s8ndvb3+d0VhPv94aiFn8prXGgEkWnowafJw8q2llJ2tq50ul5N9B/MoOVNJZbWD4yeLMUfXrQnzOJx8/dIi9q4Odf5JDA42R0gOcdXWDCbADsHZomKS+jRtHiIiTcy9/36+tAl8Hjvg452PNmMyR5A8MAEAS2IPtu7I5K2/vonJaKDwWG4z3QmWRBzVNjzuuu7+4S1f4/M2XQyiKAJzdCR/fuY3LHruDoYM7s2FIwbw9cYsSs6c5d2VG0lLTWZUWn+unD2eK2ZPwKNKNOearZ82bqL3yJHBPqKfGZgpZVCj2pAcIqQYFLiwf7+NmjSBuIQepPSPpNRqZdiYMRzJLWgiY9C7GZnqwma3o9X7CZULgaIIfJ663WNVp0uaJGuNOm66aQYZM8bQv18Cqk+y8rOt6HU6pICfjhbi9ahMHJuKw+nmq292YzToSL94OFfPm0xkdCSW8SPoOybob/PP6LVWa1DBsZAcIlXRK1DZuMRECvNP+U37/fPPUeFLwOO0U5BzkJHDGmwvOl3JpElXMHTEPVTZ3Awe1fwtPVN8Gq1ejyGyrudmMDXMw/s0Phy1DrQ6LbXuulrjrvVi6RVHQnwMKf0tTJs0nOhzzZM50sjcWeMA0CgCrV4HGpV9G7/gs+eeQPUGPq3bGI8Q8cHIh1ZDhDAHKjvgoovYvPYbv2n2ajvOynISe8XTTe9k157D9WlLNpfw8VYrpgg92Xln6N2/+Yr/bRs2M3j8xfWrVpJHjK5Pq7adwe6oJr/wNHExZnbvyyXSZOCR+66hrKKaqKgIAC7oZ2HHD0cYNXwgsdGRnCooIzLSiLW4DIez7juT9dWnfP32q4HechOEUAN+VhByL0ttbb1lE0Zceilb1m+gtKikWVpM9xgqyquYPX08Xqlj5/e7KSgsBSBjiInRfYwsWZnJTQ8+2Cyv2+Vm9bKPGXvFDfXXBk2cVu8URWjxeuxs2LwHrU6hZ0wM27Zms3HLfpwuDxPHptaVM2UEZrOJdRuz2LkzB+GGZEs8O3YdobS0uF73vvWfB3rLTRBq4C8vhBjtlUJEEuDyMHOPeCYtWMB/P/o0i959C51eX5+mKBoeeel5Xnn0SdRaDyNS9Cxd+QXjxlzIifxSYhIsPPDiIoympkuCpKrywn89y6CLppEwIKX+ulAUrn36FX5YvZxtHy/BU+Wi2l6OokCfxHj69OgBRoHQCXyqikZR8PpURgzty4ihfcEpwQcVTjvmKB3FJQ3NVPLwC0N5VEG1JhDyN4Sg9mCPvnIeJouFx+5ZiL266abU3v368spH73Pnk09wON/HqEGRHD5VwU2PPsbtjz/ezBme2lpee3YRZRU2Zt7ZvOZodHom3XA7l9x6Nz7pRUof5RXVCIMCJgWhq2veFCGw2Rz4fI3WTRsFmAQ17lpUX4MzjFFm5j3ydDC33IBQg4r4huQQRSG4rb5CMPuhPxA9cBC/nX8rOzZm/kKfhuFjRnPXE38kz57IdXffTUJS85hlxZlyFv76HirdCjc8/WqrcayEAXUrWH2qm3WbduNwOZGKyp4Dx6iqdiCEwGw2YdDX6cgvOE3Z2WokkneX/wtrccMofeiUGXTrEdI8O0glqGcV2syPlPZg45JCCKbdeRcDJ1zEkrfeYOWSD5h77VVMnjGNbrF1e3dSRwwj9eWXWtRxYNcejHE9ufx3j7ZZ3uGdGwAwaaNwVjp44PG/suiPdzB6+ECyc0+Rc8yNqqq4a70YDXoG9k+gR1w33vjb5xzOOYrT1bCOo/joT6heL4o2+Melqmp1MPIhOkRUhhonTh4+nNv/+ndOZO1hw/qv+NvLbxITG0NK2hBi4mKJjo3BYDQwdPRI0kaNaJK3e8/ueJw1LWhuYN+mz9m26m8IoRBpiEUIKLDmce+ji7nthlnMnt58XOF01fKnVz7ix+wcKiuLm6QVHz3C+v9ZxJwHHw/6fhVFCSruEtKU2K1/+EOsgFtCyQt1tSUuKYkh09Ixms0ozhpGjh+HULTYbHZKzlSzcvHbaHVaBg8fihB1LatWp+ejv73DhHk3tDhzeDJ7N8ueuBOfz0uEPgqjzgQIpOqlynaa3LwK8vOL0Wq0mExGqu0ONmTu5aXFqzl56jjVtjK/egsOHUAfEUHfRl3rQDAaI/7znUWLAv6OhFRDFMgJ1xp8IRTM0dGMnzal/lq1jGLYrGtZ8/qzfLNmPTfdfQsT06fQvWcPEpN7c2L/Lr+zhj6fhxXP/Bavt7Ze989EGmLQKjqMWvj1vMmUlFWzees+Igw6EmOjEMKLvaaymc7GfP3X1xg+43JielkCvDmKL+reveObrCkWS+HWIqsdCHg8Eiw9+vTn9pff48fN6/lwyQre/PNLpI0eifSpnC32PyVrryin8kxDc+Py1BClj653jEEXiZBazFERdDObGNS/Lm7m9al0izJjM5uptrX8DVa9XsoL8gN3CPwUqODPhOQQIYTcYi08SAvb1MKFUBRGzpjDyBlzqLCeouCnQ8TV2Llw1pV+5aPjE5h81W3s+Px9AFTpxVZbSTdDXL1MhFbXbD+KVqPwn/dcybqdh/my2IHZ58R2aA8ue1PnGEyRJKUOC9h+qdI8RN0Goa+vkWxBhN8hBcdPYCcSc/+msau4pD7EJfVpIVcDVy18jr7Dx7F92VuohgiKh6RRZC3FklsXLRaK/95Ij9goLpw1kYfKuxFttTIuujsTSguotlWSe+I4UhFc9eifMEYFPs6TQmS2LdWU0B0iRCbIx0LO3wJ5ucdwYWBo/9BC3m5HDUe+XsP9N1/GJz37s6rGyLDNDQcyTB6f2mLeDx11EeWqpCRO903go7hKDucW8fX2QyROnsbwWXODMcWn83q/Ddb+kGcMo4TYAYR0vFFrGE0R6A0RIec/sGYZ109PJXVAAg5ZVxuiS+viY5UXDCQ6vXmldiNYZDfynrMhxF8uBYpQGDa4N7+/fTZ5326tn3cJDLHvkr59zwZrf8g1ZKzF4thita4DeXWoOvzqvWQSNhkVXCigEVWnjpA2YTwATilQVJXuhYVU9ezJt1dfQ2a1loE1PobpfMQrklNehb0eDWWy6btZrjb8FkIwIiWB08eO0jstsG+IQA36nBNo71JSoX6IFGF1yM5NW3FjYFBG8OuVpZQYGz1Xp4SY4mKEz8euq3+F79xI+7hPw3Ff60MwtwS7ClHn9CV270ZuQX6gDlFBWRn0DdDOXbjxZ6vXAv5HUiHi83rxhjgZZK8oIy62oSfukIIIWzVVvXphj4trJad/yhvVGlOEDo8tsCGFgMypSUkFbUs2p10OSUtLq0XwYXt0hBOPy4le23BLDikouSCFsuS2e2f+aNxsGQ16vM7AjmxUEe+EVCBh2KcuVV6lAz7uoeD1etBpGrq1Tgk+rZZDGRkh6StXG3TpdVq8rrodaj0jIrBERqL4Wy8gOI7FEtL3A8LgkPTevQtBLGtbsuNRfSpVrob1W852bgZu4hCDFo/LRXJUFENi40iJjmFwTGyzPEKK5wM5ja4lwnKSg0brfQGaTlpphCDRFImmE09p6NlvAIVuM+98sQ+7w42jnWf2/OyQWo+Xtdt+QkREEtVo9WXjvwGQnIgsLm5XEx4Wh1zSq+8JKWgykRFjMDAoJoZoQzh3uraOomiYc99jJE65jkXLdzJozRf0PHYUoYbmmVKbi3Xbj/DYm1/hTkpl8u13Ya2pwaOqqFJy6hehFYRY2N5TgsJ2+IzBJ5+rFeJGBAMAyl0u9pwpxe4J3r7KM6UUHw86LlePKTqG9LseZkThKYbt28aJvbux+1Qq4mI53TMRtykSj8mEx2jEp9MiJGjdLjQeLz3PVhBfdppuVVXY9AaqZs3mpgUPoj83lVxdW8vOkmKEEKiN9pUI5JqpSb2/DNnoc4TNIZOSk52bCwsfUKD+/JNQnNF/cAonjm3kwL8+C4tdEboI0i5IAyROu53q0jO45WlqfT4MBj3mSCN6oxHpdFJWWMSkGxfQa+BAYhISWjqLEQm/3B5nVxXtwnDYG9bjmab37r12q7VgsUTcB6BID8k1G4lzZaNIlWp9X05FzsStbXlMkDygP7fdf1c4zQqIAz/sZuM3m0m95JLgMwt+l56YeDIcdoT9vKwah+vhSFPERCFrx4wsX4zJ2zA/YXSeIc6Vzf4eC3Frgh+o+ePoocMc+GE3PRJ7ccmsGWhCmPduH+KdaZaksI3Fwn5e1uUpKW6vT72+T803zsbO+BmtdDKwOjzN0a5vt/Hpu+8T3T2awhPHefOZv/jdaduB7I8SovlapHbQIQeYZfTpczzRvrO5N84R685FkSH9e40mbPrnl9x0/52MnDiWWdfNQ2/QU3gir9162yLOfZjUymX20aXPrQrXf1z4mQ5xCIAGdyt9TYlC+w/21Gg16Bt1q42miKDPWgwWg6+C1LMf0N11MCpCrXzeu/cG/9OXIdJhDgG2t5RQo7XgFXWnF+kMBmrdodWW9Llz+HL5J5QWn+bHH/Zgq6wieUC/kHR5az1o9G0feWX0nq0QjV4mFRHawSgt0GEO8arKn4FmEzRSKJw0z6n/HZecjPXkyZDKGDf1YtLnzuXw7gMoaLn3qcdb7Kq2RcHJk8T29r/vsAGZV2NIngSy7iMo2a9zeVeEVGALdFiXxDhu5QnngZvHaL3et4GZgOLUJnhOmK/QVRoa9vskpqTgqvWQ8+NBBo8YHnQ5KWlDSUlr9eDTNnE5HGzfsJnrX3ixRRkh+MGj0c+b1iv5NHCNzL4uSqT9I+wH1HdKoEl+d10Eqlm7ZcBfDAL1AySXN07PP7CfdYte5IFnnqB3v36dYVI9LoeDt59/iegLUki/627/QpK/x1dV3Z+Wltb+nkgbdPrZiFJKsaW48FEhxbNA/d6Eozt38vVrrzJs/BhSh6Wh97eFLYz4pI+i/AK2b9jM0OnTmXbHHYjmqyHLpVDuTLdYQtscEgLn7bDKrQUFKVJhMYhZP19z2mxkb9rM6dwjeGvD8zIKIYjQaNAqCqqUOLxeVCkRioYYi4Wh0zPo0afZBJZEslyn1T48OSGhNCyGBGpvZxbmj61FBQukFM8DoU3rhRvJbiHEwqlJSd+dj+I7zyErVgxAURLIyfmeZ55pMgjJysrS1SQk3CgFjwEtL5zqQATskIgXp1osX4X7+PAg7egEli+fixD/pK5X9xkLFvhdUrJKSk3P4sIrheRWibiMRt+YDkFQJaX8VKIsnZ6U1PK/v+tEOschK1asAG6q/+1ydeOOO1pderWxsLC7VojrQV4GTAWC2qvXMqIE2CzgC52qfjEpOdkZHr3hoXMcsnLl75Dyf8792s+CBUHtoMyUUovVOhYhLgY1VdQdWZFK64c2S6AAyJXIHCFFtqLRbJ2SmHi4lTznnc78hswDktHpVp47kLndZGdn66u6dYvy6dUYj0djRuPzSqmz6z2e6uI+fao74v97dNFFF1100UUXXXTRRRdddNFFF110cd74PwdecDl3ZP/sAAAAAElFTkSuQmCC;" parent="1" vertex="1">
          <mxGeometry x="37" y="552" width="70" height="70" as="geometry" />
        </mxCell>
        <mxCell id="L-sPylKmDmo3-dS7Oe-S-48" value="" style="shape=image;verticalLabelPosition=bottom;labelBackgroundColor=#ffffff;verticalAlign=top;aspect=fixed;imageAspect=0;image=data:image/png,iVBORw0KGgoAAAANSUhEUgAAAGQAAABkCAYAAABw4pVUAAAABmJLR0QA/wD/AP+gvaeTAAAZ6UlEQVR4nO2deXxURbb4v3V7TSdNFggkHcJqIBA2WQUUCGFRQdFRcWFcxu0544Yz+nxuo86MPsVdec+ZQUURUBlxRAVGWQICohA2IWDCEkLSSQhJSNKdXtLdt94fwSymk3R3OmF+v0++f6VvnTp17j236ladWgJddNFFF1100UUXXXTRRRdddNFFF120gDjfBvz/gJQI22bLRFAHqVKxRlfEbhXzs2tD0dXlkBCo3Jw4RvhkQvTMkrX2jT17+dB8AMxuJJKnSnFN7MyifcHq/n/KIdvy82O9Gs1gIFURYrCUMgmIRNANQTckXqAGQSUSO4iTAnKA3EghcsZaLI5w2FG1IWGNEGK0OaO4T/WmxLXAZX7ETtYaPSPiLy6zBaP739ohG44fj9ZGRKQLKacD00EOJXSbvcAuKchUVDbXOJ07Lk9JcYeiyLYuId6nl2ZFaBKklDtaFBTi/uiMosXB6P63c8gqKTXxRUXpQspbEFwDmDqoqEokX0ohlk2zWDYJIWSwCqo3JtwqEe+3KCDkW9EZJQ8Eo1MbrBEdxYbjx6N1EYZ7KbI+APTqhFclBsHNAnnz1iLrkczCwkXmkpIVY8eO9QSqQBVKsZAt+1GqSlGwRp33GpKZlxeDQfewkNwLxJxnc04iWSSTkpakC+FtS1iuStNXx1X8BPT3k+xSBamxGcX5wRhwXh2yxWq9AuT/Ar3Ppx1+yFEl907v3XtTW4JnN1guVIRcTVOnuCTy5pgZJZ8GW/B5cUhmQcEFQiOWIJn2y7SqkhKKcnJw2e0daoPWoKd7ch8SU1IQiuJPRALve1zuh2YOHFjVmq4z23uY9W79rajqYKkohRL5cbA142c63SFbigquRor3+EXzZCsvZ8Mbr1Ocm8sFaUMxRUV2qB2e2lqseSdx1XqY9eCD9B05qiXRfCm5Ib137+871KBzdJpDsrOz9Wdio19H8ttfptnKy1mx8EEy5l5Gxry5aDSazjKLnw4c5L3X3mTGfQ+QMnFiS2JuiXg4PSkpqC5sKHSKQ74uKYk0+HyfgrzUX/rqPz7F8LRUZv9qXmeY04zCkyd59ck/cde772GMimpFUrw11WJZKIRQO8qWDnfIdwUFcbWK+Arw+/pVlhSz8qGHeGHp39Fo/Lblfjm87wBlJaf9pmm0WiZmTEVRAq9pS99YTNQFQxh7VVsvhVgZVVx8WzDd42Do0HHIxsLC7rVCfgsMbUmmOCeXgUOHBOUMgOqzZyk77d8hOr2eVoYHfhkyfBhZB7KBthwib7In9jKtkvLa+UL4giulbTrMIVlFRaYaqa6RiBadAeCuqcEUGfxg/KLp00K0zD8RkZG4A+7Ziat6Wq1LpZS3hjLCb43gXssAycrK0tmlXC1hcluyUkqEOO/jUwDOWq1889ornMk70baw4OYtxdY/h9uG4GvI8uX3IsREpPyYX//6K38i9sRez7X0AW+L/d/vYv0nn2IModa0hUar5d4n/wuNVoujpoa1K1dx3V2/qU83myOZc0UGn36wlHnPtP2sheSJzUUF+6ZbkleHy8bgHLJy5VVIWdf1E2I+H300iBtvPNlYZEtxwWWo4uFQDao+W8mYWXMYOvv6UFW0SjGACjZHGYVFZU3SNBoNeqMRr6fNqEk9ihTvbDudv++SXn0DqFYB6AtKWso+jX7p8PmSGidvKihIQhXL+DeIkXUiMT6P5uOsrCxdOJQF5xCdbjlCHDj3azXHju1snKwV4g2gRzgM62hMMTFcdMVV4VEmGGdPTFwIULnRMqNyU+JqmdnPGIqq4Jqs+fMrgFGsWhXF/PlNuiRbi4pmSaleE4oR5wUp0eoM4VT4zKaiolXKkbHJUjK6SqtGAK5gtYTW7f2FMzLz8owS9X9D0nWeUBQN0d2bVuby0jN8smQ55vieoag0aVX1lW4ZRdcCS0O1KyzjEKHX346UA8Ohq7MQikJcogWorL8WnWhh/K23071v35B0SsE1mUWnxqZb+mSFale7HZKVlaWzIx9pr57OQKoqpw7txZr9IzUVZZhjoph08Wgs/fsBoDMa6TlgQLvKEKryGBBy091uh9gSEhYI6NdePR1N/o9ZbHr7FSqsp5pc37FqJVf+5hbikhLDU5Dg6sySU8PSE/ocCiV7ux0iBEFN4jdDShx2G7u+3Yaj2saRAweRWiM+QwxxCUkkpKSi0bTPzAP/+pyNb7+M9BPgklKy5r0PmHnj/HaV0QiBV7kPuCe0zO1gc3F+mqJqgn4TpJSc3LeXg+vXczxrN7FxsQxKG0q3mG4YIyJwOBzYqu3k5R6ntLiY/mkjGTHzSgZNuCSoCC5AwY97+eSpB2gr2ujFh0EfgSk6mtSMDC665RaU0OdlzjoczsRQlhm1yyFbrAWLQAT1/SjMPsSGN98iKiqCK669iokZU4kytzwH4bDX8MPW7az9dA2ni0qZ9R+/J2VsmyEyoM7x7/zHfKpKWln8IYRfZ4278QYm3fYbPxkCQxXy2lBCKiE7REopthZZC4CkNoXr5Nm29D2ObvuW3z66kAlTLw66zP3f7+at517FMng4l977aJtNWWH2fj5+7N4W0++47VLSp4xiydJ1HDx0nIqzNfVpGp2OO1asICI6Omg76xD/nJaU9Kugc4VYWlDNlZSSf736Ct6KMzz9+gtE+pmVk1Ky69vt7NvxHR6Xi9j4eNKvmEtSvz5N5NwuN88/8hQ2l8o1j7/YqlO2L1/C96ve95s2+sIU/vDgtU2u7d6TwxuLP6uvMBm/f4hhs0OKkYKgqjQxqXuwcyYhh98VVZkeqOyeNZ/jKi3h+bdf8+sMZ42DP95zP6UHv2PBzMHc/auxXDoqnq0fL2XNB8uayBqMBv74+n9j0ku2rVjSYplSVflp+8YW0+deNqHZtXFjBnPdNVPrfx/9blsgt9eCAUQnFBaOCTZbO+ZDlPRApGxlZ/j+o5U89sKzaHUN8bdlL75MzbkJoXdeep25U1Ipzylg+eKvcLk8rF6dSVVRCT1EFdvXr2+iU6PR8MhfnuTHzLWcPnmsWZmq6iPz3TepLCr0a9OYCwcxeFCy37TZM8eh1dZ9zKus1kBusUWkQkDPqDHtcIhs/or5Yf+6dUyfM5v4hIZwhK2qmqp9u1n64EL2bNlKXk4uo9L6Y7Da6F/i5my1jXgFemkVRgxJJv/gPlS1ac2Pjo1lznVXs3dd0+9mYfZ+PnzodvZ++Q+/9pjNJsaNS6XaVve9cNd62XPgGGs37GbN+u85nHOKgQMsADjK60bxzqpWl2W1iISLgs0TkkO+Ly/vBgQ0ksrb9QPTLpvZ5JpWq6VK6Bip87B66Qq69+zOkaMFTLlnFhfcPY3EnnFcOHMCY2ZPQK/TMaRvLEf2/dhM9/S5s8ndvb3+d0VhPv94aiFn8prXGgEkWnowafJw8q2llJ2tq50ul5N9B/MoOVNJZbWD4yeLMUfXrQnzOJx8/dIi9q4Odf5JDA42R0gOcdXWDCbADsHZomKS+jRtHiIiTcy9/36+tAl8Hjvg452PNmMyR5A8MAEAS2IPtu7I5K2/vonJaKDwWG4z3QmWRBzVNjzuuu7+4S1f4/M2XQyiKAJzdCR/fuY3LHruDoYM7s2FIwbw9cYsSs6c5d2VG0lLTWZUWn+unD2eK2ZPwKNKNOearZ82bqL3yJHBPqKfGZgpZVCj2pAcIqQYFLiwf7+NmjSBuIQepPSPpNRqZdiYMRzJLWgiY9C7GZnqwma3o9X7CZULgaIIfJ663WNVp0uaJGuNOm66aQYZM8bQv18Cqk+y8rOt6HU6pICfjhbi9ahMHJuKw+nmq292YzToSL94OFfPm0xkdCSW8SPoOybob/PP6LVWa1DBsZAcIlXRK1DZuMRECvNP+U37/fPPUeFLwOO0U5BzkJHDGmwvOl3JpElXMHTEPVTZ3Awe1fwtPVN8Gq1ejyGyrudmMDXMw/s0Phy1DrQ6LbXuulrjrvVi6RVHQnwMKf0tTJs0nOhzzZM50sjcWeMA0CgCrV4HGpV9G7/gs+eeQPUGPq3bGI8Q8cHIh1ZDhDAHKjvgoovYvPYbv2n2ajvOynISe8XTTe9k157D9WlLNpfw8VYrpgg92Xln6N2/+Yr/bRs2M3j8xfWrVpJHjK5Pq7adwe6oJr/wNHExZnbvyyXSZOCR+66hrKKaqKgIAC7oZ2HHD0cYNXwgsdGRnCooIzLSiLW4DIez7juT9dWnfP32q4HechOEUAN+VhByL0ttbb1lE0Zceilb1m+gtKikWVpM9xgqyquYPX08Xqlj5/e7KSgsBSBjiInRfYwsWZnJTQ8+2Cyv2+Vm9bKPGXvFDfXXBk2cVu8URWjxeuxs2LwHrU6hZ0wM27Zms3HLfpwuDxPHptaVM2UEZrOJdRuz2LkzB+GGZEs8O3YdobS0uF73vvWfB3rLTRBq4C8vhBjtlUJEEuDyMHOPeCYtWMB/P/o0i959C51eX5+mKBoeeel5Xnn0SdRaDyNS9Cxd+QXjxlzIifxSYhIsPPDiIoympkuCpKrywn89y6CLppEwIKX+ulAUrn36FX5YvZxtHy/BU+Wi2l6OokCfxHj69OgBRoHQCXyqikZR8PpURgzty4ihfcEpwQcVTjvmKB3FJQ3NVPLwC0N5VEG1JhDyN4Sg9mCPvnIeJouFx+5ZiL266abU3v368spH73Pnk09wON/HqEGRHD5VwU2PPsbtjz/ezBme2lpee3YRZRU2Zt7ZvOZodHom3XA7l9x6Nz7pRUof5RXVCIMCJgWhq2veFCGw2Rz4fI3WTRsFmAQ17lpUX4MzjFFm5j3ydDC33IBQg4r4huQQRSG4rb5CMPuhPxA9cBC/nX8rOzZm/kKfhuFjRnPXE38kz57IdXffTUJS85hlxZlyFv76HirdCjc8/WqrcayEAXUrWH2qm3WbduNwOZGKyp4Dx6iqdiCEwGw2YdDX6cgvOE3Z2WokkneX/wtrccMofeiUGXTrEdI8O0glqGcV2syPlPZg45JCCKbdeRcDJ1zEkrfeYOWSD5h77VVMnjGNbrF1e3dSRwwj9eWXWtRxYNcejHE9ufx3j7ZZ3uGdGwAwaaNwVjp44PG/suiPdzB6+ECyc0+Rc8yNqqq4a70YDXoG9k+gR1w33vjb5xzOOYrT1bCOo/joT6heL4o2+Melqmp1MPIhOkRUhhonTh4+nNv/+ndOZO1hw/qv+NvLbxITG0NK2hBi4mKJjo3BYDQwdPRI0kaNaJK3e8/ueJw1LWhuYN+mz9m26m8IoRBpiEUIKLDmce+ji7nthlnMnt58XOF01fKnVz7ix+wcKiuLm6QVHz3C+v9ZxJwHHw/6fhVFCSruEtKU2K1/+EOsgFtCyQt1tSUuKYkh09Ixms0ozhpGjh+HULTYbHZKzlSzcvHbaHVaBg8fihB1LatWp+ejv73DhHk3tDhzeDJ7N8ueuBOfz0uEPgqjzgQIpOqlynaa3LwK8vOL0Wq0mExGqu0ONmTu5aXFqzl56jjVtjK/egsOHUAfEUHfRl3rQDAaI/7znUWLAv6OhFRDFMgJ1xp8IRTM0dGMnzal/lq1jGLYrGtZ8/qzfLNmPTfdfQsT06fQvWcPEpN7c2L/Lr+zhj6fhxXP/Bavt7Ze989EGmLQKjqMWvj1vMmUlFWzees+Igw6EmOjEMKLvaaymc7GfP3X1xg+43JielkCvDmKL+reveObrCkWS+HWIqsdCHg8Eiw9+vTn9pff48fN6/lwyQre/PNLpI0eifSpnC32PyVrryin8kxDc+Py1BClj653jEEXiZBazFERdDObGNS/Lm7m9al0izJjM5uptrX8DVa9XsoL8gN3CPwUqODPhOQQIYTcYi08SAvb1MKFUBRGzpjDyBlzqLCeouCnQ8TV2Llw1pV+5aPjE5h81W3s+Px9AFTpxVZbSTdDXL1MhFbXbD+KVqPwn/dcybqdh/my2IHZ58R2aA8ue1PnGEyRJKUOC9h+qdI8RN0Goa+vkWxBhN8hBcdPYCcSc/+msau4pD7EJfVpIVcDVy18jr7Dx7F92VuohgiKh6RRZC3FklsXLRaK/95Ij9goLpw1kYfKuxFttTIuujsTSguotlWSe+I4UhFc9eifMEYFPs6TQmS2LdWU0B0iRCbIx0LO3wJ5ucdwYWBo/9BC3m5HDUe+XsP9N1/GJz37s6rGyLDNDQcyTB6f2mLeDx11EeWqpCRO903go7hKDucW8fX2QyROnsbwWXODMcWn83q/Ddb+kGcMo4TYAYR0vFFrGE0R6A0RIec/sGYZ109PJXVAAg5ZVxuiS+viY5UXDCQ6vXmldiNYZDfynrMhxF8uBYpQGDa4N7+/fTZ5326tn3cJDLHvkr59zwZrf8g1ZKzF4thita4DeXWoOvzqvWQSNhkVXCigEVWnjpA2YTwATilQVJXuhYVU9ezJt1dfQ2a1loE1PobpfMQrklNehb0eDWWy6btZrjb8FkIwIiWB08eO0jstsG+IQA36nBNo71JSoX6IFGF1yM5NW3FjYFBG8OuVpZQYGz1Xp4SY4mKEz8euq3+F79xI+7hPw3Ff60MwtwS7ClHn9CV270ZuQX6gDlFBWRn0DdDOXbjxZ6vXAv5HUiHi83rxhjgZZK8oIy62oSfukIIIWzVVvXphj4trJad/yhvVGlOEDo8tsCGFgMypSUkFbUs2p10OSUtLq0XwYXt0hBOPy4le23BLDikouSCFsuS2e2f+aNxsGQ16vM7AjmxUEe+EVCBh2KcuVV6lAz7uoeD1etBpGrq1Tgk+rZZDGRkh6StXG3TpdVq8rrodaj0jIrBERqL4Wy8gOI7FEtL3A8LgkPTevQtBLGtbsuNRfSpVrob1W852bgZu4hCDFo/LRXJUFENi40iJjmFwTGyzPEKK5wM5ja4lwnKSg0brfQGaTlpphCDRFImmE09p6NlvAIVuM+98sQ+7w42jnWf2/OyQWo+Xtdt+QkREEtVo9WXjvwGQnIgsLm5XEx4Wh1zSq+8JKWgykRFjMDAoJoZoQzh3uraOomiYc99jJE65jkXLdzJozRf0PHYUoYbmmVKbi3Xbj/DYm1/hTkpl8u13Ya2pwaOqqFJy6hehFYRY2N5TgsJ2+IzBJ5+rFeJGBAMAyl0u9pwpxe4J3r7KM6UUHw86LlePKTqG9LseZkThKYbt28aJvbux+1Qq4mI53TMRtykSj8mEx2jEp9MiJGjdLjQeLz3PVhBfdppuVVXY9AaqZs3mpgUPoj83lVxdW8vOkmKEEKiN9pUI5JqpSb2/DNnoc4TNIZOSk52bCwsfUKD+/JNQnNF/cAonjm3kwL8+C4tdEboI0i5IAyROu53q0jO45WlqfT4MBj3mSCN6oxHpdFJWWMSkGxfQa+BAYhISWjqLEQm/3B5nVxXtwnDYG9bjmab37r12q7VgsUTcB6BID8k1G4lzZaNIlWp9X05FzsStbXlMkDygP7fdf1c4zQqIAz/sZuM3m0m95JLgMwt+l56YeDIcdoT9vKwah+vhSFPERCFrx4wsX4zJ2zA/YXSeIc6Vzf4eC3Frgh+o+ePoocMc+GE3PRJ7ccmsGWhCmPduH+KdaZaksI3Fwn5e1uUpKW6vT72+T803zsbO+BmtdDKwOjzN0a5vt/Hpu+8T3T2awhPHefOZv/jdaduB7I8SovlapHbQIQeYZfTpczzRvrO5N84R685FkSH9e40mbPrnl9x0/52MnDiWWdfNQ2/QU3gir9162yLOfZjUymX20aXPrQrXf1z4mQ5xCIAGdyt9TYlC+w/21Gg16Bt1q42miKDPWgwWg6+C1LMf0N11MCpCrXzeu/cG/9OXIdJhDgG2t5RQo7XgFXWnF+kMBmrdodWW9Llz+HL5J5QWn+bHH/Zgq6wieUC/kHR5az1o9G0feWX0nq0QjV4mFRHawSgt0GEO8arKn4FmEzRSKJw0z6n/HZecjPXkyZDKGDf1YtLnzuXw7gMoaLn3qcdb7Kq2RcHJk8T29r/vsAGZV2NIngSy7iMo2a9zeVeEVGALdFiXxDhu5QnngZvHaL3et4GZgOLUJnhOmK/QVRoa9vskpqTgqvWQ8+NBBo8YHnQ5KWlDSUlr9eDTNnE5HGzfsJnrX3ixRRkh+MGj0c+b1iv5NHCNzL4uSqT9I+wH1HdKoEl+d10Eqlm7ZcBfDAL1AySXN07PP7CfdYte5IFnnqB3v36dYVI9LoeDt59/iegLUki/627/QpK/x1dV3Z+Wltb+nkgbdPrZiFJKsaW48FEhxbNA/d6Eozt38vVrrzJs/BhSh6Wh97eFLYz4pI+i/AK2b9jM0OnTmXbHHYjmqyHLpVDuTLdYQtscEgLn7bDKrQUFKVJhMYhZP19z2mxkb9rM6dwjeGvD8zIKIYjQaNAqCqqUOLxeVCkRioYYi4Wh0zPo0afZBJZEslyn1T48OSGhNCyGBGpvZxbmj61FBQukFM8DoU3rhRvJbiHEwqlJSd+dj+I7zyErVgxAURLIyfmeZ55pMgjJysrS1SQk3CgFjwEtL5zqQATskIgXp1osX4X7+PAg7egEli+fixD/pK5X9xkLFvhdUrJKSk3P4sIrheRWibiMRt+YDkFQJaX8VKIsnZ6U1PK/v+tEOschK1asAG6q/+1ydeOOO1pderWxsLC7VojrQV4GTAWC2qvXMqIE2CzgC52qfjEpOdkZHr3hoXMcsnLl75Dyf8792s+CBUHtoMyUUovVOhYhLgY1VdQdWZFK64c2S6AAyJXIHCFFtqLRbJ2SmHi4lTznnc78hswDktHpVp47kLndZGdn66u6dYvy6dUYj0djRuPzSqmz6z2e6uI+fao74v97dNFFF1100UUXXXTRRRdddNFFF110cd74PwdecDl3ZP/sAAAAAElFTkSuQmCC;" parent="1" vertex="1">
          <mxGeometry x="545" y="550" width="70" height="70" as="geometry" />
        </mxCell>
        <mxCell id="ClL08HFa1sP2JxQlRzgX-1" value="&lt;span style=&quot;font-size: 11px&quot;&gt;Nossa, estou me sentindo mais cansada que o normal para fazer exercícios, o que será que está acontecendo ?&amp;nbsp;&lt;/span&gt;" style="text;html=1;strokeColor=none;fillColor=none;align=center;verticalAlign=middle;whiteSpace=wrap;rounded=0;" vertex="1" parent="1">
          <mxGeometry x="-278" y="115" width="120" height="20" as="geometry" />
        </mxCell>
        <mxCell id="ClL08HFa1sP2JxQlRzgX-2" value="" style="ellipse;whiteSpace=wrap;html=1;aspect=fixed;" vertex="1" parent="1">
          <mxGeometry x="-223" y="220" width="10" height="10" as="geometry" />
        </mxCell>
        <mxCell id="ClL08HFa1sP2JxQlRzgX-3" value="" style="ellipse;whiteSpace=wrap;html=1;aspect=fixed;" vertex="1" parent="1">
          <mxGeometry x="-263" y="180" width="30" height="30" as="geometry" />
        </mxCell>
      </root>
    </mxGraphModel>
  </diagram>
</mxfile>
